<svg width="22" height="22" viewBox="0 0 22 22" fill="none" xmlns="http://www.w3.org/2000/svg">
<g id="Frame" clip-path="url(#clip0_3264_138511)">
<path id="Vector" d="M11.6367 21.376V3.17967C11.6367 2.34063 11.6689 1.49514 11.6367 0.658251C11.6367 0.645343 11.6367 0.634586 11.6367 0.621678C11.6367 -0.208754 10.3458 -0.210906 10.3458 0.621678V18.8159C10.3458 19.6549 10.3136 20.5004 10.3458 21.3373C10.3458 21.3502 10.3458 21.361 10.3458 21.3739C10.3458 22.2043 11.6367 22.2065 11.6367 21.3739V21.376Z" fill="#AAAAAA"/>
<path id="Vector_2" d="M12.9943 1.28437C12.1574 2.12126 11.3205 2.95815 10.4836 3.79503H11.3958C10.5977 2.99687 9.7995 2.19871 9.00134 1.40055C8.41401 0.813223 7.49968 1.72541 8.08915 2.31273C8.88732 3.1109 9.68548 3.90906 10.4836 4.70722C10.731 4.95463 11.1484 4.95463 11.3958 4.70722C12.2327 3.87033 13.0696 3.03345 13.9065 2.19656C14.4938 1.60923 13.5816 0.694897 12.9943 1.28437Z" fill="#AAAAAA"/>
<path id="Vector_3" d="M13.9084 19.928C13.0716 19.0911 12.2347 18.2543 11.3978 17.4174C11.1504 17.17 10.733 17.17 10.4856 17.4174C9.68744 18.2155 8.88928 19.0137 8.09112 19.8119C7.50379 20.3992 8.41597 21.3135 9.0033 20.724C9.80146 19.9259 10.5996 19.1277 11.3978 18.3296H10.4856C11.3225 19.1664 12.1594 20.0033 12.9963 20.8402C13.5836 21.4275 14.4979 20.5154 13.9084 19.928Z" fill="#AAAAAA"/>
<path id="Vector_4" d="M0.623799 11.6368H2.68697C4.33923 11.6368 5.98934 11.6368 7.6416 11.6368H13.6353C15.3629 11.6368 17.0905 11.6368 18.818 11.6368C19.657 11.6368 20.5025 11.6691 21.3394 11.6368C21.3523 11.6368 21.3631 11.6368 21.376 11.6368C22.2064 11.6368 22.2086 10.346 21.376 10.346H19.3128C17.6606 10.346 16.0105 10.346 14.3582 10.346H8.36446C6.6369 10.346 4.90935 10.346 3.18179 10.346C2.34275 10.346 1.49726 10.3137 0.660372 10.346C0.647464 10.346 0.636707 10.346 0.623799 10.346C-0.206633 10.346 -0.208785 11.6368 0.623799 11.6368Z" fill="#AAAAAA"/>
<path id="Vector_5" d="M4.25535 5.15882C5.67311 6.57658 7.09087 7.99434 8.50863 9.4121C10.7676 11.671 13.0244 13.9278 15.2833 16.1868L16.8323 17.7358C17.4196 18.3231 18.334 17.4109 17.7445 16.8236C16.3267 15.4058 14.909 13.9881 13.4912 12.5703C11.2323 10.3114 8.97548 8.05457 6.71653 5.79563L5.16754 4.24663C4.58021 3.65931 3.66587 4.57149 4.25535 5.15882Z" fill="#AAAAAA"/>
<path id="Vector_6" d="M5.16732 17.736L9.42059 13.4828C11.6795 11.2238 13.9363 8.96702 16.1953 6.70808L17.7443 5.15908C18.3316 4.57176 17.4194 3.65742 16.8321 4.2469L12.5788 8.50017C10.3199 10.7591 8.06307 13.0159 5.80413 15.2749L4.25513 16.8239C3.66781 17.4112 4.57999 18.3255 5.16732 17.736Z" fill="#AAAAAA"/>
<path id="Vector_7" d="M20.7154 12.9942C19.8785 12.1573 19.0417 11.3204 18.2048 10.4835V11.3957C19.0029 10.5976 19.8011 9.79941 20.5993 9.00125C21.1866 8.41392 20.2744 7.49958 19.6871 8.08906C18.8889 8.88722 18.0907 9.68539 17.2926 10.4835C17.0452 10.731 17.0452 11.1483 17.2926 11.3957C18.1295 12.2326 18.9664 13.0695 19.8032 13.9064C20.3906 14.4937 21.3049 13.5815 20.7154 12.9942Z" fill="#AAAAAA"/>
<path id="Vector_8" d="M2.06962 13.9086C2.9065 13.0717 3.74339 12.2348 4.58027 11.3979C4.82768 11.1505 4.82768 10.7331 4.58027 10.4857C3.78211 9.68756 2.98395 8.8894 2.18579 8.09124C1.59846 7.50391 0.684127 8.4161 1.2736 9.00342C2.07177 9.80158 2.86993 10.5997 3.66809 11.3979V10.4857C2.8312 11.3226 1.99432 12.1595 1.15743 12.9964C0.570104 13.5837 1.48229 14.498 2.06962 13.9086Z" fill="#AAAAAA"/>
</g>
<defs>
<clipPath id="clip0_3264_138511">
<rect width="22" height="22" fill="white"/>
</clipPath>
</defs>
</svg>
