<svg width="22" height="22" viewBox="0 0 22 22" fill="none" xmlns="http://www.w3.org/2000/svg">
<g id="&#240;&#159;&#166;&#134; icon &#34;balcony window&#34;">
<path id="Vector" d="M1.10481 12.1342H20.8856V22H1.10481V12.1342ZM19.4445 13.6009H2.54586V20.5333H19.4445V13.6009ZM22 13.6009H0V12.1342H22L22 13.6009ZM7.13798 21.2667H5.69692V12.8676H7.138L7.13798 21.2667ZM11.7205 21.2667H10.2795V12.8676H11.7205L11.7205 21.2667ZM16.303 21.2667H14.862V12.8676H16.303V21.2667ZM17.2253 11H15.7842V6.336C15.7842 3.64674 13.6422 1.46667 11 1.46667C8.3577 1.46667 6.21572 3.64676 6.21572 6.336V11H4.77467V6.336C4.77467 2.83673 7.56185 0 11 0C14.4381 0 17.2253 2.83673 17.2253 6.336L17.2253 11ZM17.2253 7.9982H5.49518V6.53155H17.2253L17.2253 7.9982ZM11.7205 11H10.2795V0.733326H11.7205L11.7205 11Z" fill="#AAAAAA"/>
</g>
</svg>
