<svg width="23" height="23" viewBox="0 0 23 23" fill="none" xmlns="http://www.w3.org/2000/svg">
<g id="Frame" clip-path="url(#clip0_3264_138147)">
<path id="Vector" d="M13.0288 6.77984C13.0146 4.52059 11.7809 2.38719 9.78383 1.24857C7.78675 0.111959 5.24205 0.111959 3.24497 1.25057C1.26621 2.3772 0.0142197 4.50062 -3.06444e-05 6.74588C-0.014281 8.99315 1.22142 11.1285 3.18797 12.2791C5.6777 13.7354 8.90031 13.3439 11.0053 11.4122C11.5814 10.8848 10.7162 10.0379 10.1421 10.5652C9.33392 11.3063 8.29569 11.8037 7.19231 11.9396C6.92155 11.9735 6.64469 11.9815 6.36986 11.9755C6.12557 11.9695 5.86906 11.9475 5.68992 11.9176C5.46395 11.8796 5.23798 11.8297 5.01811 11.7658C4.79825 11.7018 4.52546 11.608 4.36871 11.5361C3.51572 11.1445 2.77471 10.5772 2.25966 9.88007C2.12937 9.70228 2.00723 9.51851 1.8973 9.32674C1.84233 9.23086 1.7894 9.13298 1.74054 9.0351C1.68354 8.92323 1.63468 8.81337 1.61025 8.75344C1.43925 8.32995 1.29471 7.78462 1.254 7.40708C1.15017 6.46622 1.28657 5.51139 1.65504 4.70637C1.74665 4.50661 1.85047 4.31085 1.96651 4.12108C2.0683 3.95328 2.25152 3.6896 2.32684 3.59572C2.47749 3.40795 2.64442 3.23016 2.81746 3.06237C2.97014 2.91455 3.18593 2.73277 3.30197 2.64687C3.64398 2.39718 4.11627 2.1295 4.43996 1.99567C4.67 1.90178 4.90818 1.82387 5.15044 1.76195C5.35605 1.70802 5.67363 1.64609 5.80595 1.63011C6.7648 1.51225 7.74196 1.6421 8.56644 1.98768C10.5493 2.82066 11.7952 4.71236 11.8074 6.78184C11.8114 7.5529 13.0329 7.5549 13.0288 6.78184V6.77984Z" fill="#AAAAAA"/>
<path id="Vector_2" d="M17.0904 21.8235C16.8461 21.7895 16.5998 21.7595 16.3575 21.7136C16.2557 21.6936 16.1539 21.6716 16.0562 21.6457C16.0114 21.6337 15.9646 21.6197 15.9198 21.6037C15.8913 21.5937 15.8608 21.5817 15.8323 21.5718C15.7264 21.5398 15.9585 21.6417 15.8649 21.5837C15.7794 21.5318 15.6857 21.4819 15.5982 21.4319C15.5188 21.386 15.6409 21.4639 15.647 21.4699C15.6246 21.4479 15.5982 21.4299 15.5738 21.408C15.531 21.366 15.4903 21.3221 15.4475 21.2801C15.358 21.1922 15.5086 21.38 15.4272 21.2521C15.3946 21.2002 15.36 21.1483 15.3295 21.0943C15.2969 21.0364 15.2684 20.9765 15.2399 20.9166C15.305 21.0484 15.2562 20.9585 15.244 20.9225C15.2256 20.8726 15.2073 20.8227 15.189 20.7727C14.8979 19.9058 14.9101 19.0428 14.9101 18.082C14.9101 17.1811 14.8918 16.2722 14.9671 15.3733C14.9732 15.2974 14.9813 15.2215 14.9895 15.1456C14.9936 15.1016 14.9997 15.0597 15.0058 15.0157C15.0058 15.0297 14.9834 15.1576 15.0017 15.0517C15.0261 14.9139 15.0506 14.774 15.0852 14.6382C15.1137 14.5303 15.1462 14.4225 15.1829 14.3186C15.2012 14.2706 15.2195 14.2227 15.2399 14.1748C15.1666 14.3645 15.2582 14.1428 15.2786 14.0989C15.3905 13.8751 15.5269 13.6654 15.6715 13.4616C15.757 13.3418 15.8445 13.2219 15.932 13.1041C15.9809 13.0381 16.0318 12.9742 16.0807 12.9083C16.1051 12.8763 16.1295 12.8464 16.1519 12.8144C16.1702 12.7885 16.0522 12.9363 16.1417 12.8264C17.0212 11.7677 18.0085 10.7929 18.9796 9.81607C19.7715 9.02104 20.5695 8.232 21.3757 7.45095C21.9355 6.90761 21.0723 6.06064 20.5125 6.60398C19.802 7.29115 19.0977 7.9863 18.3994 8.68545C17.3612 9.72418 16.2944 10.7609 15.3539 11.8875C14.9671 12.351 14.5783 12.8404 14.2872 13.3677C13.996 13.8951 13.8495 14.4584 13.7762 15.0557C13.6724 15.9107 13.6886 16.7816 13.6886 17.6425C13.6886 18.7092 13.6642 19.8119 13.9411 20.8526C14.1202 21.5318 14.4765 22.185 15.1116 22.5466C15.6185 22.8342 16.1987 22.8961 16.7687 22.976C17.0945 23.022 17.4243 22.8981 17.5199 22.5566C17.5993 22.2749 17.4222 21.8654 17.0924 21.8195L17.0904 21.8235Z" fill="#AAAAAA"/>
<path id="Vector_3" d="M11.0174 22.9781C11.5386 22.9062 12.0556 22.8443 12.5361 22.6186C13.102 22.3529 13.4685 21.8595 13.6944 21.3002C14.0385 20.4552 14.0792 19.4844 14.0934 18.5855C14.1077 17.5747 14.1179 16.554 14.0527 15.5432C14.01 14.9 13.9143 14.2747 13.6517 13.6814C13.4237 13.1641 13.0756 12.7106 12.7295 12.2652C11.8521 11.1306 10.8036 10.1158 9.79187 9.09703C8.96128 8.26005 8.12052 7.42906 7.27364 6.60806C6.71381 6.06672 5.84861 6.91369 6.41048 7.45503C8.11644 9.10702 9.85702 10.761 11.4123 12.5548C11.4917 12.6447 11.5691 12.7386 11.6444 12.8305C11.7503 12.9583 11.5528 12.7106 11.6749 12.8704C11.736 12.9483 11.7951 13.0262 11.8561 13.1061C12.0231 13.3279 12.188 13.5516 12.3345 13.7893C12.3976 13.8912 12.4567 13.9951 12.5096 14.1009C12.5361 14.1529 12.5585 14.2048 12.5829 14.2567C12.5178 14.1189 12.5727 14.2348 12.5992 14.3047C12.6888 14.5484 12.7376 14.8001 12.7865 15.0538C12.7926 15.0877 12.8007 15.1696 12.7824 15.0178C12.7885 15.0618 12.7926 15.1037 12.7987 15.1477C12.8068 15.2156 12.8129 15.2835 12.819 15.3514C12.8353 15.5312 12.8435 15.709 12.8516 15.8888C12.8699 16.3402 12.874 16.7917 12.876 17.2431C12.8781 17.8324 12.8883 18.4237 12.8638 19.013C12.8435 19.4924 12.815 19.8699 12.7295 20.2774C12.6888 20.4752 12.6379 20.6709 12.5686 20.8607C12.5585 20.8887 12.5463 20.9166 12.5361 20.9446C12.4913 21.0705 12.589 20.8527 12.53 20.9566C12.4913 21.0245 12.4608 21.0964 12.418 21.1623C12.3895 21.2103 12.2389 21.3821 12.3691 21.2442C12.3264 21.2882 12.2897 21.3361 12.245 21.3781C12.1941 21.428 12.0516 21.5059 12.2124 21.418C12.1595 21.448 12.1106 21.4879 12.0577 21.5179C12.0088 21.5459 11.9518 21.5639 11.907 21.5938C11.846 21.6358 12.0597 21.5439 11.9538 21.5738C11.9233 21.5818 11.8948 21.5958 11.8663 21.6058C11.7442 21.6478 11.62 21.6777 11.4938 21.7037C11.2291 21.7576 10.9624 21.7896 10.6958 21.8255C10.368 21.8715 10.1888 22.279 10.2682 22.5626C10.3639 22.9082 10.6917 23.0261 11.0194 22.9821L11.0174 22.9781Z" fill="#AAAAAA"/>
<path id="Vector_4" d="M10.7892 23.0001H16.7092C17.495 23.0001 17.4971 21.8015 16.7092 21.8015H10.7892C10.0034 21.8015 10.0014 23.0001 10.7892 23.0001Z" fill="#AAAAAA"/>
<path id="Vector_5" d="M6.84199 7.51092H20.8745C21.6603 7.51092 21.6623 6.31238 20.8745 6.31238H6.84199C6.05619 6.31238 6.05415 7.51092 6.84199 7.51092Z" fill="#AAAAAA"/>
<path id="Vector_6" d="M14.4314 13.7313C14.7755 12.361 15.1195 10.9887 15.4615 9.61834C16.0091 7.431 16.5568 5.24566 17.1064 3.05832C17.2326 2.55494 17.3589 2.04955 17.4851 1.54616L17.0576 1.96565C18.6638 1.73194 20.27 1.49822 21.8762 1.26451L22.5541 1.16663C22.8798 1.11868 23.061 0.715175 22.9816 0.429523C22.8859 0.085941 22.5582 -0.0359107 22.2304 0.0100333C20.6242 0.243749 19.018 0.477464 17.4118 0.71118L16.7339 0.809061C16.5344 0.837027 16.3532 1.04477 16.3064 1.22855C15.9623 2.59888 15.6183 3.97121 15.2763 5.34154C14.7287 7.52888 14.181 9.71422 13.6314 11.9016C13.5052 12.4049 13.3789 12.9103 13.2527 13.4137C13.0654 14.1628 14.2421 14.4824 14.4314 13.7333V13.7313Z" fill="#AAAAAA"/>
<path id="Vector_7" d="M7.73571 6.58012V3.98329C7.73571 3.66967 7.45477 3.37003 7.12498 3.38402C6.79519 3.398 6.51425 3.64769 6.51425 3.98329V6.58012C6.51425 6.89374 6.79519 7.19338 7.12498 7.17939C7.45477 7.16541 7.73571 6.91572 7.73571 6.58012Z" fill="#AAAAAA"/>
<path id="Vector_8" d="M5.15863 9.48266C5.77139 9.02522 6.38619 8.56777 6.99896 8.10833C7.08853 8.04241 7.17607 7.97649 7.26564 7.91057C7.39796 7.81269 7.49975 7.71681 7.54657 7.55301C7.58729 7.40918 7.56897 7.21942 7.4855 7.09157C7.40204 6.96373 7.27582 6.85186 7.1211 6.81591C6.96638 6.77995 6.77909 6.78195 6.65084 6.87583C6.03808 7.33328 5.42328 7.79072 4.81051 8.25016C4.72094 8.31608 4.6334 8.382 4.54383 8.44792C4.41151 8.5458 4.30972 8.64168 4.2629 8.80549C4.22218 8.94931 4.2405 9.13908 4.32397 9.26692C4.40744 9.39477 4.53365 9.50663 4.68837 9.54259C4.84309 9.57854 5.03038 9.57655 5.15863 9.48266Z" fill="#AAAAAA"/>
<path id="Vector_9" d="M4.25487 6.15658C5.09767 6.59005 5.93844 7.02153 6.78124 7.455C6.90135 7.51693 7.02146 7.57885 7.14157 7.63878C7.42454 7.7846 7.81744 7.71868 7.97623 7.42304C8.12484 7.14738 8.0597 6.75785 7.75637 6.60404C6.91357 6.17057 6.0728 5.73909 5.22999 5.30562C5.10989 5.24369 4.98978 5.18177 4.86967 5.12184C4.5867 4.97602 4.19379 5.04194 4.035 5.33758C3.88639 5.61324 3.95154 6.00277 4.25487 6.15658Z" fill="#AAAAAA"/>
</g>
<defs>
<clipPath id="clip0_3264_138147">
<rect width="23" height="23" fill="white"/>
</clipPath>
</defs>
</svg>
