<svg width="24" height="24" viewBox="0 0 24 24" fill="none" xmlns="http://www.w3.org/2000/svg">
<g id="Frame" clip-path="url(#clip0_3264_138547)">
<path id="Vector" d="M20.6977 11.5165C18.8847 12.0172 17.0545 12.358 15.1919 12.4943C13.1884 12.6392 11.1487 12.6371 9.15478 12.3644C8.53964 12.2813 7.76071 12.1237 7.09225 11.9128C6.80658 11.8233 6.52281 11.7189 6.24667 11.5975C6.21429 11.5826 6.02384 11.4931 6.15716 11.5591C6.09812 11.5314 6.03908 11.5016 5.98004 11.4718C5.86196 11.41 5.74579 11.3461 5.62962 11.2758C5.41823 11.148 5.21826 11.0031 5.0221 10.8476C4.90593 10.756 5.06209 10.8881 4.99734 10.8263C4.95354 10.7837 4.90783 10.7454 4.86403 10.7028C4.78404 10.6261 4.70596 10.5451 4.63168 10.4599C4.56312 10.3832 4.49837 10.3023 4.43552 10.2192C4.40505 10.1787 4.37649 10.134 4.34601 10.0956C4.466 10.2426 4.35363 10.1041 4.32316 10.0573C4.2127 9.88046 4.11367 9.69512 4.02797 9.50127C4.01083 9.46079 3.99369 9.42032 3.97655 9.37984C3.96512 9.35428 3.9575 9.32871 3.94608 9.30315C3.9118 9.22859 3.9994 9.46292 3.96322 9.34789C3.93084 9.24776 3.89466 9.14977 3.86609 9.04751C3.80896 8.84939 3.76135 8.64702 3.72516 8.44251C3.70612 8.34238 3.69279 8.24013 3.67755 8.13787C3.65089 7.96745 3.68898 8.26782 3.67564 8.1187C3.66993 8.05479 3.66231 7.99088 3.6566 7.9291C3.63756 7.71181 3.62613 7.49239 3.62042 7.2751C3.60899 6.82774 3.61661 6.37824 3.6566 5.93301C3.66041 5.88614 3.66612 5.84141 3.66993 5.79454C3.67184 5.76685 3.67755 5.73702 3.67945 5.70933C3.68517 5.62198 3.6547 5.88401 3.67374 5.75832C3.69088 5.65181 3.70421 5.54316 3.72326 5.43665C3.75944 5.23214 3.80515 5.02976 3.86228 4.82951C3.89085 4.73365 3.92322 4.63991 3.9537 4.54405C4.00512 4.38641 3.90418 4.65696 3.95941 4.52701C3.98226 4.47162 4.00512 4.4141 4.02987 4.35871C4.11177 4.17551 4.20318 3.99869 4.30793 3.8304C4.3384 3.78353 4.36887 3.73667 4.39934 3.6898C4.33459 3.79205 4.35744 3.74732 4.40696 3.68128C4.47552 3.58968 4.54789 3.5002 4.62216 3.41286C4.69263 3.33191 4.765 3.25522 4.84117 3.18279C4.87926 3.14444 4.91926 3.10823 4.95925 3.07201C4.9821 3.05071 5.00496 3.03154 5.02781 3.01023C4.96687 3.06562 4.95735 3.06775 5.02591 3.01449C5.21064 2.8675 5.39918 2.73116 5.59915 2.60761C5.7058 2.54157 5.81626 2.47979 5.92672 2.42014C5.99147 2.38605 6.05622 2.3541 6.12097 2.32214C6.14573 2.30936 6.22191 2.27741 6.10574 2.32854C6.14763 2.30936 6.18763 2.29019 6.22953 2.27315C6.818 2.01325 7.43314 1.83431 8.05209 1.69584C8.87482 1.51476 9.60232 1.42529 10.4631 1.36138C11.5011 1.28469 12.5409 1.26764 13.5807 1.29108C15.5195 1.33368 17.4392 1.55524 19.3379 1.99621C19.7817 2.09846 20.2235 2.2135 20.6634 2.3328C21.3776 2.52878 21.6823 1.29534 20.9681 1.09935C19.0237 0.566775 17.043 0.213144 15.0434 0.0768048C12.9618 -0.0637952 10.8497 -0.0424922 8.7815 0.272793C6.71326 0.588078 4.02987 1.38055 3.01289 3.77714C2.63581 4.66548 2.49678 5.63051 2.47393 6.60832C2.45108 7.58612 2.5044 8.52559 2.77103 9.42245C3.07193 10.4322 3.62803 11.2673 4.38601 11.9042C5.33824 12.7052 6.53043 13.1249 7.68453 13.3848C9.59851 13.8173 11.5792 13.8876 13.5255 13.8471C15.5823 13.8045 17.6315 13.5638 19.6464 13.093C20.0997 12.9864 20.5511 12.8714 20.9986 12.7478C21.7128 12.5519 21.41 11.3184 20.6939 11.5144L20.6977 11.5165Z" fill="#AAAAAA"/>
<path id="Vector_2" d="M10.4709 9.06223C10.2462 9.06223 10.0234 9.04945 9.80057 9.02601C9.74534 9.01962 9.69201 9.01323 9.63679 9.00684C9.58917 9.00045 9.64059 9.00897 9.56251 8.99406C9.45586 8.97489 9.35112 8.95358 9.24637 8.92802C9.04259 8.87902 8.84072 8.81937 8.64075 8.74694C8.42364 8.66812 8.33223 8.62552 8.16464 8.53604C7.99705 8.44657 7.82564 8.33793 7.66757 8.21863C7.6371 8.1952 7.60663 8.17176 7.57616 8.14833C7.57235 8.1462 7.43713 8.0269 7.51712 8.09933C7.45428 8.04181 7.39333 7.98216 7.33429 7.92039C7.26954 7.85222 7.2086 7.78192 7.14956 7.70736C7.12099 7.67114 7.09243 7.63279 7.06386 7.59658C7.12861 7.68392 7.05434 7.58167 7.04291 7.56249C6.94007 7.3942 6.85056 7.21952 6.77629 7.03418C6.6525 6.71889 6.23923 6.64433 5.99546 6.80411C5.70408 6.9937 5.66599 7.36225 5.78978 7.67753C6.55918 9.63102 8.72265 10.3276 10.4728 10.3383C11.208 10.3425 11.2099 9.06436 10.4728 9.0601L10.4709 9.06223Z" fill="#AAAAAA"/>
<path id="Vector_3" d="M16.3747 6.9321C16.3843 8.98997 17.0718 11.5122 18.8334 12.5178C19.578 12.9417 20.4465 13.0226 21.2273 12.669C22.0595 12.2919 22.7052 11.5549 23.1489 10.6921C24.1983 8.65551 24.2554 5.9692 23.4384 3.82825C22.7699 2.07927 21.2235 0.509233 19.4104 1.08868C17.2527 1.77889 16.3862 4.68463 16.3747 6.9321C16.3709 7.75439 17.5136 7.75653 17.5174 6.9321C17.5212 5.99902 17.6793 5.01056 18.024 4.20105C18.1878 3.81546 18.4068 3.42349 18.6125 3.16359C18.7267 3.01873 18.8505 2.88239 18.9819 2.75883C18.9915 2.74818 19.0657 2.68214 18.9972 2.74179C19.0257 2.71623 19.0562 2.69279 19.0867 2.66936C19.161 2.61184 19.2371 2.55645 19.3171 2.50746C19.3552 2.48402 19.3952 2.46059 19.4352 2.43716C19.4581 2.42438 19.5647 2.36899 19.4676 2.41585C19.5323 2.38603 19.599 2.36047 19.6656 2.33703C19.7494 2.30721 19.8332 2.29017 19.9189 2.26673C19.9399 2.26034 20.0313 2.24756 19.9227 2.26247C19.9742 2.25608 20.0275 2.24969 20.0789 2.24756C20.1494 2.2433 20.2198 2.2433 20.2903 2.24756C20.3341 2.24969 20.3779 2.25395 20.4217 2.25821C20.5207 2.26886 20.2922 2.222 20.4503 2.2646C20.6083 2.30721 20.755 2.34555 20.9016 2.41372C20.8045 2.36686 20.9112 2.42012 20.934 2.43503C20.974 2.45846 21.014 2.47976 21.0521 2.50533C21.1149 2.5458 21.1759 2.58628 21.2368 2.63315C21.2749 2.66084 21.313 2.69066 21.3492 2.72262C21.433 2.79292 21.2521 2.62675 21.3873 2.7567C21.4596 2.827 21.5301 2.8973 21.5968 2.97186C21.652 3.03364 21.7053 3.09755 21.7567 3.16146C21.831 3.25732 21.8615 3.2978 21.8939 3.3468C22.0119 3.52574 22.1167 3.71321 22.2119 3.9092C23.008 5.53036 23.0575 7.69049 22.4347 9.43733C22.3186 9.7654 22.1072 10.1893 21.8939 10.5153C21.8424 10.592 21.711 10.7645 21.5987 10.8902C21.5453 10.9498 21.4882 11.0095 21.4311 11.0649C21.4425 11.0542 21.2997 11.1863 21.3587 11.1352C21.3911 11.1054 21.2787 11.1991 21.2616 11.214C20.9473 11.4547 20.8255 11.4973 20.4541 11.5996C20.3474 11.6294 20.4255 11.6081 20.4503 11.6039C20.4065 11.6102 20.3627 11.6145 20.3189 11.6166C20.2389 11.6209 20.1608 11.623 20.0808 11.6166C20.0522 11.6166 19.8542 11.5847 19.9723 11.6081C19.877 11.5889 19.7856 11.5655 19.6923 11.5357C19.4276 11.4483 19.1076 11.2332 18.9 11.0223C18.5725 10.6921 18.3935 10.4215 18.1764 9.98482C17.7231 9.07518 17.5269 7.99725 17.5212 6.9321C17.5174 6.1098 16.3747 6.10767 16.3785 6.9321H16.3747Z" fill="#AAAAAA"/>
<path id="Vector_4" d="M18.0068 11.1265C19.3381 10.856 20.3836 9.66724 20.774 8.2442C21.1854 6.73808 20.8426 5.02105 19.8694 3.87921C19.3628 3.28486 18.681 2.86093 17.9554 2.72885C17.6507 2.67346 17.3403 2.81619 17.2527 3.17621C17.1784 3.48084 17.346 3.9069 17.6526 3.96229C18.9305 4.19237 19.7913 5.44924 19.8046 6.89359C19.8104 7.59872 19.6066 8.32302 19.2485 8.84708C18.841 9.44143 18.3458 9.76524 17.7059 9.89519C17.4012 9.95697 17.2298 10.3702 17.306 10.6813C17.3936 11.0392 17.704 11.1904 18.0087 11.1286L18.0068 11.1265Z" fill="#AAAAAA"/>
<path id="Vector_5" d="M9.91856 13.3079C10.4175 15.287 10.9184 17.2682 11.4174 19.2472C11.4897 19.5306 11.5602 19.8139 11.6326 20.0951L12.183 19.2856H7.61226L8.16264 19.7542C7.66177 17.477 7.1628 15.1975 6.66193 12.9202C6.59146 12.5964 6.5191 12.2747 6.44863 11.9509C6.27342 11.1521 5.17074 11.4908 5.34595 12.2918C5.84682 14.5691 6.34579 16.8485 6.84666 19.1258C6.91713 19.4496 6.9895 19.7713 7.05996 20.0951C7.119 20.3656 7.36468 20.5638 7.61035 20.5638H12.1811C12.5505 20.5638 12.8324 20.1547 12.7314 19.7542C12.2325 17.7752 11.7316 15.794 11.2326 13.815C11.1603 13.5316 11.0898 13.2483 11.0174 12.9671C10.8175 12.1768 9.71478 12.5133 9.91475 13.3079H9.91856Z" fill="#AAAAAA"/>
<path id="Vector_6" d="M9.34716 20.5235C9.36049 20.5746 9.37002 20.6279 9.37954 20.6812C9.35288 20.5278 9.37763 20.7003 9.37954 20.728C9.37954 20.7834 9.37763 20.8388 9.37763 20.8942C9.37763 21.0689 9.4062 20.777 9.37383 20.9496C9.35288 21.0646 9.32812 21.1796 9.29384 21.2904C9.29193 21.2989 9.22528 21.4821 9.27098 21.3629C9.24051 21.4395 9.20814 21.512 9.17195 21.5844C8.96817 21.9934 8.69393 22.3023 8.32447 22.526C8.16068 22.6261 7.99119 22.7007 7.7417 22.7348C7.85216 22.7199 7.656 22.7348 7.656 22.7348C7.59506 22.7348 7.53412 22.7348 7.47317 22.7305C7.28654 22.7199 7.56649 22.7582 7.37795 22.7177C7.29416 22.7007 7.21036 22.6751 7.12847 22.6453C7.01991 22.6048 6.96087 22.5771 6.85613 22.509C6.82375 22.4877 6.6295 22.3407 6.72282 22.4216C6.65045 22.3577 6.58189 22.2853 6.51904 22.2107C6.48857 22.1745 6.46 22.1362 6.43144 22.0978C6.52666 22.2214 6.40858 22.0595 6.39144 22.0318C5.98389 21.3479 5.83153 20.5299 5.1783 20.0548C4.78217 19.7651 4.28701 19.6799 3.82233 19.6948C3.5538 19.7033 3.28717 19.7396 3.01864 19.746C2.90057 19.7481 2.78439 19.7481 2.66632 19.746C2.61109 19.7438 2.55776 19.7396 2.50253 19.7353C2.47778 19.7353 2.26067 19.7055 2.4016 19.7268C2.29495 19.7097 2.18639 19.6863 2.08165 19.6522C2.03975 19.6394 1.99785 19.6245 1.95786 19.6075C1.89311 19.584 1.85692 19.5521 1.93881 19.6011C1.85502 19.5521 1.77503 19.4988 1.69504 19.4434C1.81693 19.5287 1.71218 19.4605 1.68552 19.4328C1.64743 19.3902 1.60934 19.3476 1.57125 19.305C1.55031 19.2815 1.47222 19.158 1.55602 19.2901C1.52174 19.2368 1.48936 19.1836 1.45889 19.1282C1.40176 19.0238 1.35224 18.913 1.31034 18.8001C1.36176 18.9343 1.29701 18.7532 1.2932 18.7383C1.26844 18.6616 1.24559 18.5828 1.22464 18.504C1.18465 18.3527 1.15037 18.1994 1.11799 18.046C1.04943 17.7094 0.70282 17.5113 0.415247 17.5986C0.106725 17.6945 -0.05325 18.0481 0.0153106 18.3847C0.236228 19.469 0.679967 20.466 1.67409 20.8452C2.14831 21.0263 2.67965 21.039 3.17481 21.0156C3.47381 21.0007 3.77471 20.956 4.07562 20.973C4.10609 20.973 4.24512 20.9922 4.14799 20.9751C4.20703 20.9858 4.26416 20.9986 4.32129 21.0156C4.367 21.0284 4.4108 21.0476 4.45651 21.0625C4.51936 21.0817 4.42794 21.0476 4.42223 21.0433C4.44699 21.0561 4.47365 21.0689 4.49841 21.0859C4.54031 21.1115 4.5784 21.1413 4.62029 21.169C4.64696 21.186 4.54983 21.0902 4.62791 21.1775C4.66029 21.2137 4.69076 21.2478 4.72313 21.2819C4.73647 21.2968 4.74789 21.316 4.76122 21.3309C4.81264 21.3884 4.70028 21.2329 4.74218 21.3011C4.84121 21.4651 4.92691 21.6334 5.00309 21.8123C5.18592 22.232 5.35732 22.6389 5.62585 23.0011C6.40477 24.0492 7.76265 24.2558 8.82534 23.6678C9.88803 23.0799 10.7812 21.5546 10.4537 20.1763C10.2651 19.3817 9.16243 19.7183 9.35097 20.5171L9.34716 20.5235Z" fill="#AAAAAA"/>
</g>
<defs>
<clipPath id="clip0_3264_138547">
<rect width="24" height="24" fill="white"/>
</clipPath>
</defs>
</svg>
