<svg width="23" height="23" viewBox="0 0 23 23" fill="none" xmlns="http://www.w3.org/2000/svg">
<g id="Frame" clip-path="url(#clip0_3264_138279)">
<path id="Vector" d="M4.91785 18.6405C5.38687 18.1711 5.85589 17.7018 6.32491 17.2325C7.4456 16.111 8.56629 14.9896 9.68697 13.8681C11.0489 12.5052 12.4109 11.1423 13.7729 9.77941C14.9454 8.60606 16.118 7.4327 17.2905 6.25935C17.8632 5.68621 18.4631 5.12887 19.0155 4.53316C19.0245 4.52414 19.0313 4.51737 19.0403 4.50834C19.6559 3.89233 18.6998 2.93334 18.0842 3.55161C17.6152 4.02095 17.1462 4.49029 16.6772 4.95963C15.5565 6.08109 14.4358 7.20254 13.3151 8.324C11.9531 9.6869 10.5912 11.0498 9.22923 12.4127C8.05668 13.586 6.88413 14.7594 5.71158 15.9328C5.13884 16.5059 4.53903 17.0632 3.98658 17.6589C3.97756 17.668 3.9708 17.6747 3.96178 17.6838C3.34619 18.2998 4.30227 19.2588 4.91785 18.6405Z" fill="#AAAAAA"/>
<path id="Vector_2" d="M10.3409 12.3203C10.4491 12.5798 10.5168 12.8505 10.5596 13.1258C10.5371 12.9882 10.5664 13.189 10.5687 13.2251C10.5754 13.2996 10.5822 13.3718 10.5867 13.4462C10.5957 13.6064 10.6002 13.7689 10.6002 13.9291C10.6025 14.5429 10.5574 15.1566 10.5709 15.7681C10.5844 16.3796 10.6611 16.9843 10.9339 17.5327C11.2226 18.1126 11.7615 18.5052 12.3726 18.6925C13.6466 19.0828 14.7966 18.3427 15.4483 17.2754C16.2217 16.0096 16.4246 14.3872 16.2713 12.934C15.9489 9.86976 14.0412 6.82355 11.2203 5.46968C10.2372 4.99808 9.13905 4.70474 8.04542 4.89428C7.10738 5.05675 6.36101 5.70661 6.14228 6.64303C6.01375 7.19135 6.0566 7.74193 6.32267 8.24286C6.56846 8.70092 6.97885 9.03713 7.38473 9.34626C7.59218 9.50421 7.8064 9.65314 8.02062 9.80206C8.12434 9.87427 8.22581 9.94648 8.32954 10.0209C8.38591 10.0616 8.44228 10.1044 8.49865 10.145C8.52346 10.1631 8.54826 10.1811 8.57081 10.1992C8.7264 10.3165 8.51444 10.1541 8.60464 10.2263C8.8414 10.4136 9.0714 10.6121 9.28562 10.8242C9.52689 11.0634 9.72532 11.2981 9.87866 11.5215C10.0861 11.8238 10.2597 12.1465 10.4063 12.4805C10.5529 12.8144 11.0422 12.8934 11.3308 12.7242C11.6758 12.5211 11.7209 12.133 11.5743 11.799C11.0467 10.5986 10.1492 9.68924 9.10748 8.92205C8.90679 8.77312 8.7016 8.63097 8.4964 8.48655C8.40846 8.42337 8.32052 8.36245 8.23258 8.29927C8.18973 8.26768 8.14915 8.23609 8.1063 8.20675C8.00709 8.13455 8.1063 8.20675 8.12209 8.22029C8.09728 8.19999 8.07022 8.17968 8.04542 8.15937C7.88983 8.03075 7.74552 7.89762 7.61022 7.7487C7.5516 7.68326 7.55611 7.66746 7.61022 7.75321C7.58767 7.7171 7.56287 7.68551 7.54032 7.64941C7.51777 7.61331 7.49973 7.5772 7.47944 7.54336C7.40052 7.40346 7.48395 7.59977 7.46591 7.51854C7.45914 7.48018 7.44336 7.4373 7.43209 7.4012C7.40503 7.30869 7.42532 7.31771 7.42532 7.41474C7.42532 7.30869 7.41856 7.20489 7.42307 7.09884C7.42532 6.97699 7.3915 7.20715 7.42758 7.08304C7.44336 7.0334 7.45012 6.97925 7.46365 6.92735C7.47944 6.87319 7.49748 6.81904 7.51326 6.76488C7.56062 6.61596 7.47042 6.82129 7.51326 6.75586C7.5516 6.69945 7.59218 6.63175 7.6215 6.57083C7.6666 6.48057 7.52454 6.66109 7.6012 6.59565C7.63503 6.56631 7.6666 6.5257 7.69816 6.49411C7.72071 6.47154 7.75905 6.45124 7.77709 6.42416C7.73875 6.48283 7.66209 6.50088 7.75454 6.44447C7.82218 6.40159 7.89209 6.36549 7.95973 6.32487C8.09052 6.2459 7.84924 6.35647 7.95522 6.32487C7.9913 6.31359 8.02738 6.2978 8.06571 6.28652C8.14914 6.25944 8.23258 6.23913 8.31826 6.22108C8.36562 6.21205 8.41522 6.20528 8.46258 6.19626C8.36336 6.21656 8.35885 6.20754 8.45356 6.20077C8.54826 6.194 8.64748 6.18949 8.74444 6.18949C8.8414 6.18949 8.94964 6.19626 9.05111 6.20528C9.10071 6.2098 9.14807 6.21656 9.19767 6.22108C9.05562 6.20528 9.17287 6.22108 9.24052 6.2301C9.46826 6.27072 9.6915 6.32713 9.91248 6.39934C10.0297 6.4377 10.1447 6.47831 10.2597 6.52344C10.3003 6.53924 10.4198 6.59114 10.3139 6.54375C10.377 6.57308 10.4401 6.60016 10.5033 6.6295C10.7468 6.74457 10.9858 6.87545 11.2158 7.01986C11.3353 7.09432 11.4548 7.1733 11.5721 7.25679C11.6262 7.29515 11.6803 7.33576 11.7344 7.37412C11.7344 7.37412 11.8224 7.44182 11.775 7.40346C11.7344 7.37187 11.8314 7.44859 11.8404 7.45536C12.0794 7.64941 12.3094 7.85475 12.5259 8.07362C13.4955 9.04841 14.2532 10.2917 14.65 11.6546C14.8597 12.3744 14.9635 13.0875 14.9589 13.8366C14.9544 14.5113 14.8823 15.0664 14.6703 15.7252C14.6365 15.8268 14.5643 16.0299 14.5486 16.0682C14.5283 16.1201 14.4268 16.3277 14.3704 16.4338C14.314 16.5398 14.2464 16.6504 14.1765 16.7519C14.1607 16.7745 14.0683 16.9009 14.1066 16.8512C14.1539 16.7926 14.0931 16.867 14.0863 16.8738C14.0547 16.9099 14.0254 16.946 13.9916 16.9798C13.9172 17.0611 13.836 17.1333 13.7548 17.2077C13.6985 17.2596 13.7819 17.1874 13.7887 17.1852C13.7684 17.201 13.7458 17.2168 13.7255 17.2303C13.6669 17.2664 13.6105 17.3048 13.5519 17.3386C13.5293 17.3499 13.3895 17.4176 13.4752 17.3815C13.5609 17.3454 13.4189 17.3995 13.394 17.4086C13.3467 17.4244 13.2993 17.4334 13.252 17.4469C13.1032 17.4853 13.3241 17.4559 13.2137 17.4559C13.155 17.4559 13.0987 17.4605 13.04 17.4605C13.013 17.4605 12.8596 17.4424 12.9521 17.4559C13.0445 17.4695 12.8799 17.4379 12.8551 17.4311C12.7807 17.4131 12.7108 17.3883 12.6387 17.3657C12.5304 17.3341 12.6792 17.3995 12.5552 17.3273C12.5079 17.3003 12.4583 17.2732 12.4109 17.2438C12.3884 17.2303 12.3658 17.2145 12.3433 17.1987C12.35 17.2032 12.4312 17.2732 12.3771 17.2235C12.3342 17.1829 12.2937 17.1355 12.2486 17.0972C12.1651 17.025 12.2914 17.1807 12.2147 17.0543C12.1877 17.0114 12.1606 16.9686 12.1358 16.9257C12.1245 16.9031 12.0569 16.7655 12.093 16.8444C12.1268 16.9212 12.0637 16.7587 12.0546 16.7294C12.0186 16.6165 11.9915 16.5015 11.9712 16.3864C11.9667 16.3616 11.9441 16.2014 11.9532 16.2803C11.9622 16.3525 11.9441 16.172 11.9419 16.1382C11.8517 14.9942 12.0434 13.8524 11.8539 12.7129C11.8111 12.4557 11.7435 12.2074 11.6442 11.966C11.5044 11.6298 11.1955 11.3884 10.8122 11.4921C10.4942 11.5801 10.1989 11.9863 10.3387 12.3248L10.3409 12.3203Z" fill="#AAAAAA"/>
<path id="Vector_3" d="M8.76036 3.68475C8.76487 3.99614 8.76713 4.30753 8.77164 4.61892C8.77164 4.66405 8.77164 4.70918 8.77164 4.7543C8.77164 4.92805 8.84605 5.10857 8.97007 5.23267C9.08732 5.35001 9.27899 5.43801 9.44811 5.43124C9.61723 5.42447 9.80438 5.3658 9.92615 5.23267C10.0479 5.09954 10.1268 4.93708 10.1246 4.7543C10.1201 4.44291 10.1178 4.13152 10.1133 3.82013C10.1133 3.77501 10.1133 3.72988 10.1133 3.68475C10.1133 3.511 10.0389 3.33048 9.91487 3.20638C9.79762 3.08904 9.60595 3.00104 9.43683 3.00781C9.26771 3.01458 9.08056 3.07325 8.95879 3.20638C8.83703 3.33951 8.75811 3.50197 8.76036 3.68475Z" fill="#AAAAAA"/>
<path id="Vector_4" d="M9.43685 6.39275C9.44135 6.70415 9.44361 7.01554 9.44812 7.32693C9.44812 7.37205 9.44812 7.41718 9.44812 7.46231C9.44812 7.63606 9.52253 7.81657 9.64655 7.94068C9.76381 8.05802 9.95547 8.14602 10.1246 8.13925C10.2937 8.13248 10.4809 8.07381 10.6026 7.94068C10.7244 7.80755 10.8033 7.64508 10.8011 7.46231C10.7966 7.15092 10.7943 6.83953 10.7898 6.52814C10.7898 6.48301 10.7898 6.43788 10.7898 6.39275C10.7898 6.21901 10.7154 6.03849 10.5914 5.91439C10.4741 5.79705 10.2824 5.70905 10.1133 5.71582C9.9442 5.72259 9.75704 5.78126 9.63528 5.91439C9.51351 6.04752 9.43459 6.20998 9.43685 6.39275Z" fill="#AAAAAA"/>
<path id="Vector_5" d="M12.1425 18.803C12.147 19.1144 12.1493 19.4258 12.1538 19.7372C12.1538 19.7823 12.1538 19.8275 12.1538 19.8726C12.1538 20.0463 12.2282 20.2269 12.3522 20.351C12.4695 20.4683 12.6611 20.5563 12.8302 20.5495C12.9994 20.5428 13.1865 20.4841 13.3083 20.351C13.4301 20.2178 13.509 20.0554 13.5067 19.8726C13.5022 19.5612 13.5 19.2498 13.4954 18.9384C13.4954 18.8933 13.4954 18.8482 13.4954 18.803C13.4954 18.6293 13.421 18.4488 13.297 18.3247C13.1798 18.2073 12.9881 18.1193 12.819 18.1261C12.6499 18.1329 12.4627 18.1915 12.3409 18.3247C12.2192 18.4578 12.1402 18.6203 12.1425 18.803Z" fill="#AAAAAA"/>
<path id="Vector_6" d="M10.661 16.4586C10.3702 16.5714 10.0815 16.6843 9.79065 16.7971L9.66664 16.8445C9.57869 16.8648 9.50203 16.9054 9.43664 16.9663C9.36222 17.0137 9.30585 17.0769 9.26301 17.1559C9.2134 17.2326 9.18634 17.3183 9.18183 17.4086C9.16154 17.4988 9.16605 17.5891 9.19311 17.6794C9.24497 17.8441 9.34644 18.002 9.50428 18.0833C9.66213 18.1645 9.8583 18.2164 10.0252 18.151C10.316 18.0381 10.6047 17.9253 10.8956 17.8125L11.0196 17.7651C11.1075 17.7448 11.1842 17.7042 11.2496 17.6433C11.324 17.5959 11.3804 17.5327 11.4232 17.4537C11.4728 17.377 11.4999 17.2912 11.5044 17.201C11.5247 17.1107 11.5202 17.0205 11.4931 16.9302C11.4412 16.7655 11.3398 16.6075 11.1819 16.5263C11.0241 16.4451 10.8279 16.3932 10.661 16.4586Z" fill="#AAAAAA"/>
<path id="Vector_7" d="M12.465 14.6536C12.1741 14.7664 11.8855 14.8792 11.5946 14.992L11.4706 15.0394C11.3826 15.0597 11.306 15.1003 11.2406 15.1613C11.1661 15.2086 11.1098 15.2718 11.0669 15.3508C11.0173 15.4275 10.9903 15.5133 10.9858 15.6035C10.9655 15.6938 10.97 15.784 10.997 15.8743C11.0489 16.039 11.1504 16.197 11.3082 16.2782C11.4661 16.3594 11.6622 16.4113 11.8291 16.3459C12.12 16.2331 12.4086 16.1203 12.6995 16.0074L12.8235 15.96C12.9114 15.9397 12.9881 15.8991 13.0535 15.8382C13.1279 15.7908 13.1843 15.7276 13.2271 15.6487C13.2767 15.5719 13.3038 15.4862 13.3083 15.3959C13.3286 15.3057 13.3241 15.2154 13.297 15.1252C13.2452 14.9604 13.1437 14.8025 12.9859 14.7213C12.828 14.64 12.6318 14.5881 12.465 14.6536Z" fill="#AAAAAA"/>
<path id="Vector_8" d="M12.4964 4.71602C12.2776 4.93716 12.0567 5.15603 11.8379 5.37716C11.8064 5.40875 11.7748 5.44034 11.7432 5.47193C11.6778 5.53286 11.6305 5.60506 11.6034 5.69081C11.5606 5.77204 11.5426 5.85779 11.5448 5.95256C11.5403 6.04507 11.5606 6.13307 11.6034 6.21431C11.6305 6.2978 11.6778 6.37 11.7432 6.43318C11.8718 6.55052 12.0409 6.63852 12.2213 6.63175C12.4017 6.62498 12.5708 6.56406 12.6993 6.43318C12.918 6.21205 13.139 5.99317 13.3577 5.77204C13.3893 5.74045 13.4209 5.70886 13.4525 5.67727C13.5178 5.61635 13.5652 5.54414 13.5923 5.4584C13.6351 5.37716 13.6531 5.29142 13.6509 5.19665C13.6554 5.10413 13.6351 5.01613 13.5923 4.9349C13.5652 4.85141 13.5178 4.7792 13.4525 4.71602C13.3239 4.59869 13.1548 4.51069 12.9744 4.51746C12.794 4.52422 12.6249 4.58515 12.4964 4.71602Z" fill="#AAAAAA"/>
<path id="Vector_9" d="M16.7674 9.97124C16.4675 10.0502 16.1654 10.1315 15.8654 10.2104L15.7369 10.2443C15.5723 10.2871 15.4167 10.409 15.3333 10.5557C15.2499 10.7023 15.2115 10.9144 15.2656 11.0769C15.3198 11.2394 15.419 11.3996 15.5768 11.4808C15.7347 11.562 15.9173 11.5959 16.0977 11.5485C16.3976 11.4695 16.6998 11.3883 16.9997 11.3093L17.1282 11.2755C17.2928 11.2326 17.4484 11.1108 17.5318 10.9641C17.6153 10.8174 17.6536 10.6053 17.5995 10.4428C17.5454 10.2804 17.4461 10.1202 17.2883 10.0389C17.1304 9.95771 16.9478 9.92386 16.7674 9.97124Z" fill="#AAAAAA"/>
<path id="Vector_10" d="M14.9635 11.7764C14.6636 11.8554 14.3614 11.9366 14.0615 12.0156L13.933 12.0495C13.7684 12.0923 13.6128 12.2142 13.5294 12.3608C13.4459 12.5075 13.4076 12.7196 13.4617 12.8821C13.5158 13.0445 13.6151 13.2048 13.7729 13.286C13.9307 13.3672 14.1134 13.4011 14.2938 13.3537C14.5937 13.2747 14.8958 13.1935 15.1957 13.1145L15.3243 13.0806C15.4889 13.0378 15.6445 12.9159 15.7279 12.7693C15.8113 12.6226 15.8497 12.4105 15.7955 12.248C15.7414 12.0856 15.6422 11.9253 15.4844 11.8441C15.3265 11.7629 15.1439 11.729 14.9635 11.7764Z" fill="#AAAAAA"/>
<path id="Vector_11" d="M7.7613 9.68026C7.54257 9.90139 7.32159 10.1203 7.10287 10.3414C7.0713 10.373 7.03973 10.4046 7.00816 10.4362C6.94277 10.4971 6.89542 10.5693 6.86836 10.655C6.82551 10.7363 6.80747 10.822 6.80973 10.9168C6.80522 11.0093 6.82551 11.0973 6.86836 11.1785C6.89542 11.262 6.94277 11.3342 7.00816 11.3974C7.13669 11.5148 7.30581 11.6028 7.4862 11.596C7.66659 11.5892 7.83571 11.5283 7.96424 11.3974C8.18296 11.1763 8.40395 10.9574 8.62267 10.7363C8.65424 10.7047 8.68581 10.6731 8.71738 10.6415C8.78277 10.5806 8.83012 10.5084 8.85718 10.4226C8.90002 10.3414 8.91806 10.2557 8.91581 10.1609C8.92032 10.0684 8.90002 9.98036 8.85718 9.89913C8.83012 9.81564 8.78277 9.74344 8.71738 9.68026C8.58885 9.56292 8.41973 9.47492 8.23934 9.48169C8.05894 9.48846 7.88983 9.54938 7.7613 9.68026Z" fill="#AAAAAA"/>
<path id="Vector_12" d="M6.36331 7.08979C6.05439 7.1259 5.74547 7.162 5.4343 7.1981C5.39145 7.20262 5.34635 7.20939 5.30351 7.2139C5.21106 7.20939 5.12312 7.22969 5.04194 7.27257C4.95851 7.29964 4.88635 7.34703 4.82322 7.41247C4.70596 7.5298 4.61802 7.7216 4.62479 7.89083C4.63155 8.06007 4.69018 8.24735 4.82322 8.3692C4.94724 8.48202 5.12763 8.58808 5.30126 8.56777C5.61018 8.53167 5.9191 8.49556 6.23028 8.45946C6.27312 8.45495 6.31822 8.44818 6.36106 8.44366C6.45351 8.44818 6.54145 8.42787 6.62263 8.385C6.70606 8.35792 6.77822 8.31053 6.84135 8.2451C6.95861 8.12776 7.04655 7.93596 7.03979 7.76673C7.03302 7.5975 6.97439 7.41021 6.84135 7.28836C6.71733 7.17554 6.53694 7.06949 6.36331 7.08979Z" fill="#AAAAAA"/>
<path id="Vector_13" d="M17.8135 13.5793C17.5068 13.5296 17.1979 13.4777 16.8912 13.4281L16.7604 13.4078C16.6702 13.3784 16.58 13.3762 16.4898 13.3965C16.3996 13.401 16.3162 13.4281 16.2373 13.4777C16.0975 13.559 15.9622 13.7214 15.9261 13.8816C15.8878 14.0554 15.8945 14.2494 15.9938 14.4029C16.084 14.5428 16.2283 14.6872 16.3974 14.7143C16.704 14.7639 17.013 14.8158 17.3196 14.8655L17.4504 14.8858C17.5406 14.9151 17.6308 14.9173 17.721 14.897C17.8112 14.8925 17.8946 14.8655 17.9736 14.8158C18.1134 14.7346 18.2487 14.5721 18.2847 14.4119C18.3231 14.2382 18.3163 14.0441 18.2171 13.8907C18.1269 13.7508 17.9826 13.6064 17.8135 13.5793Z" fill="#AAAAAA"/>
<path id="Vector_14" d="M16.7673 17.4651C16.508 17.2936 16.2487 17.1221 15.9894 16.9529L15.8766 16.8784C15.8 16.8288 15.7143 16.8017 15.6241 16.7972C15.5339 16.7769 15.4437 16.7814 15.3535 16.8084C15.2655 16.8288 15.1889 16.8694 15.1235 16.9303C15.0491 16.9777 14.9927 17.0409 14.9499 17.1198C14.8664 17.2778 14.8258 17.4673 14.8822 17.6411L14.9499 17.8035C15.0107 17.9051 15.0919 17.9863 15.1934 18.0472C15.4527 18.2187 15.712 18.3902 15.9713 18.5595L16.0841 18.6339C16.1607 18.6836 16.2464 18.7106 16.3366 18.7151C16.4268 18.7355 16.517 18.7309 16.6072 18.7039C16.6952 18.6836 16.7718 18.6429 16.8372 18.582C16.9116 18.5346 16.968 18.4715 17.0108 18.3925C17.0943 18.2345 17.1349 18.045 17.0785 17.8712L17.0108 17.7088C16.95 17.6072 16.8688 17.526 16.7673 17.4651Z" fill="#AAAAAA"/>
<path id="Vector_15" d="M21.6468 11.4995C21.64 13.6363 20.9951 15.6671 19.7369 17.4339C18.6027 19.0292 16.8664 20.3538 15.0241 21.0262C10.9653 22.5087 6.41267 21.2654 3.65042 17.9416C0.88816 14.6179 0.617571 9.88609 2.81385 6.24869C3.35953 5.34611 3.97512 4.61051 4.78012 3.8907C5.52198 3.22956 6.40816 2.65642 7.36875 2.21867C9.22228 1.37702 11.4839 1.13332 13.4886 1.54174C17.6488 2.39016 20.8621 5.75679 21.5318 9.96281C21.5994 10.3893 21.6423 10.9895 21.6423 11.5017C21.6445 12.3727 22.9975 12.375 22.9952 11.5017C22.9862 9.13469 22.2601 6.78122 20.8801 4.85421C19.5069 2.93848 17.597 1.47856 15.3804 0.670747C10.8999 -0.960667 5.6663 0.47218 2.64473 4.15922C1.1362 6.00274 0.222963 8.25016 0.0335514 10.6307C-0.153605 12.991 0.421395 15.4099 1.64581 17.4362C2.87022 19.4625 4.60424 21.0059 6.68777 21.9513C8.9314 22.9713 11.4343 23.2578 13.8516 22.7659C18.4403 21.8295 22.1474 17.9619 22.8532 13.3227C22.9456 12.7179 22.9997 12.111 23.002 11.4995C23.0042 10.6285 21.6513 10.6262 21.649 11.4995H21.6468Z" fill="#AAAAAA"/>
</g>
<defs>
<clipPath id="clip0_3264_138279">
<rect width="23" height="23" fill="white"/>
</clipPath>
</defs>
</svg>
