<svg width="24" height="22" viewBox="0 0 24 22" fill="none" xmlns="http://www.w3.org/2000/svg">
<g id="Frame" clip-path="url(#clip0_3264_138465)">
<path id="Vector" d="M13.9696 1.09396C13.9481 0.49965 13.3481 0.153271 12.7774 0.0548258C12.2066 -0.0436189 11.4815 -0.0235654 10.9733 0.295468C10.7114 0.461366 10.5081 0.683778 10.4651 0.982758C10.4221 1.28174 10.5413 1.55337 10.77 1.74662C11.2098 2.1167 11.8763 2.23337 12.4509 2.17686C13.1135 2.11123 13.9423 1.82865 13.9696 1.09396C13.9794 0.807746 13.6921 0.534288 13.3833 0.547049C13.0569 0.559811 12.8086 0.787692 12.7969 1.09396C12.7949 1.17053 12.8125 0.99552 12.8106 1.00646C12.8106 1.0174 12.8047 1.03198 12.7989 1.04292C12.7949 1.05021 12.8653 0.895252 12.8321 0.966351C12.8282 0.97182 12.8125 1.00099 12.8086 1.00099C12.7969 1.00463 12.922 0.886137 12.8555 0.940828C12.8458 0.94812 12.8379 0.957236 12.8301 0.964528C12.8145 0.980935 12.7617 1.0174 12.8399 0.960882C12.9239 0.900721 12.8536 0.949944 12.8321 0.960882C12.7989 0.980935 12.7637 0.99552 12.7285 1.01375C12.6835 1.03563 12.664 1.01375 12.7813 0.993697C12.7617 0.997343 12.7383 1.0101 12.7187 1.01557C12.6288 1.04474 12.5369 1.06297 12.4431 1.0812C12.3376 1.10308 12.4783 1.07026 12.4861 1.07756C12.4822 1.07391 12.406 1.08485 12.4079 1.08485C12.3552 1.0885 12.3004 1.09214 12.2477 1.09214C12.2008 1.09214 12.1519 1.09214 12.105 1.09214C12.0815 1.09214 11.9408 1.06662 11.9271 1.07938C11.9349 1.07391 12.0757 1.1049 11.9701 1.08303C11.9467 1.07756 11.9213 1.07391 11.8978 1.07026C11.8568 1.06297 11.8177 1.05203 11.7766 1.0411C11.7336 1.03016 11.6906 1.01557 11.6496 1.00099C11.5792 0.979112 11.7629 1.0575 11.7023 1.02104C11.6808 1.00828 11.6574 1.00099 11.6359 0.990051C11.6183 0.980935 11.546 0.951767 11.5401 0.933536C11.5382 0.926244 11.6593 1.0338 11.5968 0.973643C11.589 0.966351 11.5792 0.957236 11.5694 0.949944C11.5499 0.935359 11.5128 0.886137 11.5773 0.964528C11.6418 1.04292 11.6027 0.997343 11.5909 0.977289C11.5773 0.955413 11.5558 0.908013 11.5968 0.997343C11.6418 1.09396 11.6105 1.03016 11.6066 1.00828C11.6066 0.999166 11.6242 1.17418 11.6203 1.09579C11.6203 1.05203 11.6496 1.00281 11.6066 1.18329C11.6085 1.17418 11.6124 1.16506 11.6144 1.15595C11.6339 1.09943 11.5401 1.27992 11.5792 1.23252C11.587 1.22158 11.5968 1.20882 11.6027 1.19788C11.63 1.14501 11.503 1.2945 11.5538 1.25804C11.5636 1.25075 11.5714 1.24163 11.5792 1.23434C11.6261 1.19241 11.6613 1.1997 11.5401 1.25804C11.5733 1.24163 11.6027 1.21976 11.6359 1.20152C11.6574 1.19059 11.7747 1.14319 11.6769 1.17965C11.5792 1.21611 11.7258 1.16506 11.7453 1.15959C11.7962 1.14501 11.847 1.13225 11.8998 1.12131C11.9271 1.11584 12.0639 1.09761 11.9701 1.10673C11.8685 1.11766 12.0463 1.10126 12.0678 1.09943C12.1832 1.09214 12.2985 1.09396 12.4118 1.10308C12.4314 1.10308 12.4509 1.10673 12.4705 1.10855C12.5467 1.11402 12.3395 1.08667 12.447 1.10855C12.5057 1.11949 12.5663 1.13043 12.6229 1.14501C12.6659 1.15595 12.7089 1.17053 12.7519 1.18329C12.8419 1.21064 12.7089 1.16689 12.7011 1.16142C12.7187 1.17418 12.75 1.18329 12.7695 1.19241C12.8067 1.21064 12.8399 1.23616 12.879 1.25439C12.7539 1.19423 12.7871 1.18329 12.8223 1.21429C12.836 1.22705 12.8516 1.24163 12.8653 1.25439C12.9142 1.2945 12.7891 1.14136 12.8164 1.19423C12.8164 1.19606 12.8458 1.23799 12.8438 1.23799C12.8399 1.23799 12.7852 1.09579 12.8067 1.16142C12.834 1.23981 12.793 1.00463 12.7969 1.09214C12.8067 1.37836 13.0588 1.65182 13.3833 1.63906C13.7077 1.6263 13.9814 1.39841 13.9696 1.09214V1.09396Z" fill="#AAAAAA"/>
<path id="Vector_2" d="M19.3521 16.9362H4.69293L5.27929 17.4831V13.2901L4.69293 13.837H19.3521L18.7657 13.2901V17.4831C18.7657 18.1868 19.9385 18.1886 19.9385 17.4831V13.2901C19.9385 12.9947 19.6707 12.7432 19.3521 12.7432H4.69293C4.37629 12.7432 4.10656 12.9929 4.10656 13.2901V17.4831C4.10656 17.7784 4.37433 18.03 4.69293 18.03H19.3521C20.1066 18.03 20.1085 16.9362 19.3521 16.9362Z" fill="#AAAAAA"/>
<path id="Vector_3" d="M16.0295 14.7485H8.01582L8.60219 15.2954V13.2901L8.01582 13.837H16.0295L15.4431 13.2901V15.2954C15.4431 15.9991 16.6159 16.001 16.6159 15.2954V13.2901C16.6159 12.9947 16.3481 12.7432 16.0295 12.7432H8.01582C7.69918 12.7432 7.42945 12.9929 7.42945 13.2901V15.2954C7.42945 15.5908 7.69723 15.8423 8.01582 15.8423H16.0295C16.784 15.8423 16.7859 14.7485 16.0295 14.7485Z" fill="#AAAAAA"/>
<path id="Vector_4" d="M13.5708 10.7925C14.5441 9.85182 15.0445 8.57386 15.0523 7.27403C15.0523 6.98781 14.7806 6.71435 14.466 6.72711C14.1513 6.73988 13.8816 6.96776 13.8796 7.27403C13.8796 7.42352 13.8718 7.57301 13.8581 7.7225C13.8542 7.75714 13.8503 7.79178 13.8464 7.82641C13.8386 7.91574 13.8601 7.74802 13.8464 7.83553C13.8346 7.90298 13.8229 7.97043 13.8092 8.03789C13.7526 8.31681 13.6685 8.59027 13.5571 8.85279C13.5532 8.86191 13.5121 8.9567 13.5376 8.90019C13.563 8.84368 13.52 8.93665 13.5141 8.94577C13.4848 9.0041 13.4555 9.06244 13.4242 9.12078C13.3577 9.2411 13.2854 9.3596 13.2072 9.47263C13.1701 9.5255 13.133 9.57836 13.0939 9.62941C13.0743 9.65493 13.0548 9.68046 13.0352 9.70598C13 9.74791 13.004 9.74791 13.0352 9.70598C12.9414 9.81536 12.8437 9.91927 12.7401 10.0195C12.527 10.2255 12.5036 10.5902 12.7401 10.7925C12.9766 10.9949 13.3421 11.0131 13.5688 10.7925H13.5708Z" fill="#AAAAAA"/>
<path id="Vector_5" d="M18.7659 16.7538C18.6799 18.3727 18.9066 20.6296 20.8534 21.233C21.9225 21.563 23.0288 21.0307 23.6464 20.2121C24.1488 19.5449 24.1253 18.6443 23.5077 18.05C22.89 17.4557 21.8639 17.3609 21.2834 18.0099C21.0801 18.2359 21.0449 18.5604 21.2834 18.7829C21.4925 18.9779 21.9088 19.0107 22.1121 18.7829C22.1356 18.7555 22.1962 18.6716 22.2392 18.6625C22.1805 18.6753 22.1434 18.7136 22.204 18.6917C22.2196 18.6862 22.2743 18.6425 22.2919 18.6479C22.3056 18.6516 22.1375 18.6808 22.2431 18.6716C22.2567 18.6716 22.29 18.6625 22.3056 18.6571C22.4072 18.6188 22.1668 18.6498 22.2763 18.6607C22.3076 18.6644 22.3427 18.6607 22.374 18.6607C22.4678 18.6571 22.3232 18.6625 22.3154 18.6516C22.3212 18.6589 22.3818 18.6644 22.3955 18.668C22.4229 18.6735 22.4483 18.6844 22.4757 18.6899C22.5773 18.7118 22.4229 18.6789 22.4287 18.6698C22.4327 18.6625 22.5695 18.7409 22.5792 18.7464C22.5871 18.75 22.6301 18.7719 22.6359 18.7829C22.5636 18.73 22.5519 18.7209 22.5988 18.7573L22.6242 18.7792C22.6555 18.8102 22.7298 18.8576 22.7454 18.8995C22.7083 18.7993 22.6985 18.8339 22.7278 18.8831C22.7415 18.9068 22.7591 18.9323 22.7747 18.956C22.7825 18.967 22.8079 19.0071 22.8079 19.0162C22.8118 18.9396 22.7767 18.9251 22.7962 18.998C22.804 19.0253 22.8138 19.0545 22.8216 19.0818L22.8294 19.1165C22.8412 19.1766 22.8392 19.162 22.8255 19.0764C22.8216 19.0782 22.8294 19.2514 22.8294 19.2605C22.8294 19.3024 22.8001 19.3389 22.8353 19.2295C22.8275 19.255 22.8236 19.2824 22.8177 19.3079C22.8079 19.348 22.7923 19.3863 22.7786 19.4264C22.7688 19.4574 22.7297 19.5048 22.7845 19.4173C22.7376 19.4938 22.6965 19.5704 22.6437 19.6433C22.5871 19.7217 22.7356 19.5504 22.6164 19.678C22.591 19.7053 22.5636 19.7345 22.5362 19.7618C22.462 19.8348 22.3818 19.9077 22.2978 19.9715C22.2802 19.9842 22.1688 20.0553 22.116 20.0845C22.0711 20.11 22.0261 20.1319 21.9792 20.1538C21.8346 20.2212 22.0496 20.1447 21.8991 20.183C21.8072 20.2067 21.7212 20.2322 21.6274 20.2449C21.7466 20.2285 21.5238 20.2449 21.4886 20.2449C21.4456 20.2449 21.4007 20.2413 21.3577 20.2376C21.3831 20.2395 21.4671 20.2595 21.3577 20.2358C21.2638 20.2139 21.1739 20.1921 21.084 20.1611C20.9941 20.1301 21.2013 20.2212 21.0586 20.1483C21.0293 20.1337 20.998 20.1191 20.9667 20.1027C20.8925 20.0626 20.8182 20.0189 20.7498 19.9697C20.8338 20.0298 20.7615 19.977 20.7478 19.9642C20.7107 19.9296 20.6716 19.8986 20.6345 19.8657C20.5973 19.8329 20.439 19.647 20.5406 19.7764C20.4644 19.678 20.396 19.5777 20.3354 19.4701C20.3041 19.4155 20.2768 19.3589 20.2494 19.3024C20.3041 19.4155 20.2592 19.3225 20.2475 19.2933C20.2279 19.2441 20.2084 19.1949 20.1908 19.1456C20.1302 18.9761 20.0813 18.8029 20.0422 18.6279C19.9953 18.4182 19.9777 18.2997 19.9621 18.1575C19.9093 17.6945 19.9054 17.2278 19.9308 16.7611C19.9465 16.4749 19.6494 16.2014 19.3445 16.2142C19.0141 16.2288 18.7737 16.4548 18.7581 16.7611L18.7659 16.7538Z" fill="#AAAAAA"/>
<path id="Vector_6" d="M4.05815 16.7539C4.07965 17.1714 4.07965 17.5888 4.04056 18.0063C4.03274 18.092 4.02297 18.1777 4.01124 18.2615C3.99756 18.3673 4.03469 18.1357 4.00342 18.3071C3.99756 18.3417 3.99169 18.3782 3.98583 18.4128C3.95456 18.5806 3.91742 18.7465 3.87051 18.9105C3.82751 19.0582 3.77474 19.2041 3.71415 19.3463C3.76301 19.2296 3.69069 19.39 3.67115 19.4265C3.63596 19.4903 3.59883 19.5541 3.55778 19.6161C3.5226 19.6689 3.48546 19.7182 3.44637 19.7692C3.53433 19.6562 3.42878 19.782 3.38774 19.8239C3.32714 19.8822 3.2646 19.9369 3.19814 19.9898C3.27437 19.9278 3.21183 19.9807 3.19423 19.9934C3.14342 20.0244 3.09455 20.0572 3.04178 20.0846C3.01051 20.101 2.81505 20.1867 2.92646 20.1466C2.84632 20.1757 2.76423 20.2013 2.68019 20.2195C2.64696 20.2268 2.61178 20.2323 2.57855 20.2395C2.69778 20.2195 2.58441 20.2377 2.55314 20.2395C2.50819 20.2414 2.46519 20.2432 2.42023 20.2414C2.40655 20.2414 2.23455 20.225 2.36159 20.2414C1.99609 20.1921 1.74591 20.0427 1.47423 19.7783C1.43904 19.7455 1.40582 19.709 1.37259 19.6744C1.29441 19.5905 1.34522 19.6416 1.36086 19.6616C1.31004 19.596 1.269 19.5267 1.226 19.4556C1.17322 19.3681 1.21818 19.4429 1.226 19.4647C1.21036 19.4246 1.19472 19.3864 1.183 19.3444C1.17518 19.3189 1.16931 19.2916 1.1615 19.266C1.12631 19.1457 1.1615 19.3791 1.15954 19.2587C1.15954 19.2478 1.16541 19.0764 1.16345 19.0746C1.19863 19.0928 1.13218 19.1931 1.15954 19.1147C1.16931 19.0874 1.17322 19.0582 1.183 19.029C1.18886 19.009 1.19668 18.9598 1.21231 18.947C1.18104 18.9725 1.15759 19.0418 1.19863 18.9835C1.21427 18.9598 1.22795 18.9342 1.24359 18.9087C1.27095 18.865 1.30027 18.7665 1.24359 18.896C1.26313 18.8504 1.32959 18.8103 1.36477 18.7756C1.3765 18.7647 1.46836 18.6972 1.38627 18.7556C1.30418 18.8139 1.42536 18.7337 1.441 18.7246C1.46054 18.7137 1.48204 18.7045 1.50159 18.6936C1.61495 18.6298 1.49377 18.7155 1.48595 18.6972C1.484 18.6918 1.65404 18.6553 1.66186 18.6517C1.72832 18.6298 1.50941 18.648 1.61886 18.659C1.64427 18.6608 1.68923 18.6608 1.71659 18.659C1.82409 18.648 1.60909 18.6298 1.67164 18.6517C1.69704 18.6608 1.73809 18.6717 1.76545 18.6735C1.57977 18.6608 1.80845 18.6389 1.81627 18.7064C1.82018 18.7319 1.71854 18.6116 1.77914 18.6808C1.81041 18.7155 1.84755 18.7446 1.87882 18.7793C2.08209 19.0072 2.49841 18.9743 2.70755 18.7793C2.94796 18.555 2.91082 18.2342 2.70755 18.0063C2.16418 17.3992 1.22404 17.4758 0.616175 17.937C-0.040556 18.4347 -0.167602 19.2715 0.190082 19.9624C0.655266 20.8649 1.77718 21.45 2.83655 21.2951C3.71024 21.1675 4.42365 20.5458 4.7657 19.8057C5.20547 18.8522 5.2817 17.7766 5.22697 16.7502C5.21134 16.4658 4.96897 16.1887 4.64061 16.2033C4.3357 16.2161 4.0386 16.444 4.05424 16.7502L4.05815 16.7539Z" fill="#AAAAAA"/>
<path id="Vector_7" d="M16.5181 7.36508C16.5123 8.39328 16.2523 9.40325 15.7031 10.2838C15.2066 11.0786 14.5362 11.7003 13.6215 12.0831C13.5785 12.1014 13.4905 12.1342 13.3713 12.1706C13.2521 12.2071 13.1426 12.2381 13.0253 12.2636C12.7419 12.3274 12.6755 12.3365 12.4038 12.3475C12.2807 12.3529 12.1575 12.3529 12.0344 12.3475C11.9738 12.3457 11.9132 12.3402 11.8507 12.3365C11.8487 12.3365 11.6513 12.3128 11.7647 12.3292C11.5067 12.2946 11.2526 12.2326 11.0082 12.1524C10.2147 11.8917 9.43678 11.2755 8.94228 10.5937C7.72459 8.91103 7.58191 6.57023 8.54355 4.7727C8.99896 3.92316 9.63029 3.24134 10.4922 2.79652C10.8851 2.59416 11.2643 2.46837 11.7647 2.39909C11.6493 2.4155 11.8468 2.3918 11.8507 2.3918C11.9113 2.38633 11.9718 2.38268 12.0344 2.38086C12.1575 2.37539 12.2807 2.37539 12.4038 2.38086C12.4644 2.38268 12.525 2.38815 12.5875 2.3918C12.5895 2.3918 12.7869 2.4155 12.6735 2.39909C12.7928 2.4155 12.912 2.43738 13.0273 2.46472C14.0378 2.69443 14.9115 3.32702 15.4959 4.13646C16.1917 5.09903 16.5142 6.20927 16.5201 7.36508C16.524 8.06878 17.6967 8.0706 17.6928 7.36508C17.6811 5.09903 16.4908 2.63062 14.1609 1.67899C13.0801 1.23781 11.8526 1.1503 10.7287 1.51309C9.60488 1.87588 8.65105 2.61421 7.96891 3.53485C6.47954 5.54568 6.37204 8.34588 7.535 10.5098C8.6061 12.5079 10.9183 13.8679 13.34 13.3192C15.7617 12.7704 17.3039 10.5354 17.6205 8.32947C17.6674 8.00862 17.6928 7.68958 17.6948 7.36508C17.6987 6.66138 16.526 6.65956 16.5221 7.36508H16.5181Z" fill="#AAAAAA"/>
</g>
<defs>
<clipPath id="clip0_3264_138465">
<rect width="24" height="21.3333" fill="white"/>
</clipPath>
</defs>
</svg>
