<svg width="24" height="22" viewBox="0 0 24 22" fill="none" xmlns="http://www.w3.org/2000/svg">
<g id="Frame" clip-path="url(#clip0_3264_138330)">
<path id="Vector" d="M19.194 1.38872C19.9484 1.68758 20.7027 2.15644 21.278 2.73268C21.5961 3.05301 21.7977 3.30713 22.0132 3.64893C22.1158 3.81178 22.2097 3.97821 22.2966 4.15001C22.4043 4.36476 22.4565 4.48466 22.5173 4.65109C23.1552 6.36012 23.0405 8.19799 22.5781 9.96071C22.088 11.829 21.2207 13.6454 20.1413 15.2274C19.7033 15.8698 19.1714 16.5141 18.5457 17.0724C18.4692 17.1404 18.391 17.2084 18.311 17.2728C18.3076 17.2746 18.1772 17.3802 18.2572 17.3176C18.2172 17.3498 18.1772 17.3802 18.1355 17.4106C17.9738 17.5323 17.807 17.6451 17.6349 17.7524C17.4785 17.8491 17.3186 17.9386 17.1552 18.0209C16.9292 18.1336 16.9084 18.1426 16.6842 18.2267C15.789 18.5595 14.9825 18.6347 14.0109 18.5094C14.0996 18.5202 13.9101 18.4933 13.9188 18.4951C13.8597 18.4862 13.8023 18.4754 13.7433 18.4647C13.6042 18.4396 13.4652 18.4092 13.3261 18.3752C13.055 18.309 12.7873 18.2285 12.5231 18.1372C11.9234 17.9278 11.3499 17.654 10.7937 17.3444C10.2027 17.0169 9.67604 17.9439 10.267 18.2714C12.1268 19.304 14.2751 19.9751 16.3835 19.44C18.092 19.0069 19.5051 17.8187 20.5723 16.4156C21.8116 14.7854 22.778 12.8634 23.3951 10.8966C24.0121 8.92992 24.2537 6.79856 23.6749 4.82109C23.3846 3.83147 22.8858 2.917 22.1992 2.1636C21.4466 1.33682 20.4941 0.757006 19.4738 0.352566C19.2114 0.248771 18.902 0.467098 18.8325 0.728373C18.7508 1.03081 18.9333 1.28493 19.1975 1.38872H19.194Z" fill="#AAAAAA"/>
<path id="Vector_2" d="M20.329 5.74988C20.3916 5.81789 20.2595 5.62283 20.3099 5.72483C20.3255 5.75525 20.3447 5.78568 20.3603 5.8161C20.3707 5.83578 20.3794 5.85726 20.3899 5.87694C20.4264 5.94495 20.3759 5.8322 20.3725 5.83042C20.3951 5.84115 20.4142 5.94495 20.4246 5.97179C20.4646 6.0899 20.4976 6.21159 20.5237 6.33507C20.5376 6.40128 20.5515 6.4675 20.5619 6.5355C20.5689 6.57487 20.5741 6.61424 20.581 6.65361C20.5689 6.57308 20.5793 6.64108 20.5845 6.68403C20.6662 7.46965 20.5619 8.16042 20.2821 8.89593C20.1795 9.16615 20.3951 9.48469 20.6471 9.55628C20.9426 9.64039 21.1859 9.45248 21.2885 9.18047C21.5996 8.36264 21.723 7.45533 21.6152 6.58382C21.5492 6.05053 21.4432 5.39734 21.066 4.98932C20.8713 4.77994 20.5237 4.7871 20.329 4.98932C20.1343 5.19154 20.1343 5.53872 20.329 5.74809V5.74988Z" fill="#AAAAAA"/>
<path id="Vector_3" d="M16.2599 6.37271C16.6875 6.5445 16.9934 6.74493 17.2732 7.05274C17.2906 7.07063 17.3532 7.15653 17.2941 7.076C17.3201 7.11358 17.3462 7.15116 17.3706 7.19232C17.3949 7.23348 17.4157 7.27106 17.4366 7.31043C17.4453 7.32654 17.5061 7.46255 17.4575 7.34265C17.4853 7.41065 17.5061 7.47865 17.5252 7.55023C17.5357 7.59139 17.5444 7.63434 17.5548 7.67729C17.56 7.70593 17.5652 7.73456 17.5704 7.76319C17.5635 7.69877 17.5617 7.68803 17.5652 7.72919C17.5809 7.8992 17.5809 8.06742 17.5652 8.23743C17.5617 8.26785 17.56 8.29827 17.5565 8.3269C17.5722 8.19269 17.5513 8.3448 17.5478 8.36627C17.5287 8.47365 17.5061 8.57923 17.4801 8.68482C17.3914 9.04273 17.2645 9.3899 17.1272 9.72992C17.115 9.76034 17.1029 9.78897 17.0907 9.8194C17.1359 9.71023 17.0751 9.85519 17.0699 9.86771C17.0334 9.95361 16.9969 10.0413 16.9604 10.1272C16.8995 10.2704 16.8404 10.4135 16.7813 10.5567C16.6753 10.8144 16.5675 11.0703 16.4459 11.3208C16.3833 11.4497 16.3155 11.5767 16.2425 11.7002C16.2095 11.7575 16.1747 11.813 16.1382 11.8684C16.1174 11.9007 16.0948 11.9329 16.0722 11.9669C16.0565 11.9883 16.0426 12.0098 16.027 12.0313C16.0687 11.9758 16.0722 11.9704 16.0374 12.017C15.9436 12.1261 15.8532 12.2353 15.7489 12.3337C15.7176 12.3624 15.5716 12.4733 15.6759 12.3999C15.6011 12.4518 15.5281 12.5037 15.4482 12.5485C15.4134 12.5682 15.3787 12.5843 15.3439 12.6022C15.2379 12.6612 15.4412 12.5789 15.323 12.6093C15.2309 12.6344 15.1423 12.6666 15.0502 12.6881C15.0467 12.6881 14.9111 12.7095 14.9945 12.6988C15.0693 12.6898 14.9059 12.7042 14.8903 12.7042C14.7807 12.7095 14.673 12.7042 14.5635 12.6934C14.454 12.6827 14.5322 12.6881 14.5531 12.6934C14.4835 12.6809 14.4157 12.6684 14.3462 12.6505C14.2159 12.6183 14.0872 12.5789 13.9621 12.5306C13.7188 12.4393 13.4615 12.2997 13.2217 12.1566C12.6394 11.8094 12.1145 12.7364 12.695 13.0836C13.5415 13.59 14.6052 14.0052 15.582 13.6508C16.3103 13.386 16.8352 12.799 17.2106 12.1226C17.5339 11.5374 17.7703 10.8967 18.0241 10.2775C18.3439 9.50085 18.6741 8.65439 18.6098 7.79361C18.5699 7.25317 18.3891 6.76999 18.0536 6.35123C17.6608 5.86268 17.0977 5.56561 16.5345 5.34013C16.2721 5.23455 15.9627 5.45645 15.8931 5.71594C15.8115 6.02016 15.994 6.2707 16.2582 6.37628L16.2599 6.37271Z" fill="#AAAAAA"/>
<path id="Vector_4" d="M18.4481 3.77781C18.2065 4.15719 17.8762 4.54553 17.5442 4.79249C17.3895 4.90702 17.2244 5.01081 17.0506 5.08955C17.1358 5.05018 16.9794 5.1164 16.9794 5.1164C16.9394 5.13071 16.8994 5.14324 16.8577 5.15577C16.816 5.1683 16.7777 5.17366 16.7378 5.18619C16.6404 5.21482 16.7951 5.19156 16.6665 5.19693C16.6248 5.19693 16.3936 5.1844 16.517 5.20409C16.4457 5.19156 16.378 5.17366 16.3119 5.14861C16.4214 5.18798 16.2406 5.10208 16.2094 5.07882C16.3015 5.14682 16.1868 5.04839 16.1763 5.03945C16.0999 4.97323 16.1989 5.09492 16.1416 5.00008C16.1242 4.97144 16.0303 4.77817 16.0634 4.86407C16.0286 4.7728 16.006 4.67796 15.9869 4.58311C15.9678 4.48289 15.9956 4.71017 15.9782 4.53121C15.973 4.47216 15.9695 4.4131 15.9695 4.35584C15.9678 4.23236 15.973 4.1053 15.9886 3.98361C16.1086 3.08346 16.6769 2.1332 17.3878 1.53549C17.6729 1.29569 17.9544 1.14537 18.3073 1.06663C18.3942 1.04694 18.1873 1.07021 18.3316 1.06126C18.3768 1.05947 18.422 1.05589 18.4672 1.05589C18.4967 1.05589 18.5263 1.05947 18.5558 1.05947C18.4324 1.0541 18.5593 1.05947 18.5871 1.06842C18.6219 1.07915 18.6549 1.0881 18.6897 1.09884C18.7592 1.1221 18.5993 1.03083 18.7001 1.106C18.7349 1.13284 18.7766 1.15074 18.8113 1.17758C18.7383 1.12389 18.8218 1.19726 18.8444 1.21695C18.9417 1.30106 18.8113 1.14358 18.8791 1.25632C18.9052 1.29748 18.9295 1.33864 18.9521 1.38159C19.0199 1.51402 18.9347 1.29211 18.9765 1.43885C18.9904 1.49075 19.0077 1.53907 19.0182 1.59097C19.0442 1.7055 19.0442 1.69118 19.0495 1.83972C19.0547 1.9632 19.0495 2.08667 19.039 2.20836C18.9869 2.72555 18.7366 3.30536 18.4481 3.77602C18.0883 4.3612 18.9904 4.90165 19.3484 4.31825C19.9498 3.34116 20.4434 1.86656 19.8194 0.774928C19.232 -0.252279 17.9892 -0.137747 17.1236 0.415227C16.0668 1.09347 15.2482 2.32111 15.0048 3.57738C14.805 4.60458 15.0257 6.00223 16.2181 6.23487C17.5251 6.49078 18.6949 5.34725 19.3484 4.31825C19.5031 4.07487 19.3953 3.72412 19.1607 3.58454C18.9069 3.43242 18.6028 3.53443 18.4481 3.77781Z" fill="#AAAAAA"/>
<path id="Vector_5" d="M12.3648 15.7679C12.1232 16.1473 11.7929 16.5356 11.4609 16.7826C11.3062 16.8971 11.1411 17.0009 10.9673 17.0797C11.0525 17.0403 10.896 17.1065 10.896 17.1065C10.8561 17.1208 10.8161 17.1334 10.7744 17.1459C10.7327 17.1584 10.6944 17.1638 10.6544 17.1763C10.5571 17.2049 10.7118 17.1817 10.5832 17.187C10.5415 17.187 10.3103 17.1745 10.4337 17.1942C10.3624 17.1817 10.2946 17.1638 10.2286 17.1387C10.3381 17.1781 10.1573 17.0922 10.126 17.0689C10.2182 17.1369 10.1035 17.0385 10.093 17.0296C10.0165 16.9633 10.1156 17.085 10.0583 16.9902C10.0409 16.9616 9.94702 16.7683 9.98005 16.8542C9.94528 16.7629 9.92269 16.6681 9.90357 16.5732C9.88445 16.473 9.91226 16.7003 9.89488 16.5213C9.88967 16.4623 9.88619 16.4032 9.88619 16.3459C9.88445 16.2225 9.88967 16.0954 9.90531 15.9737C10.0252 15.0736 10.5936 14.1233 11.3045 13.5256C11.5895 13.2858 11.8711 13.1355 12.224 13.0567C12.3109 13.0371 12.104 13.0603 12.2483 13.0514C12.2935 13.0496 12.3387 13.046 12.3839 13.046C12.4134 13.046 12.443 13.0496 12.4725 13.0496C12.3491 13.0442 12.476 13.0496 12.5038 13.0585C12.5386 13.0693 12.5716 13.0782 12.6064 13.089C12.6759 13.1122 12.516 13.0209 12.6168 13.0961C12.6515 13.123 12.6933 13.1408 12.728 13.1677C12.655 13.114 12.7384 13.1874 12.761 13.2071C12.8584 13.2912 12.728 13.1337 12.7958 13.2464C12.8219 13.2876 12.8462 13.3288 12.8688 13.3717C12.9366 13.5041 12.8514 13.2822 12.8931 13.429C12.907 13.4809 12.9244 13.5292 12.9349 13.5811C12.9609 13.6956 12.9609 13.6813 12.9661 13.8298C12.9714 13.9533 12.9661 14.0768 12.9557 14.1985C12.9036 14.7157 12.6533 15.2955 12.3648 15.7661C12.005 16.3513 12.907 16.8918 13.2651 16.3084C13.8665 15.3313 14.3601 13.8567 13.7361 12.765C13.1486 11.7378 11.9059 11.8524 11.0403 12.4053C9.98352 13.0836 9.16487 14.3112 8.92153 15.5675C8.72165 16.5947 8.94239 17.9923 10.1347 18.225C11.4418 18.4809 12.6116 17.3374 13.2651 16.3084C13.4198 16.065 13.312 15.7142 13.0774 15.5746C12.8236 15.4225 12.5194 15.5245 12.3648 15.7679Z" fill="#AAAAAA"/>
<path id="Vector_6" d="M11.8991 18.8602C11.7444 19.0642 11.5671 19.2485 11.3672 19.4078C11.4559 19.3362 11.3238 19.4364 11.2995 19.4543C11.2525 19.4883 11.2039 19.5206 11.1535 19.5528C11.0405 19.6244 10.924 19.6906 10.8041 19.7514C10.7433 19.7818 10.6807 19.8105 10.6181 19.8391C10.5451 19.8731 10.6911 19.8105 10.6164 19.8391C10.5799 19.8534 10.5451 19.8677 10.5086 19.882C10.3765 19.9339 10.2427 19.9787 10.1054 20.0198C9.83943 20.0986 9.56655 20.1559 9.29366 20.1988C9.13549 20.2239 9.3545 20.1916 9.2589 20.2042C9.22588 20.2077 9.19285 20.2113 9.15809 20.2167C9.08161 20.2256 9.00687 20.2328 8.9304 20.2382C8.77744 20.2507 8.62275 20.2561 8.46979 20.2596C8.16562 20.2632 7.86145 20.2489 7.55902 20.2167C7.37999 20.197 7.39042 20.1988 7.2027 20.1684C7.04627 20.1415 6.89158 20.1111 6.73862 20.0753C6.4414 20.0055 6.1494 19.9178 5.86261 19.8123C5.57582 19.7067 5.42112 19.6369 5.12217 19.4722C4.88752 19.3434 4.58683 19.1447 4.4217 19.0177C4.25658 18.8906 4.00803 18.6508 3.83596 18.4522C3.63781 18.2213 3.44314 17.9261 3.24847 17.5753C3.0538 17.2246 2.90258 16.8917 2.78439 16.523C2.67837 16.1902 2.58798 15.7804 2.56017 15.4976C2.49239 14.8051 2.54279 14.2718 2.73225 13.6383C2.77223 13.5058 2.81742 13.3734 2.86782 13.2446C2.90606 13.1444 2.88173 13.2106 2.87304 13.2303C2.89042 13.1909 2.90606 13.1533 2.92518 13.1139C2.95647 13.0459 2.98949 12.9779 3.02425 12.9117C3.09204 12.7811 3.1633 12.654 3.24326 12.5305C3.27802 12.4769 3.31278 12.4232 3.34928 12.3713C3.36666 12.3462 3.38578 12.3194 3.40316 12.2943C3.49181 12.1708 3.33712 12.3713 3.43445 12.2549C3.59957 12.0545 3.77165 11.8648 3.96632 11.6966C3.98717 11.6787 4.00977 11.6608 4.03063 11.6429C4.08972 11.5928 3.9611 11.6948 4.02194 11.6501C4.0706 11.6143 4.11927 11.5785 4.16968 11.5427C4.26701 11.4765 4.36608 11.4174 4.47037 11.3637C4.5173 11.3405 4.62333 11.294 4.51382 11.3387C4.56423 11.319 4.61464 11.2975 4.66504 11.2814C4.7589 11.2492 4.87883 11.2456 4.96574 11.2045C5.02483 11.1758 4.86145 11.2063 4.92576 11.2098C4.95183 11.2098 4.98138 11.2045 5.00745 11.2027C5.0509 11.2009 5.09436 11.1991 5.13781 11.1991C5.18126 11.1991 5.22298 11.2098 5.26469 11.2081C5.11348 11.2134 5.25426 11.2081 5.31162 11.2224C5.3516 11.2331 5.39158 11.251 5.43155 11.2599C5.51151 11.2778 5.40722 11.2474 5.39505 11.2421C5.41939 11.2546 5.44372 11.2635 5.46632 11.2778C5.50455 11.2993 5.54106 11.3208 5.57756 11.3441C5.60015 11.3584 5.62275 11.3763 5.64534 11.3906C5.60189 11.362 5.57582 11.3262 5.63144 11.3816C5.67489 11.4246 5.71834 11.4657 5.76006 11.5123C5.77744 11.532 5.79482 11.5534 5.81046 11.5749C5.79482 11.5552 5.76006 11.4854 5.79656 11.5624C5.81742 11.6071 5.84696 11.6554 5.87304 11.6966C5.91997 11.7718 5.87304 11.693 5.86608 11.6733C5.87825 11.7091 5.89216 11.7449 5.90258 11.7807C5.91649 11.829 5.92518 11.8791 5.93735 11.9275C5.96863 12.0474 5.93213 11.8362 5.93735 11.9149C5.93735 11.94 5.94082 11.965 5.94256 11.9901C5.9443 12.0474 5.94256 12.1046 5.93909 12.1619C5.93909 12.1869 5.93387 12.2138 5.93213 12.2388C5.93909 12.1744 5.94604 12.1583 5.92866 12.2299C5.90259 12.3408 5.87304 12.4482 5.83306 12.5556C5.87825 12.4321 5.81916 12.5824 5.80177 12.6146C5.77049 12.6773 5.73572 12.7381 5.69922 12.7972C5.68358 12.8204 5.66794 12.8437 5.65403 12.8688C5.65403 12.8688 5.57234 12.9833 5.62101 12.9189C5.65577 12.8741 5.55496 12.9976 5.53932 13.0155C5.4472 13.1193 5.34639 13.2177 5.23862 13.3054C5.32379 13.2356 5.18822 13.3394 5.16562 13.3555C5.11521 13.3895 5.06481 13.4217 5.01267 13.4522C4.96052 13.4826 4.9049 13.5094 4.85102 13.5381C4.7224 13.6061 4.91012 13.5166 4.82842 13.5488C4.79192 13.5631 4.75716 13.5774 4.72066 13.59C4.59378 13.6347 4.46516 13.6669 4.33306 13.6902C4.24268 13.7063 4.4582 13.683 4.30351 13.6938C4.27049 13.6955 4.2392 13.6991 4.20618 13.7009C4.12275 13.7063 4.03932 13.7063 3.95589 13.7009C3.92286 13.7009 3.756 13.683 3.83769 13.6938C3.76817 13.683 3.69691 13.6687 3.62738 13.6526C3.49528 13.6204 3.28671 13.5506 3.21545 13.5184C2.87477 13.3645 2.56539 13.1426 2.2925 12.8849C2.0509 12.6576 1.84059 12.4088 1.68937 12.178C1.60421 12.0474 1.52599 11.9131 1.45299 11.7753C1.3713 11.6161 1.32785 11.5159 1.28961 11.4121C1.18358 11.1257 1.11058 10.8287 1.06539 10.5262C1.05148 10.4385 1.07234 10.6032 1.06539 10.5155C1.06191 10.4725 1.0567 10.4296 1.05322 10.3866C1.04801 10.3186 1.04279 10.2506 1.04105 10.1808C1.03584 10.0269 1.03758 9.87483 1.04801 9.72093C1.05322 9.65293 1.06017 9.58671 1.06539 9.51871C1.07582 9.41133 1.06886 9.48829 1.06539 9.50976C1.0706 9.4686 1.07756 9.42565 1.08451 9.38449C1.11058 9.23596 1.14187 9.08743 1.18184 8.94247C1.21834 8.80468 1.26353 8.67046 1.3122 8.53803C1.32437 8.50761 1.33654 8.4754 1.3487 8.44497C1.31394 8.53087 1.3487 8.45034 1.35392 8.43603C1.38694 8.36086 1.4217 8.2857 1.45994 8.21233C1.52251 8.08706 1.59204 7.96537 1.66678 7.84726C1.70676 7.78463 1.74847 7.72378 1.79019 7.66294C1.79888 7.65041 1.84928 7.58062 1.7954 7.6522C1.81973 7.61999 1.84581 7.58777 1.87014 7.55556C2.25426 7.07954 2.59146 6.80395 3.15287 6.55341C3.06249 6.59278 3.23978 6.5212 3.25716 6.51404C3.31973 6.49078 3.38231 6.4693 3.44662 6.44962C3.59262 6.40488 3.74036 6.37087 3.88984 6.34403C4.16794 6.29392 4.32263 5.94317 4.25484 5.68368C4.17489 5.38125 3.89158 5.25956 3.61348 5.30788C2.26991 5.54768 1.11406 6.50509 0.516142 7.75599C-0.0817724 9.0069 -0.177369 10.5728 0.37014 11.906C0.975006 13.3842 2.38636 14.7281 4.00629 14.7729C5.28555 14.8086 6.59957 13.9013 6.91591 12.5932C7.06713 11.965 6.95067 11.3172 6.54743 10.8161C6.1998 10.3849 5.67837 10.1415 5.13781 10.1289C3.96458 10.1021 2.94604 11.0416 2.34291 11.9919C0.622167 14.7013 1.69633 18.6133 4.33654 20.2507C5.52194 20.9844 6.94198 21.3298 8.31858 21.3405C9.69517 21.3513 11.0231 21.0506 12.0747 20.2024C12.285 20.0324 12.4744 19.8445 12.6395 19.6279C12.8134 19.3989 12.8551 19.0911 12.6395 18.8692C12.4588 18.683 12.0764 18.6401 11.9026 18.8692L11.8991 18.8602Z" fill="#AAAAAA"/>
</g>
<defs>
<clipPath id="clip0_3264_138330">
<rect width="24" height="21.3333" fill="white"/>
</clipPath>
</defs>
</svg>
