<svg width="18" height="24" viewBox="0 0 18 24" fill="none" xmlns="http://www.w3.org/2000/svg">
<g id="Frame" clip-path="url(#clip0_3264_138367)">
<path id="Vector" d="M15.0007 20.0179H8.97834C6.98894 20.0179 4.99737 20.0459 3.01013 20.0179C2.16929 20.0072 1.42597 19.3894 1.32195 18.5435C1.30461 18.3993 1.31328 18.1733 1.31328 17.9925V15.3578C1.31328 12.5274 1.31328 9.69471 1.31328 6.86421V3.74529C1.31328 3.51283 1.31328 3.28251 1.31328 3.05004C1.31328 2.49471 1.49749 2.04269 1.93958 1.66816C2.26464 1.39265 2.67639 1.29363 3.15316 1.29363H14.8772C15.3648 1.29363 15.7896 1.40987 16.1255 1.71552C16.5329 2.08359 16.6976 2.52054 16.6998 3.05865C16.6998 3.7496 16.6998 4.44054 16.6998 5.13148V18.0097C16.6998 18.0958 16.6998 18.184 16.6998 18.2701C16.6998 18.2874 16.6998 18.3067 16.6998 18.3239C16.6998 18.3261 16.6998 18.3304 16.6998 18.3326C16.6998 18.3498 16.6998 18.3928 16.6998 18.4079C16.6998 18.4574 16.6954 18.5069 16.6911 18.5564C16.6976 18.5198 16.6976 18.522 16.6911 18.5672C16.5481 19.4303 15.8437 20.005 15.0072 20.0179C14.1707 20.0309 14.1686 21.3223 15.0072 21.3094C16.2382 21.29 17.326 20.5604 17.7898 19.4282C17.961 19.0127 18.0044 18.5758 18.0044 18.1324V3.74314C18.0044 3.50637 18.0044 3.2696 18.0044 3.03282C18.0022 2.25578 17.7291 1.52395 17.2004 0.949238C16.6196 0.32287 15.7917 0.00430493 14.9487 0C14.6648 0 14.3809 0 14.0992 0H3.14666C2.49869 0 1.85723 0.144215 1.31978 0.523049C0.500618 1.09561 0.023854 1.99964 0.0130185 2.99408C0.00651715 3.60538 0.0130185 4.21883 0.0130185 4.83013V16.9614C0.0130185 17.6007 -0.0411592 18.2766 0.0715304 18.9094C0.270904 20.0309 1.2071 20.9779 2.31882 21.2276C2.67206 21.3073 3.02096 21.3073 3.37854 21.3073H15.0007C15.8372 21.3073 15.8394 20.0158 15.0007 20.0158V20.0179Z" fill="#AAAAAA"/>
<path id="Vector_2" d="M4.78071 6.71782V4.07459C4.78071 3.73665 4.48165 3.41378 4.13058 3.42885C3.77951 3.44392 3.48045 3.71298 3.48045 4.07459V6.71782C3.48045 7.05576 3.77951 7.37863 4.13058 7.36356C4.48165 7.34849 4.78071 7.07943 4.78071 6.71782Z" fill="#AAAAAA"/>
<path id="Vector_3" d="M14.0993 20.556V3.85068C14.0993 3.07579 14.1275 2.2966 14.0993 1.52386C14.0993 1.5131 14.0993 1.50234 14.0993 1.48942C14.0993 0.658573 12.7991 0.65642 12.7991 1.48942V18.1947C12.7991 18.9696 12.7709 19.7488 12.7991 20.5215C12.7991 20.5323 12.7991 20.5431 12.7991 20.556C12.7991 21.3868 14.0993 21.389 14.0993 20.556Z" fill="#AAAAAA"/>
<path id="Vector_4" d="M12.9077 9.91648H16.7304C17.0707 9.91648 17.3957 9.61944 17.3806 9.27074C17.3654 8.92204 17.0945 8.625 16.7304 8.625H12.9077C12.5674 8.625 12.2424 8.92204 12.2575 9.27074C12.2727 9.61944 12.5436 9.91648 12.9077 9.91648Z" fill="#AAAAAA"/>
<path id="Vector_5" d="M12.9077 13.1449H16.7304C17.0707 13.1449 17.3957 12.8478 17.3806 12.4991C17.3654 12.1504 17.0945 11.8534 16.7304 11.8534H12.9077C12.5674 11.8534 12.2424 12.1504 12.2575 12.4991C12.2727 12.8478 12.5436 13.1449 12.9077 13.1449Z" fill="#AAAAAA"/>
<path id="Vector_6" d="M4.78071 17.4803V14.837C4.78071 14.4991 4.48165 14.1762 4.13058 14.1913C3.77951 14.2064 3.48045 14.4754 3.48045 14.837V17.4803C3.48045 17.8182 3.77951 18.1411 4.13058 18.126C4.48165 18.1109 4.78071 17.8419 4.78071 17.4803Z" fill="#AAAAAA"/>
<path id="Vector_7" d="M3.26366 22.9238V20.8617C3.26366 20.5238 2.9646 20.2009 2.61353 20.216C2.26246 20.231 1.96339 20.5001 1.96339 20.8617V22.9238C1.96339 23.2617 2.26246 23.5846 2.61353 23.5695C2.9646 23.5544 3.26366 23.2854 3.26366 22.9238Z" fill="#AAAAAA"/>
<path id="Vector_8" d="M16.6994 23.3543V21.2922C16.6994 20.9543 16.4004 20.6314 16.0493 20.6465C15.6982 20.6616 15.3992 20.9306 15.3992 21.2922V23.3543C15.3992 23.6922 15.6982 24.0151 16.0493 24C16.4004 23.985 16.6994 23.7159 16.6994 23.3543Z" fill="#AAAAAA"/>
<path id="Vector_9" d="M5.64769 10.9776C5.66719 12.6134 6.69007 14.0448 8.22655 14.6217C9.71102 15.1792 11.5119 14.6992 12.5196 13.4852C13.5273 12.2712 13.757 10.4222 12.9053 9.00159C12.0537 7.58096 10.4002 6.88357 8.78349 7.17845C6.96746 7.50993 5.66936 9.17164 5.64769 10.9754C5.63902 11.8063 6.93928 11.8063 6.94795 10.9754C6.95445 10.4136 7.10832 9.92931 7.44855 9.445C7.5114 9.35675 7.55258 9.30939 7.65876 9.19747C7.70644 9.14796 7.75845 9.09845 7.81046 9.0511C7.8343 9.02957 7.96433 8.91765 7.92098 8.94993C8.03151 8.86383 8.15287 8.7885 8.27422 8.71962C8.41725 8.63998 8.49744 8.60123 8.60362 8.56249C9.69585 8.17074 10.8271 8.47209 11.5747 9.35244C12.2465 10.1424 12.3267 11.3844 11.7784 12.297C11.6246 12.5532 11.5141 12.6845 11.2822 12.8954C11.1131 13.0504 10.8661 13.214 10.5952 13.3388C10.567 13.3517 10.5649 13.3539 10.4868 13.3819C10.4197 13.4055 10.3503 13.4292 10.281 13.4486C10.2116 13.468 10.1401 13.4873 10.0708 13.5024C10.0382 13.5089 9.86055 13.5411 9.91689 13.5325C9.76953 13.5519 9.61783 13.5562 9.4683 13.5519C9.39245 13.5519 9.31877 13.5454 9.24292 13.539C9.15407 13.5304 9.19958 13.539 9.08689 13.5153C7.82346 13.2699 6.95662 12.2174 6.94145 10.9689C6.93278 10.1381 5.63252 10.1359 5.64119 10.9689L5.64769 10.9776Z" fill="#AAAAAA"/>
</g>
<defs>
<clipPath id="clip0_3264_138367">
<rect width="18" height="24" fill="white"/>
</clipPath>
</defs>
</svg>
