<svg width="23" height="23" viewBox="0 0 23 23" fill="none" xmlns="http://www.w3.org/2000/svg">
<g id="Frame" clip-path="url(#clip0_3264_137788)">
<path id="Vector" d="M-6.54413e-05 14.6603C0.0108113 17.11 1.08979 19.5068 2.97147 21.0689C4.95539 22.7166 7.58104 23.3669 10.0957 22.8023C11.6315 22.4574 13.0477 21.6423 14.155 20.5174C14.4029 20.2648 14.4051 19.8386 14.155 19.5859C12.9411 18.36 11.7273 17.1341 10.5134 15.9082C8.57952 13.9551 6.64781 12.0042 4.71392 10.0511C4.27233 9.60514 3.83073 9.15915 3.39131 8.71537C3.14114 8.46272 2.71913 8.46272 2.46896 8.71537C0.898355 10.2884 0.0129867 12.426 -6.54413e-05 14.6603C-0.00441615 15.5084 1.3008 15.5106 1.30515 14.6603C1.31602 12.7688 2.06217 10.9804 3.38913 9.64688H2.46678C3.68063 10.8728 4.89448 12.0987 6.10832 13.3246C8.04221 15.2777 9.97393 17.2286 11.9078 19.1817C12.3494 19.6277 12.791 20.0737 13.2304 20.5174V19.5859C12.3886 20.4406 11.3553 21.0777 10.2045 21.4138C9.05375 21.7499 7.86601 21.7719 6.80444 21.5368C4.80964 21.0953 3.12592 19.821 2.14701 18.0217C1.59229 16.9979 1.30732 15.8379 1.30297 14.6625C1.3008 13.8123 -0.00441615 13.8101 -6.54413e-05 14.6603Z" fill="#AAAAAA"/>
<path id="Vector_2" d="M4.53994 18.2765C5.16862 18.8016 5.81688 19.2652 6.57825 19.5727C7.33962 19.8803 8.16843 19.9484 8.97114 19.8605C9.30832 19.8232 9.64115 19.5837 9.62374 19.2015C9.60852 18.8763 9.33442 18.5028 8.97114 18.5424C8.60785 18.5819 8.22717 18.5731 7.85083 18.5534C7.74424 18.5468 7.9422 18.5709 7.83995 18.5534C7.78992 18.5446 7.73989 18.538 7.68985 18.527C7.61154 18.5116 7.53323 18.494 7.45492 18.4743C7.29394 18.4325 7.13514 18.382 6.98069 18.3227C6.96981 18.3183 6.85887 18.2721 6.92413 18.3007C6.98939 18.3293 6.88062 18.2809 6.86975 18.2743C6.80014 18.2414 6.73052 18.2062 6.66091 18.1711C6.51299 18.092 6.36942 18.0063 6.22802 17.9162C6.08662 17.8262 5.95827 17.7339 5.82993 17.6372C5.81905 17.6284 5.69288 17.5318 5.74727 17.5757C5.79295 17.6109 5.69723 17.5362 5.68853 17.5296C5.61239 17.4681 5.53843 17.4065 5.46447 17.345C5.20125 17.1253 4.79446 17.066 4.54212 17.345C4.32241 17.5867 4.2615 18.0415 4.54212 18.2765H4.53994Z" fill="#AAAAAA"/>
<path id="Vector_3" d="M10.9571 10.9101C10.0369 11.8394 9.11458 12.7709 8.19441 13.7002C8.06389 13.8321 7.93119 13.9661 7.80067 14.0979C7.55921 14.3418 7.54181 14.7899 7.80067 15.0294C8.05954 15.2689 8.46633 15.2908 8.72302 15.0294C9.6432 14.1001 10.5655 13.1686 11.4857 12.2393C11.6162 12.1074 11.7489 11.9734 11.8795 11.8416C12.1209 11.5977 12.1383 11.1496 11.8795 10.9101C11.6206 10.6706 11.2138 10.6487 10.9571 10.9101Z" fill="#AAAAAA"/>
<path id="Vector_4" d="M13.2391 12.2129C13.7285 11.6923 13.5393 10.9145 13.1782 10.3785C12.9585 10.0511 12.6952 9.78529 12.3842 9.54802C12.1492 9.37006 11.8686 9.21847 11.5793 9.15696C11.2291 9.08226 10.8658 9.10423 10.5721 9.33271C10.3002 9.54582 10.1479 9.88635 10.1697 10.2357C10.1914 10.585 10.3024 10.8838 10.4742 11.165C10.6461 11.4462 10.8723 11.7186 11.1312 11.9295C11.4205 12.1668 11.7468 12.3865 12.1166 12.47C12.5169 12.5601 12.9302 12.5073 13.2369 12.2129C13.4849 11.9757 13.4914 11.5187 13.2369 11.2814C12.9824 11.0441 12.5778 11.0266 12.3146 11.2814C12.3037 11.2924 12.2906 11.3034 12.2776 11.3144L12.4103 11.2111C12.3885 11.2265 12.3646 11.2397 12.3385 11.2529L12.4951 11.187C12.456 11.2023 12.419 11.2133 12.3776 11.2177L12.5517 11.1935C12.4929 11.2001 12.4342 11.1979 12.3755 11.1935L12.5495 11.2177C12.4494 11.2023 12.3537 11.1738 12.2602 11.1364L12.4168 11.2023C12.2515 11.132 12.1014 11.0376 11.96 10.9277L12.0927 11.031C11.9252 10.8991 11.7772 10.7476 11.6445 10.5784L11.7468 10.7124C11.638 10.5696 11.5445 10.4158 11.4749 10.251L11.5401 10.4092C11.5031 10.3148 11.4727 10.2181 11.4596 10.117L11.4836 10.2928C11.477 10.2335 11.4749 10.1742 11.4836 10.1148L11.4596 10.2906C11.4662 10.2488 11.4749 10.2115 11.4901 10.172L11.4248 10.3301C11.4357 10.3038 11.4488 10.2818 11.4662 10.2576L11.3639 10.3917C11.3835 10.3653 11.4074 10.3433 11.4335 10.3213L11.3008 10.4246C11.3226 10.4092 11.3465 10.396 11.3726 10.3829L11.216 10.4488C11.2552 10.4334 11.2921 10.4224 11.3335 10.418L11.1594 10.4422C11.2182 10.4356 11.2769 10.4378 11.3356 10.4422L11.1616 10.418C11.2617 10.4334 11.3574 10.462 11.4509 10.4993L11.2943 10.4334C11.4596 10.5037 11.6097 10.5982 11.7511 10.708L11.6184 10.6048C11.7859 10.7366 11.9339 10.8882 12.0666 11.0573L11.9643 10.9233C12.0731 11.0661 12.1666 11.2199 12.2362 11.3847L12.171 11.2265C12.208 11.321 12.2384 11.4176 12.2515 11.5187L12.2275 11.3429C12.2341 11.4023 12.2362 11.4616 12.2275 11.5209L12.2515 11.3451C12.2449 11.3869 12.2362 11.4242 12.221 11.4638L12.2863 11.3056C12.2754 11.332 12.2623 11.3539 12.2449 11.3781L12.3472 11.2441C12.3363 11.2573 12.3276 11.2682 12.3146 11.2814C12.0796 11.5319 12.0513 11.9691 12.3146 12.2129C12.5778 12.4568 12.9867 12.4788 13.2369 12.2129H13.2391Z" fill="#AAAAAA"/>
<path id="Vector_5" d="M15.5797 7.05232C14.4159 5.88573 12.8758 4.80043 11.1855 4.69058C10.844 4.66861 10.5177 5.00914 10.5329 5.34967C10.5503 5.72535 10.8201 5.98459 11.1855 6.00876C11.2225 6.01096 11.2595 6.01535 11.2986 6.01755C11.3182 6.01755 11.4248 6.03073 11.3269 6.01755C11.2203 6.00437 11.3574 6.02414 11.3813 6.02634C11.4139 6.03293 11.4444 6.03732 11.477 6.04391C11.6271 6.07467 11.775 6.11422 11.9208 6.16255C11.9969 6.18672 12.0752 6.21528 12.1492 6.24384C12.1818 6.25702 12.3994 6.34929 12.2797 6.29437C12.4494 6.37346 12.6191 6.45475 12.7844 6.54482C13.1238 6.73156 13.4479 6.94467 13.7568 7.17755C13.7677 7.18414 13.8569 7.25444 13.8264 7.23027C13.7873 7.19952 13.9091 7.29838 13.9221 7.30717C14.0026 7.37307 14.0831 7.44118 14.1614 7.51148C14.3333 7.66307 14.4986 7.81906 14.6596 7.98163C14.9032 8.2255 15.3426 8.24527 15.5819 7.98163C15.8212 7.718 15.8408 7.30936 15.5819 7.05012L15.5797 7.05232Z" fill="#AAAAAA"/>
<path id="Vector_6" d="M17.9159 11.4329C17.7746 9.74565 16.7304 8.22315 15.5818 7.05437C15.3403 6.80831 14.8966 6.79293 14.6594 7.05437C14.4223 7.31581 14.4028 7.72444 14.6594 7.98588C15.2511 8.58785 15.6579 9.10194 16.0647 9.84451C16.1496 10.0005 16.2279 10.1587 16.3018 10.3191C16.3062 10.33 16.3562 10.4421 16.3258 10.3696C16.291 10.2883 16.3497 10.4311 16.3562 10.4465C16.3845 10.5212 16.4128 10.5981 16.4389 10.675C16.4867 10.82 16.5303 10.9694 16.5629 11.1187C16.5781 11.1891 16.5912 11.2616 16.6042 11.3319C16.6216 11.4263 16.6151 11.3187 16.5999 11.2945C16.6129 11.3165 16.6107 11.4044 16.6129 11.4307C16.6412 11.7734 16.8935 12.1074 17.2655 12.0898C17.594 12.0744 17.9486 11.7976 17.9181 11.4307L17.9159 11.4329Z" fill="#AAAAAA"/>
<path id="Vector_7" d="M22.9998 13.0369C22.9889 11.5715 22.4755 10.1435 21.8164 8.85606C20.9854 7.2325 19.8477 5.76493 18.5729 4.47092C17.9791 3.86896 17.0567 4.80047 17.6506 5.40243C18.8318 6.60198 19.8716 7.94432 20.6526 9.44485C20.9745 10.0644 21.2203 10.64 21.4183 11.3167C21.6163 11.9933 21.6924 12.4107 21.6967 13.0369C21.7033 13.8849 23.0085 13.8871 23.002 13.0369H22.9998Z" fill="#AAAAAA"/>
<path id="Vector_8" d="M18.5707 4.47084C17.2916 3.18562 15.8385 2.03441 14.2309 1.19517C12.9561 0.53169 11.5421 0.0110094 10.0912 2.46336e-05C9.2515 -0.00656625 9.24932 1.31161 10.0912 1.3182C10.7133 1.3226 11.1484 1.40608 11.7945 1.59941C12.4406 1.79275 13.0323 2.04759 13.6457 2.37274C15.1315 3.16145 16.4606 4.2094 17.6484 5.40235C18.2444 6.00213 19.1668 5.07061 18.5707 4.47084Z" fill="#AAAAAA"/>
</g>
<defs>
<clipPath id="clip0_3264_137788">
<rect width="23" height="23" fill="white"/>
</clipPath>
</defs>
</svg>
