<svg width="24" height="18" viewBox="0 0 24 18" fill="none" xmlns="http://www.w3.org/2000/svg">
<g id="Frame" clip-path="url(#clip0_3264_138300)">
<path id="Vector" d="M2.72198 8.6538H11.4989C12.1613 8.6538 12.1631 7.68652 11.4989 7.68652H2.72198C2.05951 7.68652 2.0578 8.6538 2.72198 8.6538Z" fill="#AAAAAA"/>
<path id="Vector_2" d="M0.549428 1.04003H3.23192C3.50137 1.04003 3.75881 0.817559 3.7468 0.556393C3.73478 0.295228 3.52025 0.0727539 3.23192 0.0727539H0.549428C0.279977 0.0727539 0.0225401 0.295228 0.0345538 0.556393C0.0465675 0.817559 0.261098 1.04003 0.549428 1.04003Z" fill="#AAAAAA"/>
<path id="Vector_3" d="M20.4439 16.3438C20.4508 16.2568 20.4799 16.1971 20.5005 16.1713C20.5452 16.1133 20.516 16.1472 20.5005 16.1601C20.5778 16.0811 20.5606 16.1246 20.5246 16.1391C20.5023 16.1488 20.3976 16.2036 20.4439 16.1826C20.4988 16.1585 20.4302 16.1875 20.4233 16.1907C20.3838 16.2036 20.3461 16.2165 20.3066 16.2278C20.0372 16.3084 19.754 16.3503 19.4725 16.3713C18.8221 16.4228 18.1321 16.418 17.4988 16.2552C17.4405 16.2407 17.3821 16.2245 17.3238 16.2052C17.2946 16.1955 17.2637 16.1859 17.2362 16.1746C17.2431 16.1778 17.31 16.2068 17.262 16.1826C17.2242 16.1633 17.1865 16.1407 17.1487 16.1214C17.159 16.1278 17.2345 16.1955 17.1813 16.1407C17.1899 16.1504 17.2431 16.2342 17.2139 16.181C17.2671 16.2761 17.2671 16.3696 17.2311 16.4696C17.2071 16.5341 17.2156 16.5083 17.2277 16.4873C17.1882 16.5599 17.1676 16.5631 17.2036 16.5276C17.1436 16.5905 17.1624 16.5615 17.2277 16.5228C17.2448 16.5131 17.2637 16.5067 17.2809 16.497C17.1882 16.5421 17.2774 16.497 17.3032 16.4889C17.9021 16.3003 18.544 16.2729 19.1705 16.2971C19.5189 16.31 19.8672 16.3438 20.2053 16.4309C20.2723 16.4486 20.3375 16.468 20.4027 16.4889C20.425 16.4954 20.4473 16.5034 20.4679 16.5131C20.4044 16.4873 20.437 16.4986 20.4782 16.5228C20.492 16.5309 20.5108 16.5438 20.5263 16.5486C20.6104 16.5792 20.4937 16.5131 20.5126 16.5373C20.5469 16.5808 20.4748 16.4809 20.4782 16.4873C20.4988 16.5196 20.4971 16.5131 20.4748 16.4696C20.4525 16.4309 20.4439 16.389 20.4456 16.3438C20.4645 16.605 20.6687 16.8275 20.9605 16.8275C21.2248 16.8275 21.4943 16.605 21.4754 16.3438C21.417 15.5587 20.2997 15.4314 19.6562 15.3637C19.1722 15.3121 18.6796 15.3089 18.1956 15.3508C17.7889 15.3846 17.3701 15.4346 16.9857 15.5716C16.6733 15.6829 16.3438 15.857 16.2545 16.1842C16.1567 16.5421 16.4056 16.8484 16.7265 17.0097C17.0475 17.1709 17.4405 17.2466 17.8112 17.295C18.314 17.3595 18.8203 17.3804 19.3266 17.3514C20.0166 17.3111 21.4119 17.2208 21.4754 16.3455C21.4943 16.0843 21.2248 15.8618 20.9605 15.8618C20.6653 15.8618 20.4645 16.0843 20.4456 16.3455L20.4439 16.3438Z" fill="#AAAAAA"/>
<path id="Vector_4" d="M19.3075 16.0728V11.6652C19.3075 11.0429 18.2778 11.0413 18.2778 11.6652V16.0728C18.2778 16.695 19.3075 16.6967 19.3075 16.0728Z" fill="#AAAAAA"/>
<path id="Vector_5" d="M3.18542 8.42814C2.94171 7.54147 2.69629 6.6548 2.45258 5.76813C2.06299 4.35267 1.6734 2.93884 1.2821 1.52338C1.19285 1.19612 1.10189 0.870471 1.01265 0.543208C0.846172 -0.059729 -0.147535 0.194988 0.0189408 0.799537C0.262648 1.68621 0.508071 2.57288 0.751778 3.45955C1.14137 4.875 1.53095 6.28884 1.92226 7.7043C2.0115 8.03156 2.10247 8.35721 2.19171 8.68447C2.35819 9.28741 3.35189 9.03108 3.18542 8.42653V8.42814Z" fill="#AAAAAA"/>
<path id="Vector_6" d="M5.7081 7.68479C5.48671 6.88356 5.26359 6.08233 5.0422 5.28271C4.68522 3.99784 4.32996 2.71297 3.97298 1.42811C3.8906 1.13309 3.80993 0.838066 3.72755 0.543046C3.56108 -0.0582792 2.56737 0.196438 2.73385 0.800987C2.95524 1.60222 3.17835 2.40345 3.39975 3.20306C3.75673 4.48793 4.11199 5.7728 4.46897 7.05767C4.55135 7.35269 4.63201 7.64771 4.71439 7.94273C4.88087 8.54405 5.87458 8.28934 5.7081 7.68479Z" fill="#AAAAAA"/>
<path id="Vector_7" d="M3.20251 16.8324V8.55728C3.20251 7.935 2.17276 7.93339 2.17276 8.55728V16.8324C2.17276 17.4546 3.20251 17.4562 3.20251 16.8324Z" fill="#AAAAAA"/>
<path id="Vector_8" d="M14.1917 6.65319H23.3943C24.0567 6.65319 24.0584 5.68591 23.3943 5.68591H14.1917C13.5293 5.68591 13.5276 6.65319 14.1917 6.65319Z" fill="#AAAAAA"/>
<path id="Vector_9" d="M2.72198 17.4546H9.88732C10.5498 17.4546 10.5515 16.4873 9.88732 16.4873H2.72198C2.05951 16.4873 2.0578 17.4546 2.72198 17.4546Z" fill="#AAAAAA"/>
<path id="Vector_10" d="M7.33011 13.5644C7.97371 14.5881 8.61558 15.6118 9.25918 16.6355L9.53206 17.0692C9.67279 17.2932 9.99545 17.3755 10.2357 17.2433C10.476 17.1111 10.5618 16.808 10.4211 16.5823C9.77748 15.5586 9.13561 14.5349 8.49201 13.5112C8.40105 13.3661 8.31009 13.221 8.21913 13.0775C8.0784 12.8534 7.75574 12.7712 7.51547 12.9034C7.27519 13.0356 7.18938 13.3387 7.33011 13.5644Z" fill="#AAAAAA"/>
<path id="Vector_11" d="M13.5877 6.32772C13.598 8.48475 14.7479 10.7869 16.9378 11.6881C17.9658 12.1104 19.1329 12.191 20.2038 11.8525C21.2747 11.5139 22.1792 10.8191 22.8331 9.94857C23.6209 8.89907 23.995 7.6013 24.0019 6.32611C24.0053 5.70382 22.9755 5.70221 22.9721 6.32611C22.967 7.30306 22.7181 8.25905 22.1947 9.09736C21.7158 9.86151 21.0602 10.4628 20.1815 10.832C20.1266 10.8546 20.1712 10.8369 20.1815 10.832C20.1575 10.8417 20.1317 10.8514 20.1077 10.8594C20.0579 10.8772 20.0082 10.8949 19.9567 10.911C19.8382 10.9497 19.7198 10.9819 19.598 11.0093C19.3388 11.069 19.2479 11.0819 18.9887 11.0932C18.8703 11.098 18.7501 11.0996 18.6317 11.0932C18.5768 11.0916 18.5236 11.0883 18.4687 11.0835C18.4361 11.0803 18.2713 11.0625 18.3365 11.0706C18.1066 11.0384 17.88 10.9868 17.6603 10.9175C17.4286 10.8449 17.3291 10.803 17.0991 10.6837C16.9961 10.6305 16.8966 10.5741 16.7988 10.5144C16.7542 10.487 16.7095 10.458 16.6649 10.429C16.646 10.4161 16.531 10.3371 16.5739 10.3677C16.1947 10.092 15.8583 9.74705 15.6146 9.41495C14.9401 8.49765 14.626 7.43203 14.6191 6.32449C14.6157 5.70221 13.586 5.7006 13.5894 6.32449L13.5877 6.32772Z" fill="#AAAAAA"/>
<path id="Vector_12" d="M19.5876 1.93277C19.6305 1.03642 19.0315 0.228743 18.0773 0.0417355C17.5813 -0.0549923 17.0183 0.0143293 16.5738 0.256149C15.6797 0.743013 15.6247 1.88279 15.5801 2.74206C15.5303 3.70933 15.5492 4.68145 15.5544 5.64873C15.5578 6.27101 16.5876 6.27262 16.5841 5.64873C16.5807 4.83621 16.5704 4.0237 16.5927 3.21119C16.6013 2.91617 16.6133 2.62276 16.6373 2.32774C16.6476 2.21811 16.6596 2.1101 16.6734 2.00047C16.6837 1.91181 16.6717 2.0166 16.6699 2.02949C16.6751 1.99725 16.6802 1.96501 16.6854 1.93438C16.694 1.8844 16.7043 1.83443 16.7146 1.78445C16.7334 1.69901 16.754 1.61356 16.7815 1.53134C16.7935 1.49588 16.8072 1.46041 16.8193 1.42494C16.869 1.28146 16.7866 1.47331 16.8278 1.40076C16.8622 1.34111 16.8948 1.28308 16.9325 1.22504C16.984 1.14443 16.9514 1.21698 16.9222 1.23632C16.9497 1.21859 16.9737 1.18151 16.9995 1.15894C17.0132 1.14766 17.0595 1.09607 17.075 1.09607C17.0509 1.09446 16.9531 1.16862 17.0527 1.11703C17.0818 1.10091 17.1127 1.08478 17.1419 1.06866C17.1539 1.06221 17.1676 1.05738 17.1797 1.05093C17.2723 0.999342 17.1162 1.06705 17.1453 1.06383C17.2895 1.04771 17.4508 0.984832 17.5984 0.957426C17.6791 0.942917 17.5469 0.963875 17.5418 0.963875C17.5761 0.963875 17.6122 0.959038 17.6465 0.959038C17.6963 0.959038 17.7477 0.962263 17.7958 0.968711C17.7048 0.957426 17.8336 0.979996 17.8559 0.984832C18.0378 1.02514 18.0979 1.04126 18.2729 1.167C18.2146 1.12509 18.3656 1.25567 18.3896 1.28146C18.3364 1.22343 18.4051 1.30081 18.4154 1.31693C18.4428 1.35885 18.4703 1.40076 18.4926 1.4459C18.5475 1.55391 18.5715 1.75059 18.5612 1.93277C18.5492 2.19393 18.8067 2.4164 19.0761 2.4164C19.3662 2.4164 19.579 2.19554 19.591 1.93277H19.5876Z" fill="#AAAAAA"/>
<path id="Vector_13" d="M18.2525 4.88624C18.2559 5.10872 18.2576 5.33119 18.2611 5.55367V5.65039C18.2645 5.77453 18.3194 5.9035 18.4138 5.99217C18.503 6.076 18.6489 6.13887 18.7776 6.13403C18.9064 6.1292 19.0488 6.08728 19.1415 5.99217C19.2342 5.89705 19.2942 5.78098 19.2925 5.65039C19.2891 5.42792 19.2874 5.20545 19.2839 4.98297V4.88624C19.2805 4.76211 19.2256 4.63314 19.1312 4.54447C19.042 4.46064 18.8961 4.39777 18.7674 4.40261C18.6386 4.40744 18.4962 4.44936 18.4035 4.54447C18.3108 4.63959 18.2508 4.75566 18.2525 4.88624Z" fill="#AAAAAA"/>
<path id="Vector_14" d="M5.49546 13.7096C6.68139 13.7096 7.8656 13.7096 9.05153 13.7096C9.53722 13.7096 10.0315 13.7289 10.5172 13.6935C11.0441 13.6548 11.5984 13.5548 11.9932 13.1953C12.3364 12.8842 12.4377 12.4505 12.4394 12.0185C12.4394 11.7396 12.4548 11.4558 12.4377 11.1769C12.3982 10.5514 11.9228 9.98878 11.2569 9.86464C10.9291 9.80338 10.5704 9.8324 10.2392 9.8324C8.82841 9.8324 7.41766 9.8324 6.00862 9.8324C4.92223 9.8324 3.83242 9.80822 2.74775 9.8324C2.72887 9.8324 2.70999 9.8324 2.69111 9.8324C2.41308 9.8324 2.17624 10.0533 2.17624 10.316V12.0926C2.17624 12.7149 3.20599 12.7165 3.20599 12.0926V10.316L2.69111 10.7997C3.54409 10.7997 4.39535 10.7997 5.24832 10.7997H9.5664C9.98345 10.7997 10.3988 10.7997 10.8158 10.7997C10.9651 10.7997 11.0183 10.7868 11.1505 10.84C11.087 10.8142 11.2569 10.9061 11.2209 10.8803C11.2209 10.8803 11.2895 10.9399 11.3135 10.9657C11.353 11.0076 11.3256 10.9802 11.3187 10.9706C11.3341 10.9915 11.3496 11.0157 11.3616 11.0383C11.4028 11.114 11.3461 10.9867 11.3788 11.0673C11.3925 11.1012 11.4028 11.135 11.4096 11.1705C11.4131 11.185 11.4131 11.214 11.4131 11.2672C11.4131 11.3301 11.4131 11.3929 11.4131 11.4558V11.9362C11.4131 11.983 11.4131 12.0313 11.4131 12.0781C11.4131 12.1007 11.4131 12.1249 11.4131 12.1474C11.4131 12.1732 11.4114 12.2006 11.4079 12.2264C11.3994 12.3119 11.4217 12.1684 11.4045 12.2458C11.3925 12.2974 11.3788 12.3489 11.3599 12.3989C11.3891 12.3231 11.3479 12.407 11.3358 12.436C11.3015 12.5085 11.3753 12.4134 11.3153 12.4666C11.2861 12.4924 11.178 12.5746 11.2621 12.5214C11.226 12.544 11.19 12.5666 11.1522 12.5859C11.1333 12.5956 11.1127 12.6053 11.0921 12.6133C11.0235 12.6472 11.1659 12.5908 11.0887 12.6133C10.9789 12.6472 10.8707 12.6746 10.7592 12.6955C10.7334 12.7004 10.7077 12.7036 10.682 12.7084C10.694 12.7068 10.7489 12.7004 10.6871 12.7084C10.6322 12.7149 10.5773 12.7197 10.5223 12.723C10.3885 12.7326 10.2529 12.7359 10.1173 12.7375C10.0624 12.7375 10.0092 12.7375 9.95427 12.7375C9.75175 12.7375 9.54752 12.7375 9.345 12.7375C8.09386 12.7375 6.84443 12.7375 5.59329 12.7375H5.50061C4.83814 12.7375 4.83642 13.7047 5.50061 13.7047L5.49546 13.7096Z" fill="#AAAAAA"/>
</g>
<defs>
<clipPath id="clip0_3264_138300">
<rect width="24" height="17.4545" fill="white"/>
</clipPath>
</defs>
</svg>
