<svg width="24" height="24" viewBox="0 0 24 24" fill="none" xmlns="http://www.w3.org/2000/svg">
<g id="Frame" clip-path="url(#clip0_3264_138501)">
<path id="Vector" d="M2.94084 19.1351C4.02409 19.3518 5.11593 19.1316 6.01004 18.4711C7.27727 17.5336 8.08713 16.099 8.70613 14.6798C9.53662 12.7721 10.1058 10.7423 10.6216 8.72969C11.0377 7.1024 11.4383 5.34781 11.2303 3.66031C11.1254 2.81054 10.864 2.00722 10.3104 1.34151C9.75671 0.675794 8.91762 0.278432 8.0751 0.101253L7.79998 1.09724L7.83437 1.10412L8.10948 0.108134C7.3065 -0.0501232 6.46054 -0.0587241 5.68679 0.233707C4.98182 0.500336 4.36969 0.947583 3.87449 1.51352C2.73794 2.81226 2.11894 4.50836 1.62374 6.13738C1.35723 7.01295 1.13026 7.89884 0.910172 8.78818C0.641939 9.8719 0.380584 10.9556 0.215517 12.06C-0.0148885 13.6081 -0.178236 15.3455 0.384022 16.849C0.600672 17.4287 0.923928 17.9808 1.40193 18.3834C1.87994 18.7859 2.39577 19.0198 2.97694 19.1402L3.25205 18.1443L3.21767 18.1374C2.94427 18.0823 2.66057 18.2165 2.58319 18.4986C2.51269 18.7532 2.66916 19.0783 2.94427 19.1334L2.97866 19.1402C3.25205 19.1953 3.53576 19.0611 3.61314 18.779C3.68364 18.5227 3.52717 18.201 3.25205 18.1443C3.14545 18.1219 3.03884 18.0961 2.93568 18.0651C2.88065 18.0479 2.82391 18.0307 2.76889 18.0101C2.72591 17.9946 2.5488 17.9138 2.70527 17.9877C2.51269 17.8966 2.34247 17.7899 2.16365 17.6764C2.07596 17.6213 2.25478 17.7589 2.1774 17.6867C2.15677 17.6678 2.1327 17.6506 2.11206 17.6316C2.07596 17.6007 2.03985 17.568 2.00546 17.5353C1.91949 17.4527 1.84555 17.3633 1.76646 17.2756C1.69424 17.193 1.83523 17.3753 1.77333 17.2842C1.7613 17.267 1.74926 17.2515 1.73722 17.2343C1.70112 17.1827 1.66673 17.1311 1.63406 17.0777C1.56872 16.9711 1.50854 16.8627 1.45524 16.7492C1.4432 16.7234 1.43288 16.6976 1.41913 16.6718C1.36583 16.5651 1.45867 16.7819 1.41741 16.6683C1.39678 16.6133 1.37442 16.5582 1.35551 16.5032C1.30564 16.3621 1.26266 16.2194 1.22655 16.0732C1.19044 15.9269 1.16121 15.7842 1.13542 15.638C1.13026 15.6121 1.09931 15.3937 1.11651 15.521C1.10447 15.4246 1.09415 15.3283 1.08384 15.232C1.0099 14.4252 1.05461 13.6081 1.14917 12.8048C1.26782 11.7847 1.49822 10.7199 1.74926 9.69988C1.96075 8.84323 2.17052 7.98657 2.40953 7.1368C2.85314 5.55252 3.32255 4.04563 4.25449 2.69701C4.30951 2.61788 4.36453 2.54047 4.423 2.46479C4.35766 2.55079 4.45223 2.42694 4.4591 2.42006C4.48834 2.38394 4.51757 2.34781 4.54852 2.31169C4.67575 2.16203 4.81159 2.01754 4.9543 1.88336C5.01964 1.82316 5.08498 1.76467 5.15376 1.7079C5.1658 1.69758 5.281 1.60813 5.18643 1.68038C5.2277 1.64942 5.26724 1.62018 5.31023 1.59093C5.4581 1.48772 5.61285 1.39483 5.77276 1.3157C5.81059 1.29678 5.85013 1.27958 5.88968 1.26066C5.99801 1.20905 5.82262 1.28302 5.92579 1.24518C6.02208 1.21077 6.11665 1.17465 6.21294 1.14712C6.29719 1.12304 6.38316 1.10068 6.46913 1.08348C6.51384 1.07488 6.55683 1.06628 6.60153 1.0594C6.61529 1.05768 6.76316 1.04047 6.64452 1.05251C6.84913 1.03187 7.05375 1.02327 7.26008 1.03187C7.35981 1.03703 7.46125 1.04391 7.56098 1.05595C7.72777 1.07488 7.46297 1.03531 7.62976 1.06628C7.70026 1.07832 7.77075 1.09036 7.84125 1.10412C8.11464 1.15745 8.39835 1.02671 8.47573 0.742881C8.54622 0.488294 8.38975 0.16318 8.11464 0.108134L8.08025 0.101253C7.80686 0.0462071 7.52315 0.180381 7.44578 0.462492C7.37528 0.718799 7.53175 1.04047 7.80686 1.09724C7.99428 1.1368 8.17998 1.18325 8.36224 1.24518C8.40867 1.26066 8.45509 1.27786 8.50152 1.29506C8.49464 1.29162 8.64079 1.35183 8.57373 1.32258C8.50668 1.29334 8.64595 1.35699 8.64079 1.35355C8.69582 1.37935 8.75084 1.40687 8.80414 1.43612C8.9331 1.50492 9.05518 1.58577 9.17726 1.67006C9.29934 1.75435 9.10504 1.60125 9.20649 1.69414C9.23744 1.72167 9.27011 1.74747 9.30106 1.77671C9.36296 1.83176 9.42142 1.89024 9.47816 1.95045C9.52459 2.00034 9.56757 2.05366 9.61228 2.10527C9.69997 2.20676 9.55898 2.01754 9.63119 2.13107C9.65354 2.16547 9.67762 2.19816 9.69997 2.23256C9.7825 2.35813 9.853 2.49231 9.92006 2.62648C9.92866 2.64368 9.98368 2.7727 9.93553 2.65573C9.95101 2.69529 9.96648 2.73313 9.98196 2.7727C10.006 2.83979 10.0301 2.90687 10.0507 2.97396C10.1023 3.14082 10.1436 3.31284 10.1763 3.48485C10.19 3.55882 10.202 3.63279 10.2124 3.70848C10.1969 3.59667 10.2227 3.80825 10.2261 3.84781C10.2433 4.03875 10.2536 4.23141 10.2554 4.42235C10.2605 4.79735 10.2382 5.17235 10.2003 5.54391C10.178 5.76582 10.1625 5.88107 10.1384 6.04965C10.1058 6.26983 10.0679 6.49001 10.0267 6.70848C9.94929 7.12304 9.85816 7.53589 9.76015 7.94529C9.55382 8.80538 9.3131 9.65515 9.0655 10.5032C8.77319 11.5061 8.47401 12.5055 8.09917 13.4791C7.78279 14.2979 7.41311 15.103 6.9523 15.8599C6.58606 16.4602 6.30063 16.8593 5.77448 17.3444C5.7143 17.3994 5.6524 17.4545 5.5905 17.5061C5.57158 17.5216 5.55267 17.537 5.53376 17.5525C5.4667 17.611 5.61285 17.4975 5.49593 17.5818C5.37901 17.666 5.26037 17.7469 5.13657 17.8191C5.01792 17.8879 4.89756 17.9464 4.77376 18.0032C4.92164 17.9344 4.73594 18.017 4.69295 18.0324C4.62933 18.0548 4.56743 18.0755 4.50209 18.0944C4.38001 18.1288 4.25793 18.1511 4.13413 18.1769C4.0258 18.1993 4.26309 18.1649 4.15304 18.1752C4.12381 18.1769 4.09458 18.1821 4.06363 18.1838C4.00001 18.189 3.93467 18.1941 3.87105 18.1959C3.74725 18.1993 3.62345 18.1959 3.49965 18.1855C3.45323 18.1821 3.25549 18.1443 3.42916 18.1804C3.36038 18.1666 3.28988 18.158 3.2211 18.1443C2.94771 18.0892 2.66401 18.2217 2.58663 18.5055C2.51613 18.7601 2.6726 19.0852 2.94771 19.1402L2.94084 19.1351Z" fill="#AAAAAA"/>
<path id="Vector_2" d="M2.76839 6.59681C3.32549 6.38351 3.89462 6.20117 4.47923 6.0842C5.01226 5.97755 5.56592 5.9311 6.16085 5.96551C7.52093 6.0412 8.86037 6.63294 10.0279 7.39842C10.2617 7.55152 10.5987 7.44486 10.7328 7.21264C10.879 6.96149 10.781 6.66046 10.5471 6.50737C9.52236 5.83649 8.38581 5.28775 7.17532 5.06069C6.1385 4.86459 5.09135 4.89555 4.06313 5.1209C3.52666 5.23787 3.00395 5.40817 2.49156 5.60427C2.23192 5.70404 2.0531 5.95175 2.13047 6.23902C2.19925 6.48844 2.50359 6.70003 2.76495 6.60025L2.76839 6.59681Z" fill="#AAAAAA"/>
<path id="Vector_3" d="M1.38763 10.8011C2.57233 10.4175 3.75874 10.1561 5.00018 10.2042C6.24162 10.2524 7.52948 10.7031 8.54396 11.5202C8.76061 11.6956 9.06151 11.7317 9.273 11.5202C9.45354 11.3395 9.49137 10.9663 9.273 10.7908C8.07455 9.82406 6.66976 9.265 5.13086 9.17899C3.76906 9.1033 2.40382 9.39057 1.11424 9.80685C0.849444 9.89286 0.6775 10.1647 0.753155 10.4416C0.825372 10.7013 1.12112 10.8888 1.38763 10.8028V10.8011Z" fill="#AAAAAA"/>
<path id="Vector_4" d="M10.5109 22.2799C10.437 22.2076 10.3665 22.1337 10.2994 22.0563C10.2668 22.0184 10.2341 21.9771 10.2014 21.9393C10.1791 21.9135 10.1567 21.8636 10.2255 21.972C10.21 21.9462 10.1894 21.9221 10.1722 21.898C10.0536 21.7312 9.96244 21.554 9.86959 21.3716C9.82144 21.277 9.89882 21.4628 9.8799 21.3957C9.87302 21.3716 9.86099 21.3475 9.85239 21.3235C9.83348 21.2753 9.81628 21.2254 9.80081 21.1773C9.76814 21.0775 9.74063 20.9743 9.71827 20.8711C9.70624 20.8177 9.69764 20.7644 9.68732 20.7111C9.66153 20.5735 9.69076 20.7868 9.68045 20.6681C9.67013 20.5494 9.65981 20.429 9.65809 20.3086C9.65809 20.2002 9.65809 20.0918 9.66669 19.9834C9.67013 19.9215 9.67529 19.8579 9.68217 19.7959C9.6856 19.7633 9.68904 19.7323 9.69248 19.7013C9.69764 19.6618 9.69592 19.6755 9.68732 19.7426C9.69076 19.7168 9.69592 19.691 9.69936 19.6652C9.7475 19.3934 9.80768 19.1251 9.8885 18.8602C9.93148 18.7191 9.97791 18.5781 10.0295 18.4404C10.057 18.363 10.0862 18.2873 10.1172 18.2117C10.1292 18.1807 10.143 18.1497 10.155 18.1188C10.1791 18.062 10.1808 18.0568 10.1619 18.1016C10.1722 18.0775 10.1825 18.0534 10.1928 18.0293C10.3407 17.699 10.5006 17.3739 10.676 17.0557C11.5959 15.3871 12.8184 13.9164 14.0358 12.4628C15.1723 11.1073 16.3794 9.67266 17.8581 8.7042C18.1969 8.48229 18.6044 8.26039 18.9173 8.14686C19.0978 8.08149 19.2818 8.02645 19.471 7.9886C19.5036 7.98172 19.538 7.97484 19.5707 7.96968C19.5913 7.96624 19.7254 7.94904 19.6343 7.95936C19.734 7.94904 19.8338 7.94216 19.9352 7.94044C20.0263 7.94044 20.1192 7.94044 20.2103 7.94904C20.2516 7.95248 20.2946 7.95592 20.3358 7.96108C20.2327 7.94732 20.3926 7.97312 20.3977 7.97484C20.5834 8.01096 20.7691 8.06429 20.9428 8.13998C20.8586 8.10385 21.0202 8.17954 21.0167 8.17782C21.0666 8.2019 21.1165 8.22771 21.1646 8.25523C21.2489 8.30168 21.3297 8.35156 21.4105 8.40489C21.6082 8.53562 21.7595 8.66807 21.9384 8.84009C22.4164 9.29938 23.1454 8.57518 22.6674 8.11074L22.6416 8.08665C22.1653 7.62392 21.438 8.34984 21.9126 8.81601C22.4628 9.35787 22.8187 9.94445 22.9391 10.6996C22.9563 10.8063 22.9442 10.7443 22.9425 10.722C22.9494 10.7753 22.9528 10.8286 22.9563 10.882C22.9614 10.9542 22.9632 11.0247 22.9649 11.097C22.9649 11.1864 22.9649 11.2776 22.958 11.367C22.9546 11.4118 22.9511 11.4582 22.9477 11.5029C22.946 11.5219 22.9253 11.6887 22.9356 11.6113C22.8823 11.9811 22.7792 12.3441 22.6502 12.6933C22.0656 14.2845 20.8723 15.7397 19.7581 17.0402C18.4995 18.5092 17.2133 19.9938 15.726 21.2375C15.2153 21.6641 14.6565 22.07 14.041 22.4055C13.9086 22.4777 13.7744 22.5465 13.6369 22.6102C13.6111 22.6222 13.5836 22.6342 13.5578 22.6463C13.5578 22.6463 13.4288 22.7013 13.5028 22.6704C13.5767 22.6394 13.4495 22.691 13.4495 22.691C13.4116 22.7065 13.3738 22.7203 13.336 22.734C13.1004 22.82 12.858 22.8906 12.6104 22.937C12.588 22.9404 12.564 22.9456 12.5416 22.949C12.5192 22.9525 12.4952 22.9559 12.4728 22.9594C12.5485 22.949 12.5657 22.9473 12.5244 22.9525C12.4642 22.9542 12.4023 22.9662 12.3404 22.9697C12.2235 22.9766 12.1049 22.9783 11.9862 22.9714C11.9312 22.968 11.871 22.9542 11.816 22.9576C11.7455 22.9611 11.9501 22.9817 11.8469 22.9628C11.8177 22.9576 11.7868 22.9525 11.7575 22.9473C11.6492 22.9267 11.5443 22.9009 11.4394 22.8665C11.3827 22.8493 11.3294 22.8269 11.2727 22.8063C11.2417 22.7959 11.1901 22.7633 11.3139 22.8252C11.2881 22.8114 11.2606 22.8011 11.2331 22.7891C11.1351 22.7426 11.0405 22.691 10.9477 22.6342C10.8978 22.6033 10.8479 22.5706 10.7981 22.5362C10.7809 22.5242 10.7654 22.5121 10.7499 22.5018C10.6502 22.4313 10.7654 22.519 10.7465 22.5001C10.6605 22.4192 10.566 22.347 10.4817 22.2661C10.0037 21.8051 9.27466 22.531 9.75266 22.9955L9.77845 23.0196C10.2547 23.4823 10.9855 22.7547 10.5075 22.2902L10.4817 22.2661L9.75266 22.9955C10.449 23.6681 11.3621 24.0654 12.3404 24.0035C13.6352 23.9209 14.8199 23.2329 15.8309 22.4657C17.4489 21.2357 18.7987 19.7099 20.1312 18.1859C21.4002 16.7323 22.7087 15.1945 23.4721 13.402C23.8349 12.5523 24.0791 11.6251 23.9707 10.6962C23.8538 9.68126 23.3655 8.80053 22.6416 8.08837L21.9126 8.81773L21.9384 8.84181L22.6674 8.11246C22.0243 7.49491 21.2557 7.04422 20.3599 6.93585C19.5741 6.84124 18.7969 7.05282 18.092 7.38998C17.2873 7.7753 16.5685 8.34296 15.9117 8.93986C15.1827 9.60213 14.5155 10.3298 13.8725 11.0746C12.5227 12.6365 11.1643 14.2363 10.0948 16.0081C9.36751 17.2139 8.72615 18.5643 8.63502 19.992C8.56281 21.1308 8.96516 22.2214 9.78017 23.0213C10.2547 23.4875 10.9855 22.7581 10.5092 22.2919L10.5109 22.2799Z" fill="#AAAAAA"/>
<path id="Vector_5" d="M14.6805 18.4267C14.4174 18.6933 14.144 18.9479 13.8534 19.1853C13.8191 19.2128 13.7847 19.2404 13.7503 19.2679C13.7314 19.2834 13.6884 19.3161 13.7331 19.2816C13.666 19.3333 13.599 19.3814 13.5319 19.4296C13.4029 19.5208 13.2723 19.6085 13.1382 19.6893C13.0195 19.7616 12.8974 19.8287 12.7736 19.8923C12.7117 19.9233 12.6481 19.9525 12.5862 19.9818C12.5621 19.9921 12.4693 20.0299 12.5793 19.9852C12.5553 19.9955 12.5312 20.0058 12.5054 20.0144C12.275 20.1039 12.0377 20.1727 11.7935 20.214C11.527 20.2604 11.3534 20.601 11.4325 20.8487C11.5253 21.136 11.7815 21.2581 12.0669 21.21C13.3772 20.9864 14.5 20.0712 15.4095 19.1544C15.6004 18.9617 15.6159 18.6142 15.4095 18.425C15.2032 18.2358 14.8834 18.2203 14.6805 18.425V18.4267Z" fill="#AAAAAA"/>
<path id="Vector_6" d="M3.98061 15.7706C3.83446 15.1135 3.74161 14.4994 3.75537 13.8199C3.75881 13.6823 3.76568 13.5429 3.77944 13.4053C3.78288 13.3727 3.78632 13.34 3.78976 13.3073C3.79835 13.223 3.77772 13.383 3.78976 13.3004C3.80007 13.2385 3.81039 13.1766 3.82243 13.1146C3.84478 12.9959 3.87401 12.879 3.9084 12.7637C3.92387 12.7087 3.94279 12.6536 3.9617 12.5986C3.97374 12.5659 4.03908 12.3973 3.99265 12.5074C4.10098 12.2511 4.07003 11.9552 3.80695 11.8021C3.5903 11.6748 3.2103 11.7299 3.10198 11.9879C2.5552 13.2815 2.68759 14.7075 2.98506 16.0475C3.04524 16.3193 3.35989 16.4793 3.61953 16.4088C3.8998 16.3314 4.04079 16.0475 3.98061 15.774V15.7706Z" fill="#AAAAAA"/>
<path id="Vector_7" d="M21.2506 15.8136C21.0236 14.8486 20.6918 13.8939 20.1794 13.0407C19.6068 12.0894 18.8227 11.2964 17.908 10.6702C17.2735 10.235 16.5823 9.89789 15.8722 9.60373C15.6143 9.49708 15.3048 9.71899 15.2377 9.96497C15.1569 10.2608 15.3392 10.4931 15.5988 10.5997C16.6373 11.0298 17.6002 11.606 18.3723 12.3853C18.5425 12.5573 18.7024 12.7379 18.8537 12.9254C18.8589 12.9323 18.9139 13.0011 18.8692 12.9443C18.8846 12.965 18.9001 12.9856 18.9156 13.0063C18.9465 13.0475 18.9775 13.0905 19.0067 13.1318C19.0807 13.2368 19.1529 13.3434 19.2199 13.4518C19.3403 13.6444 19.4521 13.844 19.5535 14.047C19.6017 14.145 19.6481 14.2431 19.6928 14.3411C19.7134 14.3876 19.7341 14.4323 19.753 14.4787C19.7203 14.4013 19.7856 14.563 19.796 14.5871C19.9868 15.0739 20.133 15.5762 20.2516 16.0854C20.4046 16.7322 21.3985 16.4587 21.2472 15.8102L21.2506 15.8136Z" fill="#AAAAAA"/>
<path id="Vector_8" d="M18.5562 19.3228C17.9441 17.2379 16.9193 15.2116 15.0623 13.9799C14.4846 13.5963 13.8415 13.3142 13.1795 13.1129C12.5175 12.9117 12.2699 13.9163 12.9044 14.1089C13.9034 14.41 14.7803 14.9329 15.4939 15.6743C16.1541 16.3589 16.6579 17.207 17.0448 18.117C17.0672 18.172 17.0517 18.1359 17.0483 18.1238C17.062 18.1582 17.0775 18.1926 17.0912 18.2288C17.1153 18.289 17.1394 18.3509 17.1635 18.4111C17.2133 18.5418 17.2615 18.6726 17.3079 18.805C17.399 19.0665 17.4833 19.3314 17.5606 19.5963C17.7481 20.2328 18.7436 19.961 18.5562 19.3211V19.3228Z" fill="#AAAAAA"/>
</g>
<defs>
<clipPath id="clip0_3264_138501">
<rect width="24" height="24" fill="white"/>
</clipPath>
</defs>
</svg>
