<svg width="19" height="22" viewBox="0 0 19 22" fill="none" xmlns="http://www.w3.org/2000/svg">
<g id="Frame" clip-path="url(#clip0_3264_137570)">
<path id="Vector" d="M10.284 1.11559C10.2647 0.515606 9.75346 0.149864 9.24224 0.0471279C8.93744 -0.014514 8.65 -0.0165687 8.34326 0.0347995C8.12141 0.0717847 7.88606 0.14781 7.69893 0.283422C7.45972 0.456019 7.27838 0.686149 7.23787 1.00052C7.20122 1.2964 7.30346 1.59639 7.51374 1.79981C7.88992 2.16145 8.45515 2.28473 8.94901 2.22925C9.24031 2.19638 9.5374 2.13473 9.79011 1.96419C10.0756 1.7731 10.2705 1.48544 10.282 1.11764C10.2917 0.79505 10.0081 0.48684 9.7033 0.501223C9.38114 0.515607 9.13614 0.772448 9.12456 1.11764C9.12456 1.12997 9.12456 1.14024 9.12263 1.15257L9.14385 0.988194C9.13999 1.01285 9.13421 1.0334 9.12649 1.056L9.18436 0.90806C9.17086 0.940936 9.11299 1.02312 9.18436 0.926553C9.26539 0.813542 9.16893 0.922443 9.16121 0.938881C9.16314 0.934772 9.28854 0.846418 9.22681 0.883403C9.2133 0.891622 9.20173 0.901896 9.18822 0.910115C9.1535 0.932717 9.11684 0.951209 9.07826 0.967647L9.21716 0.906005C9.10141 0.955319 8.98373 0.988195 8.86027 1.00669L9.0146 0.984085C8.84291 1.00874 8.67122 1.00874 8.49952 0.984085L8.65385 1.00669C8.53039 0.98614 8.41271 0.955319 8.29696 0.906005L8.43586 0.967647C8.40114 0.951209 8.36834 0.934772 8.33555 0.916279C8.32204 0.90806 8.30854 0.899841 8.29696 0.891622C8.25259 0.862856 8.23909 0.815597 8.35291 0.940936C8.33748 0.924498 8.31433 0.891622 8.29504 0.881348C8.30661 0.887513 8.38185 1.02723 8.34712 0.951209C8.34133 0.936826 8.33362 0.924498 8.32783 0.910115L8.3857 1.05806C8.37799 1.03545 8.3722 1.01285 8.36834 0.990249L8.38956 1.15463C8.38763 1.12997 8.38763 1.10737 8.38956 1.08477L8.36834 1.24915C8.3722 1.22449 8.37799 1.20394 8.3857 1.18134L8.32783 1.32928C8.34133 1.2964 8.39921 1.21421 8.32783 1.31079C8.24681 1.4238 8.34326 1.3149 8.35098 1.29846C8.34905 1.30257 8.22366 1.39092 8.28539 1.35394C8.29889 1.34572 8.31047 1.33544 8.32397 1.32723C8.3587 1.30462 8.39535 1.28613 8.43393 1.26969L8.29504 1.33133C8.41078 1.28202 8.52846 1.24915 8.65192 1.23065L8.49759 1.25325C8.66929 1.2286 8.84098 1.2286 9.01267 1.25325L8.85834 1.23065C8.98181 1.2512 9.09948 1.28202 9.21523 1.33133L9.07633 1.26969C9.11106 1.28613 9.14385 1.30257 9.17665 1.32106C9.19015 1.32928 9.20366 1.3375 9.21523 1.34572C9.2596 1.37448 9.2731 1.42174 9.15929 1.2964C9.17472 1.31284 9.19787 1.34572 9.21716 1.35599C9.20558 1.34983 9.13035 1.21011 9.16507 1.28613C9.17086 1.30051 9.17858 1.31284 9.18436 1.32723L9.12649 1.17928C9.13421 1.20189 9.13999 1.22449 9.14385 1.24709L9.12263 1.08271C9.12263 1.09504 9.12456 1.10531 9.12456 1.11764C9.13421 1.44024 9.38306 1.74844 9.7033 1.73406C10.0235 1.71968 10.2936 1.46284 10.282 1.11764L10.284 1.11559Z" fill="#AAAAAA"/>
<path id="Vector_2" d="M13.8895 17.6851H3.27926L3.858 18.3015V7.61691L3.27926 8.23333H13.8895L13.3107 7.61691V18.3015C13.3107 19.0946 14.4682 19.0967 14.4682 18.3015V7.61691C14.4682 7.28404 14.2039 7.00049 13.8895 7.00049H3.27926C2.96674 7.00049 2.70052 7.28199 2.70052 7.61691V18.3015C2.70052 18.6344 2.96481 18.9179 3.27926 18.9179H13.8895C14.6341 18.9179 14.6361 17.6851 13.8895 17.6851Z" fill="#AAAAAA"/>
<path id="Vector_3" d="M6.7517 15.5912V11.4181C6.7517 11.0852 6.48548 10.8016 6.17296 10.8016C5.86044 10.8016 5.59422 11.0831 5.59422 11.4181V15.5912C5.59422 15.9241 5.86044 16.2076 6.17296 16.2076C6.48548 16.2076 6.7517 15.9261 6.7517 15.5912Z" fill="#AAAAAA"/>
<path id="Vector_4" d="M3.37567 5.76751H13.9859C14.7305 5.76751 14.7325 4.53467 13.9859 4.53467H3.37567C2.63102 4.53467 2.62909 5.76751 3.37567 5.76751Z" fill="#AAAAAA"/>
<path id="Vector_5" d="M13.8895 20.767H3.27927C2.53462 20.767 2.5327 21.9998 3.27927 21.9998H13.8895C14.6341 21.9998 14.6361 20.767 13.8895 20.767Z" fill="#AAAAAA"/>
<path id="Vector_6" d="M3.27931 7.00049C2.37841 7.00049 1.47944 7.00049 0.578533 7.00049C0.266014 7.00049 -0.000205994 7.28199 -0.000205994 7.61691C-0.000205994 8.72646 -0.000205994 9.83807 -0.000205994 10.9476C-0.000205994 11.1038 -0.000205994 11.262 -0.000205994 11.4182C-0.000205994 11.7408 0.266014 12.049 0.578533 12.0346C0.891052 12.0202 1.15727 11.7634 1.15727 11.4182C1.15727 10.3086 1.15727 9.197 1.15727 8.08744C1.15727 7.93128 1.15727 7.77307 1.15727 7.61691L0.578533 8.23333C1.47944 8.23333 2.37841 8.23333 3.27931 8.23333C3.58219 8.23333 3.87156 7.94977 3.85805 7.61691C3.84455 7.28404 3.60341 7.00049 3.27931 7.00049Z" fill="#AAAAAA"/>
<path id="Vector_7" d="M3.58029 5.3588C4.41368 4.01089 5.71005 3.03284 7.19355 2.65272C8.67705 2.27259 10.3554 2.53971 11.6961 3.40886C12.4157 3.87528 13.0504 4.51841 13.523 5.25401C13.6986 5.52934 14.0323 5.65262 14.314 5.47592C14.5686 5.3177 14.6979 4.90881 14.5223 4.63348C13.4864 3.02051 11.9141 1.83288 10.1104 1.42399C8.30666 1.0151 6.32737 1.35824 4.74934 2.43903C3.87931 3.0349 3.14817 3.8198 2.581 4.73827C2.40931 5.01566 2.52892 5.42044 2.78935 5.58071C3.071 5.75742 3.4086 5.63824 3.58029 5.3588Z" fill="#AAAAAA"/>
<path id="Vector_8" d="M14.3603 14.0112C15.7126 12.1784 17.0843 10.362 18.4578 8.5477C18.5832 8.38332 18.7086 8.21689 18.832 8.05251C18.9806 7.85526 19.0539 7.62513 18.9517 7.37856C18.8591 7.15459 18.6584 7.00049 18.4231 7.00049H12.6357C11.891 7.00049 11.8891 8.23333 12.6357 8.23333H18.4231L18.0141 7.1813C16.9319 8.60729 15.8554 10.0353 14.7828 11.4695C14.368 12.0243 13.9533 12.5811 13.5424 13.14C13.3495 13.401 13.3032 13.7564 13.5424 14.0112C13.743 14.2249 14.1674 14.2742 14.3603 14.0112Z" fill="#AAAAAA"/>
</g>
<defs>
<clipPath id="clip0_3264_137570">
<rect width="19" height="22" fill="white"/>
</clipPath>
</defs>
</svg>
