<svg width="24" height="19" viewBox="0 0 24 19" fill="none" xmlns="http://www.w3.org/2000/svg">
<g id="Frame" clip-path="url(#clip0_3264_137779)">
<path id="Vector" d="M1.18265 13.6218V2.10462C1.18265 1.99356 1.1807 1.88069 1.18265 1.76963C1.19045 1.3873 1.5008 1.10147 1.91069 1.09418C3.52097 1.06687 5.1332 1.09418 6.74348 1.09418H10.6804C10.9536 1.09418 11.0981 1.09054 11.2854 1.19614C11.5021 1.3163 11.6192 1.52931 11.6231 1.76599C11.6231 1.78966 11.6231 1.81514 11.6231 1.83881C11.6231 2.01177 11.6231 2.18655 11.6231 2.3595V4.56608C11.6231 6.60516 11.6231 8.64241 11.6231 10.6815V13.518C11.6231 13.8057 11.5899 13.9513 11.3674 14.137C11.2445 14.239 11.0825 14.2899 10.8951 14.2936C10.8385 14.2936 10.7838 14.2936 10.7272 14.2936H6.91329C5.25031 14.2936 3.58538 14.3172 1.9224 14.2936C1.5047 14.2881 1.19045 14.0096 1.1807 13.6218C1.16118 12.9208 -0.0099357 12.9172 0.00958284 13.6218C0.0349569 14.563 0.794228 15.3095 1.79943 15.3823C1.96339 15.3932 2.13125 15.3859 2.2952 15.3859H4.91459C6.84693 15.3859 8.77926 15.3859 10.7116 15.3859C11.0981 15.3859 11.4728 15.3404 11.8203 15.1638C12.4351 14.8525 12.7825 14.239 12.7942 13.5981C12.802 13.1466 12.7942 12.6951 12.7942 12.2454C12.7942 10.2391 12.7942 8.2346 12.7942 6.22829C12.7942 4.7627 12.8001 3.29894 12.7942 1.83335C12.7923 0.777398 11.9315 0.00364121 10.8072 0C10.0968 0 9.38434 0 8.67191 0H2.46111C2.27959 0 2.09807 0 1.91459 0C1.09286 0.0163854 0.358965 0.491563 0.10132 1.22891C-0.0489728 1.66403 0.0115347 2.19019 0.0115347 2.63988C0.0115347 4.55151 0.0115347 6.46315 0.0115347 8.37478V13.6218C0.0115347 14.3245 1.18265 14.3263 1.18265 13.6218Z" fill="#AAAAAA"/>
<path id="Vector_2" d="M3.72043 7.3297V3.04581C3.72043 2.34306 2.54932 2.34124 2.54932 3.04581V7.3297C2.54932 8.03245 3.72043 8.03427 3.72043 7.3297Z" fill="#AAAAAA"/>
<path id="Vector_3" d="M11.6254 9.72749C11.6195 9.93322 11.52 10.128 11.3443 10.2555C11.1394 10.4048 10.9247 10.4594 10.6846 10.463C10.5558 10.4648 10.4269 10.463 10.2981 10.463H2.70345C2.51412 10.463 2.32674 10.4648 2.13741 10.463C1.93246 10.4612 1.74313 10.4175 1.57332 10.3228C1.31568 10.179 1.19076 9.96417 1.1849 9.72749C1.16539 9.02656 -0.00572745 9.02292 0.0137911 9.72749C0.0372133 10.5704 0.679373 11.2787 1.55185 11.4862C1.82121 11.5499 2.09056 11.5536 2.36578 11.5536H10.2786C10.4855 11.5536 10.6963 11.5627 10.9032 11.5408C11.926 11.437 12.7731 10.7143 12.8004 9.72567C12.8199 9.02292 11.6488 9.02292 11.6293 9.72567L11.6254 9.72749Z" fill="#AAAAAA"/>
<path id="Vector_4" d="M12.2109 2.18668H15.8062C15.9506 2.18668 16.099 2.17939 16.2434 2.18668C16.3957 2.19578 16.5577 2.26314 16.6845 2.38148C16.8309 2.51803 16.8914 2.66368 16.8953 2.85666C16.8992 3.00231 16.8953 3.14978 16.8953 3.29543V10.536C16.8953 12.6315 16.9032 14.727 16.8953 16.8207C16.8953 16.9208 16.8895 17.0046 16.8758 17.0556C16.786 17.3669 16.5089 17.5617 16.1732 17.5671C15.896 17.5726 15.6208 17.5671 15.3436 17.5671H7.43081C7.34688 17.5671 7.26295 17.5671 7.17902 17.5671C6.86672 17.5617 6.58175 17.3796 6.49196 17.112C6.45488 17.0046 6.45488 16.9627 6.45488 16.8334C6.45488 16.7224 6.45488 16.6132 6.45488 16.5021V14.8344C6.45488 14.1317 5.28377 14.1298 5.28377 14.8344V16.5713C5.28377 16.8808 5.27596 17.1903 5.39502 17.4852C5.62924 18.0605 6.1582 18.5193 6.81987 18.6249C7.16145 18.6795 7.51864 18.6577 7.86412 18.6577H15.9448C16.0209 18.6577 16.099 18.6577 16.1751 18.6577C16.829 18.6449 17.4282 18.3427 17.7815 17.8257C18.207 17.2012 18.0665 16.26 18.0665 15.5517V3.6996C18.0665 3.43925 18.0665 3.17891 18.0665 2.91856C18.0626 2.09383 17.4907 1.31097 16.5948 1.13619C16.056 1.03241 15.4549 1.09249 14.9103 1.09249H12.2109C11.4575 1.09249 11.4555 2.18486 12.2109 2.18486V2.18668Z" fill="#AAAAAA"/>
<path id="Vector_5" d="M16.7979 12.817C16.7882 13.2284 16.4466 13.6035 16.0269 13.649C15.824 13.6727 15.6073 13.6545 15.4043 13.6545H12.2111C11.4577 13.6545 11.4557 14.7468 12.2111 14.7468H15.5019C15.8279 14.7468 16.1558 14.7577 16.4739 14.6685C17.3581 14.4227 17.9476 13.669 17.9671 12.8152C17.9847 12.1124 16.8135 12.1124 16.796 12.8152L16.7979 12.817Z" fill="#AAAAAA"/>
<path id="Vector_6" d="M17.8715 3.72872H23.4343C24.1877 3.72872 24.1897 2.63635 23.4343 2.63635H17.8715C17.1181 2.63635 17.1161 3.72872 17.8715 3.72872Z" fill="#AAAAAA"/>
<path id="Vector_7" d="M17.8715 6.64168H23.4343C24.1877 6.64168 24.1897 5.54932 23.4343 5.54932H17.8715C17.1181 5.54932 17.1161 6.64168 17.8715 6.64168Z" fill="#AAAAAA"/>
</g>
<defs>
<clipPath id="clip0_3264_137779">
<rect width="24" height="18.6667" fill="white"/>
</clipPath>
</defs>
</svg>
