<svg width="22" height="20" viewBox="0 0 22 20" fill="none" xmlns="http://www.w3.org/2000/svg">
<g id="Frame" clip-path="url(#clip0_3264_138495)">
<path id="Vector" d="M19.4637 13.7409H2.74467C2.44222 13.7409 2.24792 13.7464 1.95647 13.6221C1.44139 13.4027 1.10778 12.8525 1.10595 12.262C1.10595 11.9731 1.10595 11.6861 1.10595 11.3973C1.10595 10.1541 1.10595 8.91284 1.10595 7.66971C1.10595 6.42658 1.10595 5.07925 1.10595 3.7831V2.69719C1.10595 2.64051 1.10595 2.58567 1.10595 2.529C1.11145 2.15606 1.24526 1.80323 1.50555 1.53815C1.81899 1.2164 2.18377 1.09757 2.63836 1.09757H14.4357C16.1038 1.09757 17.7737 1.08112 19.4436 1.09757C19.4509 1.09757 19.4582 1.09757 19.4674 1.09757C19.6489 1.0994 19.8945 1.14693 20.032 1.20908C20.2446 1.30415 20.3546 1.38641 20.503 1.53815C20.6277 1.66612 20.7523 1.85807 20.8055 2.00249C20.9173 2.30596 20.9026 2.54911 20.9026 2.88914V6.13042C20.9026 8.1889 20.932 10.251 20.9026 12.3095C20.8916 13.1011 20.2629 13.73 19.4674 13.7409C18.7598 13.7519 18.758 14.8488 19.4674 14.8378C20.6204 14.8195 21.678 14.0316 21.9346 12.8909C22.0098 12.5581 22.0025 12.2273 22.0025 11.8909C22.0025 10.7556 22.0025 9.62033 22.0025 8.48506C22.0025 7.10116 22.0025 5.71544 22.0025 4.33154V2.92753C22.0025 2.57653 22.0098 2.23101 21.92 1.88732C21.6304 0.779473 20.5984 0.0153126 19.4637 -0.00114062C19.3409 -0.00114062 19.2163 -0.00114062 19.0916 -0.00114062H8.23459C6.3649 -0.00114062 4.49521 -0.00296876 2.62369 -0.00114062C1.15544 0.00434378 0.00796237 1.13047 0.00429631 2.60029C0.000630258 3.50339 0.00429631 4.40832 0.00429631 5.31142C0.00429631 7.62401 -0.0030358 9.9366 0.00429631 12.2474C0.00612934 13.092 0.378234 13.8561 1.06012 14.3607C1.51838 14.7007 2.07378 14.8397 2.63836 14.8397H12.7053C14.8427 14.8397 16.9818 14.8397 19.1191 14.8397H19.4619C20.1694 14.8397 20.1713 13.7428 19.4619 13.7428L19.4637 13.7409Z" fill="#AAAAAA"/>
<path id="Vector_2" d="M9.15229 10.6342H3.79435C3.0868 10.6342 3.08497 11.731 3.79435 11.731H9.15229C9.85984 11.731 9.86167 10.6342 9.15229 10.6342Z" fill="#AAAAAA"/>
<path id="Vector_3" d="M9.62162 4.02352H18.3652C19.0727 4.02352 19.0745 2.92664 18.3652 2.92664H9.62162C8.91407 2.92664 8.91224 4.02352 9.62162 4.02352Z" fill="#AAAAAA"/>
<path id="Vector_4" d="M4.17735 19.5499H17.8242C18.5318 19.5499 18.5336 18.453 17.8242 18.453H4.17735C3.4698 18.453 3.46796 19.5499 4.17735 19.5499Z" fill="#AAAAAA"/>
<path id="Vector_5" d="M12.1421 18.4531H10.0836C10.0194 18.4531 9.95343 18.4531 9.88927 18.4531C9.79029 18.4531 9.74813 18.4476 9.67114 18.4019C9.52816 18.3178 9.48601 18.2155 9.48417 18.0199C9.48417 17.8389 9.48417 17.6579 9.48417 17.4769V15.7749C9.48417 15.6031 9.48417 15.4294 9.48417 15.2575C9.48601 15.0638 9.53183 14.9449 9.72247 14.8608C9.75546 14.8462 9.81045 14.8389 9.88927 14.8389C9.95893 14.8389 10.0286 14.8389 10.0982 14.8389H10.8883C11.3044 14.8389 11.726 14.8206 12.1439 14.8389C12.3529 14.848 12.5215 15.0016 12.5197 15.2191C12.5197 15.3526 12.5197 15.4861 12.5197 15.6195V17.497C12.5197 17.6835 12.5197 17.8699 12.5197 18.0546C12.5197 18.1533 12.5123 18.1917 12.4683 18.2666C12.3969 18.3891 12.2814 18.4476 12.1439 18.4531C11.4382 18.4769 11.4345 19.5738 12.1439 19.55C12.7671 19.5299 13.3042 19.1697 13.5278 18.5829C13.614 18.3581 13.6195 18.1222 13.6195 17.8864V16.093C13.6195 15.5628 13.6983 14.9468 13.4178 14.4696C13.1374 13.9925 12.6608 13.7548 12.1384 13.7402C11.9423 13.7347 11.7461 13.7402 11.5518 13.7402C10.9983 13.7402 10.4447 13.7329 9.8911 13.7402C9.01858 13.7512 8.38985 14.4276 8.38619 15.285C8.38436 15.8352 8.38619 16.3855 8.38619 16.9376C8.38619 17.4093 8.3202 17.9431 8.42468 18.4092C8.56949 19.0509 9.14873 19.5098 9.79945 19.5463C10.0029 19.5573 10.2101 19.5482 10.4135 19.5482H12.1439C12.8514 19.5482 12.8533 18.4513 12.1439 18.4513L12.1421 18.4531Z" fill="#AAAAAA"/>
</g>
<defs>
<clipPath id="clip0_3264_138495">
<rect width="22" height="19.5556" fill="white"/>
</clipPath>
</defs>
</svg>
