<svg width="22" height="22" viewBox="0 0 22 22" fill="none" xmlns="http://www.w3.org/2000/svg">
<g id="Frame" clip-path="url(#clip0_3264_138267)">
<path id="Vector" d="M10.2931 16.2682C10.2931 17.7631 10.2931 19.258 10.2931 20.7529V21.3881C10.2931 22.2055 11.5115 22.2076 11.5115 21.3881C11.5115 19.8932 11.5115 18.3983 11.5115 16.9034V16.2682C11.5115 15.4509 10.2931 15.4488 10.2931 16.2682Z" fill="#AAAAAA"/>
<path id="Vector_2" d="M12.6506 15.5843C12.6283 14.894 12.0049 14.4917 11.4119 14.3774C10.819 14.263 10.0656 14.2863 9.53764 14.6569C9.26553 14.8495 9.05434 15.1079 9.00967 15.4551C8.96499 15.8024 9.08886 16.1179 9.32645 16.3423C9.78334 16.7722 10.4758 16.9077 11.0728 16.842C11.7612 16.7658 12.6222 16.4376 12.6506 15.5843C12.6608 15.2518 12.3623 14.9342 12.0414 14.9491C11.7023 14.9639 11.4444 15.2286 11.4322 15.5843C11.4302 15.6732 11.4485 15.4699 11.4464 15.4826C11.4464 15.4953 11.4404 15.5123 11.4343 15.525C11.4302 15.5335 11.5033 15.3535 11.4688 15.4361C11.4647 15.4424 11.4485 15.4763 11.4444 15.4763C11.4322 15.4805 11.5622 15.3429 11.4931 15.4064C11.483 15.4149 11.4749 15.4255 11.4667 15.4339C11.4505 15.453 11.3957 15.4953 11.4769 15.4297C11.5642 15.3598 11.4911 15.417 11.4688 15.4297C11.4343 15.453 11.3977 15.4699 11.3612 15.4911C11.3145 15.5165 11.2941 15.4911 11.416 15.4678C11.3957 15.4721 11.3713 15.4869 11.351 15.4932C11.2576 15.5271 11.1622 15.5483 11.0647 15.5695C10.955 15.5949 11.1012 15.5568 11.1094 15.5652C11.1053 15.561 11.0261 15.5737 11.0281 15.5737C10.9733 15.5779 10.9164 15.5822 10.8616 15.5822C10.8129 15.5822 10.7621 15.5822 10.7134 15.5822C10.689 15.5822 10.5428 15.5525 10.5286 15.5673C10.5367 15.561 10.6829 15.597 10.5733 15.5716C10.5489 15.5652 10.5225 15.561 10.4981 15.5568C10.4555 15.5483 10.4149 15.5356 10.3722 15.5229C10.3276 15.5102 10.2829 15.4932 10.2402 15.4763C10.1671 15.4509 10.358 15.5419 10.2951 15.4996C10.2727 15.4848 10.2484 15.4763 10.226 15.4636C10.2077 15.453 10.1326 15.4191 10.1265 15.3979C10.1245 15.3895 10.2504 15.5144 10.1854 15.4445C10.1773 15.4361 10.1671 15.4255 10.157 15.417C10.1367 15.4001 10.0981 15.3429 10.1651 15.4339C10.2321 15.525 10.1915 15.4721 10.1793 15.4488C10.1651 15.4234 10.1428 15.3683 10.1854 15.4721C10.2321 15.5843 10.1996 15.5102 10.1956 15.4848C10.1956 15.4742 10.2138 15.6774 10.2098 15.5864C10.2098 15.5356 10.2402 15.4784 10.1956 15.688C10.1976 15.6774 10.2017 15.6669 10.2037 15.6563C10.224 15.5906 10.1265 15.8003 10.1671 15.7452C10.1753 15.7325 10.1854 15.7177 10.1915 15.705C10.2199 15.6436 10.0879 15.8172 10.1407 15.7748C10.1509 15.7664 10.159 15.7558 10.1671 15.7473C10.2159 15.6986 10.2524 15.7071 10.1265 15.7748C10.161 15.7558 10.1915 15.7304 10.226 15.7092C10.2484 15.6965 10.3702 15.6415 10.2687 15.6838C10.1671 15.7261 10.3194 15.6669 10.3397 15.6605C10.3925 15.6436 10.4453 15.6287 10.5002 15.616C10.5286 15.6097 10.6707 15.5885 10.5733 15.5991C10.4677 15.6118 10.6525 15.5927 10.6748 15.5906C10.7946 15.5822 10.9144 15.5843 11.0322 15.5949C11.0525 15.5949 11.0728 15.5991 11.0931 15.6012C11.1723 15.6076 10.9571 15.5758 11.0687 15.6012C11.1297 15.6139 11.1926 15.6266 11.2515 15.6436C11.2962 15.6563 11.3408 15.6732 11.3855 15.688C11.4789 15.7198 11.3408 15.669 11.3327 15.6626C11.351 15.6774 11.3835 15.688 11.4038 15.6986C11.4424 15.7198 11.4769 15.7494 11.5175 15.7706C11.3876 15.7007 11.4221 15.688 11.4586 15.724C11.4728 15.7389 11.4891 15.7558 11.5033 15.7706C11.5541 15.8172 11.4241 15.6393 11.4525 15.7007C11.4525 15.7029 11.483 15.7516 11.481 15.7516C11.4769 15.7516 11.42 15.5864 11.4424 15.6626C11.4708 15.7537 11.4282 15.4805 11.4322 15.5822C11.4424 15.9146 11.7043 16.2322 12.0414 16.2174C12.3785 16.2026 12.6628 15.9379 12.6506 15.5822V15.5843Z" fill="#AAAAAA"/>
<path id="Vector_3" d="M10.8393 9.86927C9.4016 9.87563 7.77506 10.2779 6.75567 11.4086C6.53636 11.65 6.50793 12.0693 6.75567 12.3064C7.00341 12.5436 7.38314 12.5648 7.61667 12.3064C7.70398 12.209 7.79942 12.118 7.89689 12.0312C7.92126 12.01 8.01264 11.9465 7.90299 12.0248C7.92938 12.0058 7.95578 11.9846 7.98015 11.9655C8.03295 11.9274 8.08778 11.8893 8.14463 11.8533C8.2685 11.7728 8.3944 11.7008 8.52639 11.6352C8.56701 11.614 8.60559 11.595 8.6462 11.5759C8.69494 11.5526 8.70509 11.5484 8.64823 11.5738C8.7254 11.5399 8.80256 11.5103 8.87973 11.4806C9.19041 11.3642 9.51329 11.2795 9.83819 11.2202C9.8788 11.2138 9.91942 11.2054 9.958 11.199C9.96815 11.199 10.0839 11.18 10.0291 11.1884C9.96409 11.1969 10.1205 11.1778 10.1347 11.1778C10.1773 11.1736 10.2179 11.1694 10.2606 11.1651C10.4535 11.1482 10.6464 11.1418 10.8393 11.1397C11.1581 11.1397 11.4627 10.8496 11.4485 10.5045C11.4343 10.1594 11.1804 9.86716 10.8393 9.86927Z" fill="#AAAAAA"/>
<path id="Vector_4" d="M14.8868 11.3684C13.8572 10.2716 12.2672 9.87561 10.8397 9.86926C10.5209 9.86926 10.2163 10.1615 10.2305 10.5045C10.2447 10.8475 10.4986 11.1376 10.8397 11.1397C11.0184 11.1397 11.1991 11.1461 11.3778 11.1609C11.4712 11.1694 11.5626 11.1778 11.654 11.1884C11.6946 11.1927 11.7393 11.2011 11.6723 11.1905C11.7129 11.1969 11.7515 11.2032 11.7921 11.2096C12.1231 11.2668 12.45 11.3515 12.7668 11.4679C12.8358 11.4933 12.9028 11.523 12.9698 11.5463C13.0592 11.578 12.8886 11.506 12.9719 11.5463C13.0125 11.5653 13.0511 11.5823 13.0917 11.6034C13.2216 11.667 13.3496 11.7368 13.4734 11.8152C13.5283 11.8491 13.5851 11.8872 13.6379 11.9232C13.6724 11.9465 13.8349 12.0735 13.7252 11.9824C13.8308 12.0693 13.9303 12.1645 14.0258 12.2641C14.2491 12.5012 14.6654 12.516 14.8868 12.2641C15.1081 12.0121 15.1244 11.6204 14.8868 11.3663V11.3684Z" fill="#AAAAAA"/>
<path id="Vector_5" d="M18.111 7.43015C16.1473 5.80397 13.5705 5.18145 11.1012 5.17298C10.3174 5.17086 10.3153 6.44131 11.1012 6.44343C12.2993 6.44766 13.4872 6.60859 14.6345 6.97278C15.1341 7.13159 15.595 7.31581 16.056 7.55719C16.2793 7.67365 16.4986 7.80069 16.7098 7.94044C16.8926 8.05902 17.1383 8.239 17.25 8.33005C17.5079 8.54391 17.8612 8.59261 18.111 8.33005C18.3222 8.10984 18.3709 7.64612 18.111 7.43226V7.43015Z" fill="#AAAAAA"/>
<path id="Vector_6" d="M17.6806 8.5141C18.4644 8.5141 18.4664 7.24365 17.6806 7.24365C16.8947 7.24365 16.8947 8.5141 17.6806 8.5141Z" fill="#AAAAAA"/>
<path id="Vector_7" d="M11.1014 5.17298C8.5672 5.18145 5.85832 5.83573 3.90078 7.59742C3.65101 7.82187 3.67944 8.26653 3.90078 8.49521C4.14852 8.75353 4.512 8.71965 4.76177 8.49521C5.48062 7.84939 6.46751 7.33698 7.42192 7.01937C8.6139 6.62129 9.8526 6.44766 11.1014 6.44343C11.8853 6.44131 11.8873 5.17086 11.1014 5.17298Z" fill="#AAAAAA"/>
<path id="Vector_8" d="M21.6973 3.07026C19.3864 1.38479 16.5841 0.527238 13.8103 0.171511C12.9107 0.0550529 12.007 0 11.0993 0C10.3155 0 10.3135 1.26833 11.0993 1.27045C13.8955 1.2768 16.775 1.79346 19.291 3.07238C19.9144 3.38787 20.5134 3.75207 21.082 4.16708C21.3521 4.364 21.7582 4.2179 21.9146 3.9384C22.0933 3.62079 21.9674 3.26718 21.6952 3.07026H21.6973Z" fill="#AAAAAA"/>
<path id="Vector_9" d="M11.1004 0C8.04018 0.00635226 4.92923 0.605582 2.17771 2.03484C1.52181 2.37575 0.892314 2.76959 0.301397 3.22271C0.0374129 3.42599 -0.094579 3.77324 0.0820871 4.09086C0.234385 4.364 0.648637 4.52281 0.914651 4.31954C3.08135 2.66371 5.74352 1.77863 8.39554 1.44196C9.29309 1.32762 10.1967 1.27469 11.1004 1.27257C11.8862 1.26833 11.8862 0 11.1004 0Z" fill="#AAAAAA"/>
</g>
<defs>
<clipPath id="clip0_3264_138267">
<rect width="22" height="22" fill="white"/>
</clipPath>
</defs>
</svg>
