<svg width="32" height="23" viewBox="0 0 32 23" fill="none" xmlns="http://www.w3.org/2000/svg">
<path d="M29.7208 4.22667C29.5624 3.59388 29.2398 3.0141 28.7856 2.54587C28.3315 2.07765 27.7618 1.73758 27.1341 1.56C24.8408 1 15.6674 1 15.6674 1C15.6674 1 6.4941 1 4.20076 1.61333C3.57309 1.79091 3.0034 2.13099 2.54922 2.59921C2.09505 3.06743 1.77248 3.64721 1.6141 4.28C1.19438 6.60741 0.989077 8.96841 1.00076 11.3333C0.985801 13.7161 1.19112 16.0951 1.6141 18.44C1.78871 19.0531 2.1185 19.6109 2.57162 20.0593C3.02474 20.5077 3.58586 20.8317 4.20076 21C6.4941 21.6133 15.6674 21.6133 15.6674 21.6133C15.6674 21.6133 24.8408 21.6133 27.1341 21C27.7618 20.8224 28.3315 20.4823 28.7856 20.0141C29.2398 19.5459 29.5624 18.9661 29.7208 18.3333C30.1372 16.0235 30.3425 13.6804 30.3341 11.3333C30.3491 8.95061 30.1437 6.5716 29.7208 4.22667Z" stroke="#233038" stroke-width="2" stroke-linecap="round" stroke-linejoin="round"/>
<path d="M12.668 15.6927L20.3346 11.3327L12.668 6.97266V15.6927Z" stroke="#233038" stroke-width="2" stroke-linecap="round" stroke-linejoin="round"/>
</svg>
