<svg width="25" height="24" viewBox="0 0 25 24" fill="none" xmlns="http://www.w3.org/2000/svg">
<g id="Letter">
<path id="mark_as_unread" d="M4.05842 17.2365C3.62685 17.1858 3.25922 17.0018 2.95553 16.6844C2.65184 16.3669 2.5 15.9935 2.5 15.5639V7.80507C2.5 7.59599 2.56028 7.39578 2.68083 7.20445C2.80137 7.01311 2.97152 6.86105 3.1913 6.74826L11.0714 3L18.7957 6.74826C18.9769 6.8281 19.1261 6.95925 19.2433 7.14171C19.3605 7.32418 19.4417 7.51489 19.487 7.71384H17.3772L11.0714 4.67262L4.05842 7.98372V17.2365ZM7.75477 21C7.22995 21 6.78573 20.827 6.42211 20.4811C6.05848 20.1352 5.87666 19.7126 5.87666 19.2133V10.9261C5.87666 10.4269 6.05848 10.0043 6.42211 9.65832C6.78573 9.31238 7.22995 9.13941 7.75477 9.13941H20.6219C21.1467 9.13941 21.5909 9.31238 21.9545 9.65832C22.3182 10.0043 22.5 10.4269 22.5 10.9261V19.2133C22.5 19.7126 22.3182 20.1352 21.9545 20.4811C21.5909 20.827 21.1467 21 20.6219 21H7.75477ZM14.1883 15.4536L7.43505 12.1425V19.2133C7.43505 19.302 7.46503 19.3749 7.52497 19.4319C7.58492 19.4889 7.66152 19.5174 7.75477 19.5174H20.6219C20.7151 19.5174 20.7917 19.4889 20.8517 19.4319C20.9116 19.3749 20.9416 19.302 20.9416 19.2133V12.1425L14.1883 15.4536ZM14.1883 13.9331L20.8217 10.679C20.7884 10.66 20.7568 10.6457 20.7268 10.6362C20.6968 10.6267 20.6619 10.622 20.6219 10.622H7.75477C7.72147 10.622 7.68817 10.6267 7.65487 10.6362C7.62155 10.6457 7.58825 10.66 7.55495 10.679L14.1883 13.9331ZM20.9416 12.1425C20.9416 11.8587 20.9299 11.61 20.9066 11.3965C20.8833 11.183 20.855 10.9438 20.8217 10.679C20.7884 10.66 20.7568 10.6457 20.7268 10.6362C20.6968 10.6267 20.6619 10.622 20.6219 10.622H7.75477C7.72147 10.622 7.68817 10.6267 7.65487 10.6362C7.62155 10.6457 7.58825 10.66 7.55495 10.679C7.52165 10.9438 7.49335 11.183 7.47004 11.3965C7.44671 11.61 7.43505 11.8587 7.43505 12.1425V10.622H20.9416V12.1425Z" fill="#233038" fill-opacity="0.8"/>
</g>
</svg>
