<svg width="24" height="24" viewBox="0 0 24 24" fill="none" xmlns="http://www.w3.org/2000/svg">
<g id="call centre">
<path id="phone_in_talk" d="M19.4136 11.8792C19.3526 9.87112 18.6139 8.16608 17.1977 6.76406C15.7814 5.36205 14.059 4.63083 12.0305 4.57042V3C13.2644 3.02684 14.4197 3.27717 15.4963 3.751C16.5729 4.22483 17.5132 4.85973 18.3173 5.6557C19.1214 6.45167 19.7627 7.38254 20.2414 8.44832C20.72 9.51408 20.9729 10.6577 21 11.8792H19.4136ZM15.1831 11.8792C15.1221 11.0402 14.7932 10.3238 14.1966 9.72985C13.6 9.13588 12.878 8.81205 12.0305 8.75836V7.18793C13.3173 7.24163 14.4135 7.71847 15.3193 8.61845C16.2251 9.51846 16.7084 10.6054 16.7695 11.8792H15.1831ZM19.8285 21C17.7715 21 15.7346 20.5168 13.7176 19.5503C11.7007 18.5839 9.90001 17.3164 8.31561 15.748C6.73119 14.1795 5.44915 12.3986 4.4695 10.4054C3.48983 8.41208 3 6.39732 3 4.36108C3 4.04698 3.10576 3.78524 3.31729 3.57584C3.52882 3.36644 3.79322 3.26175 4.11051 3.26175H7.55996C7.83386 3.26175 8.07285 3.3453 8.27692 3.51242C8.48098 3.67954 8.60742 3.89531 8.65624 4.15974L9.26235 7.24026C9.30437 7.49797 9.29996 7.7322 9.24913 7.94294C9.19827 8.15368 9.08674 8.33757 8.91454 8.49462L6.48199 10.8483C7.31726 12.2524 8.3132 13.5208 9.46983 14.6537C10.6264 15.7866 11.9356 16.7745 13.3973 17.6175L15.7607 15.2376C15.9329 15.0671 16.1366 14.946 16.3719 14.8742C16.6071 14.8024 16.8482 14.7873 17.0949 14.8289L20.0318 15.4208C20.299 15.4799 20.5169 15.6078 20.6858 15.8044C20.8546 16.001 20.939 16.2349 20.939 16.5061V19.9007C20.939 20.2148 20.8332 20.4765 20.6217 20.6859C20.4102 20.8953 20.1458 21 19.8285 21ZM5.72134 9.36244L7.60882 7.57451C7.64271 7.54765 7.66475 7.51074 7.67492 7.46376C7.68509 7.41677 7.68339 7.37315 7.66982 7.33289L7.21017 4.99327C7.1966 4.93958 7.17286 4.89932 7.13896 4.87248C7.10507 4.84562 7.061 4.83219 7.00676 4.83219H4.74507C4.70438 4.83219 4.67048 4.84562 4.64335 4.87248C4.61624 4.89932 4.60268 4.93287 4.60268 4.97315C4.6569 5.68858 4.77521 6.41543 4.9576 7.1537C5.13997 7.89196 5.39455 8.62821 5.72134 9.36244ZM14.882 18.3503C15.583 18.6738 16.3142 18.9212 17.0756 19.0923C17.837 19.2634 18.5485 19.3651 19.2102 19.3973C19.2509 19.3973 19.2848 19.3839 19.3119 19.3571C19.339 19.3302 19.3526 19.2967 19.3526 19.2564V17.0537C19.3526 17 19.339 16.9564 19.3119 16.9228C19.2848 16.8893 19.2441 16.8658 19.1898 16.8524L16.9688 16.4054C16.9282 16.3919 16.8926 16.3903 16.862 16.4003C16.8315 16.4104 16.7993 16.4322 16.7654 16.4658L14.882 18.3503Z" fill="#233038" fill-opacity="0.8"/>
</g>
</svg>
