<svg width="21" height="20" viewBox="0 0 21 20" fill="none" xmlns="http://www.w3.org/2000/svg">
<g id="Group 55759">
<path id="Vector" d="M20.4151 8.43689C20.0753 5.84993 18.7243 3.55175 16.6129 1.96548C14.5115 0.389238 11.9349 -0.272542 9.36035 0.102467C6.28421 0.547664 3.66311 2.35051 2.16448 5.04777C0.694155 7.69088 0.556629 10.7772 1.78223 13.5146C2.19481 14.435 2.20897 15.167 1.83077 16.1296C1.5274 16.9017 1.27055 17.6818 0.999545 18.508C0.880221 18.873 0.756851 19.244 0.627414 19.625L0.5 20L0.88022 19.8797C1.33123 19.7373 1.77617 19.5989 2.21301 19.4626C3.37592 19.0996 4.47411 18.7547 5.58039 18.3917C5.92623 18.2774 6.20533 18.3014 6.5451 18.4699C8.15497 19.274 9.95293 19.5668 11.8925 19.3362C14.5176 19.0254 16.8454 17.7279 18.4472 15.6844C20.0591 13.6289 20.7569 11.0539 20.413 8.43489L20.4151 8.43689ZM3.67525 16.639C3.82288 16.1757 3.97457 15.6984 4.15659 15.2452C4.39119 14.6616 4.34872 14.1924 4.01299 13.6248C2.71458 11.433 2.56492 8.85401 3.60041 6.54981C4.644 4.22957 6.69881 2.60721 9.23698 2.09583C11.3444 1.67269 13.5691 2.17404 15.3407 3.46953C17.1427 4.78908 18.2996 6.79247 18.516 8.96631C18.7405 11.2144 17.9436 13.4524 16.3338 15.1068C14.7178 16.7673 12.5093 17.5995 10.1188 17.4511C9.00238 17.381 7.94059 17.0541 6.96173 16.4745C6.7069 16.3241 6.46016 16.2499 6.20128 16.2499C6.02331 16.2499 5.83724 16.286 5.64107 16.3562C5.10714 16.5467 4.55501 16.7192 4.02108 16.8836C3.86536 16.9317 3.70963 16.9799 3.5539 17.03C3.59637 16.8997 3.63682 16.7693 3.67929 16.639H3.67525Z" fill="#64A4FF"/>
<path id="Vector_2" d="M12.9434 14.4271C12.4216 14.2306 11.5378 13.9739 10.7227 13.5788C8.60724 12.5561 7.24815 10.7953 6.26929 8.74383C5.65244 7.45235 5.95176 6.18896 6.90838 5.34869C7.49085 4.83732 8.33623 5.03786 8.60319 5.75178C8.76499 6.18494 8.89038 6.63816 9.09667 7.04927C9.34139 7.53658 9.19982 7.89555 8.86409 8.25852C8.28769 8.88421 8.29376 8.89223 8.75488 9.61417C9.46678 10.7312 10.4355 11.5514 11.651 12.0989C11.9342 12.2272 12.1445 12.1751 12.3346 11.9625C12.5652 11.7058 12.7957 11.4491 13.0142 11.1824C13.182 10.9758 13.362 10.9277 13.6047 11.0561C14.1488 11.3448 14.6928 11.6376 15.251 11.8983C15.702 12.1089 15.7546 12.4358 15.6373 12.8589C15.3744 13.8135 14.4744 14.4271 12.9434 14.4271Z" fill="#64A4FF"/>
</g>
</svg>
