<svg width="15" height="19" viewBox="0 0 15 19" fill="none" xmlns="http://www.w3.org/2000/svg">
<path d="M7.5 9.375L6.625 7.4375L4.6875 6.5625L6.625 5.6875L7.5 3.75L8.375 5.6875L10.3125 6.5625L8.375 7.4375L7.5 9.375Z" fill="#2D2D25"/>
<path d="M7.5 16.2656C9.40625 14.5156 10.8203 12.9256 11.7422 11.4956C12.6641 10.0662 13.125 8.79688 13.125 7.6875C13.125 5.98438 12.5819 4.58969 11.4956 3.50344C10.41 2.41781 9.07812 1.875 7.5 1.875C5.92188 1.875 4.58969 2.41781 3.50344 3.50344C2.41781 4.58969 1.875 5.98438 1.875 7.6875C1.875 8.79688 2.33594 10.0662 3.25781 11.4956C4.17969 12.9256 5.59375 14.5156 7.5 16.2656ZM7.5 18.75C4.98438 16.6094 3.10562 14.6209 1.86375 12.7847C0.62125 10.9491 0 9.25 0 7.6875C0 5.34375 0.754063 3.47656 2.26219 2.08594C3.76969 0.695312 5.51562 0 7.5 0C9.48438 0 11.2303 0.695312 12.7378 2.08594C14.2459 3.47656 15 5.34375 15 7.6875C15 9.25 14.3791 10.9491 13.1372 12.7847C11.8947 14.6209 10.0156 16.6094 7.5 18.75Z" fill="#1C1B1F"/>
</svg>
