<svg width="16" height="16" viewBox="0 0 16 16" fill="none" xmlns="http://www.w3.org/2000/svg">
<mask id="mask0_2409_19947" style="mask-type:alpha" maskUnits="userSpaceOnUse" x="0" y="0" width="16" height="16">
<rect width="16" height="16" rx="4" fill="#D9D9D9"/>
</mask>
<g mask="url(#mask0_2409_19947)">
<path d="M3.08325 3.08325L3.08325 3.08325C3.0375 3.12901 3.0138 3.18031 3.0138 3.23685V5.25C3.0138 5.5265 2.78965 5.75065 2.51315 5.75065C2.23665 5.75065 2.0125 5.5265 2.0125 5.25V3.23902C2.0125 2.89518 2.13098 2.60512 2.36805 2.36805C2.60512 2.13098 2.89518 2.0125 3.23902 2.0125H5.25C5.5265 2.0125 5.75065 2.23665 5.75065 2.51315C5.75065 2.78965 5.5265 3.0138 5.25 3.0138H3.23685C3.18031 3.0138 3.12901 3.0375 3.08325 3.08325ZM3.23902 14.9875C2.89518 14.9875 2.60512 14.869 2.36805 14.632C2.13098 14.3949 2.0125 14.1048 2.0125 13.761V11.75C2.0125 11.4735 2.23665 11.2493 2.51315 11.2493C2.78965 11.2493 3.0138 11.4735 3.0138 11.75V13.7631C3.0138 13.8197 3.0375 13.871 3.08325 13.9167C3.12901 13.9625 3.18031 13.9862 3.23685 13.9862H5.25C5.5265 13.9862 5.75065 14.2103 5.75065 14.4868C5.75065 14.7634 5.5265 14.9875 5.25 14.9875H3.23902ZM11.75 14.9875C11.4735 14.9875 11.2493 14.7634 11.2493 14.4868C11.2493 14.2103 11.4735 13.9862 11.75 13.9862H13.7631C13.8197 13.9862 13.871 13.9625 13.9167 13.9168C13.9625 13.871 13.9862 13.8197 13.9862 13.7631V11.75C13.9862 11.4735 14.2103 11.2493 14.4868 11.2493C14.7634 11.2493 14.9875 11.4735 14.9875 11.75V13.761C14.9875 14.1048 14.869 14.3949 14.632 14.632C14.3949 14.869 14.1048 14.9875 13.761 14.9875H11.75ZM14.4868 5.75065C14.2103 5.75065 13.9862 5.5265 13.9862 5.25V3.23685C13.9862 3.18031 13.9625 3.12901 13.9168 3.08325C13.871 3.0375 13.8197 3.0138 13.7631 3.0138H11.75C11.4735 3.0138 11.2493 2.78965 11.2493 2.51315C11.2493 2.23665 11.4735 2.0125 11.75 2.0125H13.761C14.1048 2.0125 14.3949 2.13098 14.632 2.36805C14.869 2.60512 14.9875 2.89518 14.9875 3.23902V5.25C14.9875 5.5265 14.7634 5.75065 14.4868 5.75065ZM8.49921 8.44802C7.974 8.44802 7.53164 8.2679 7.17134 7.90761C6.81105 7.54731 6.63093 7.10496 6.63093 6.57974C6.63093 6.06495 6.811 5.62486 7.17141 5.25878C7.53173 4.89281 7.97406 4.70989 8.49921 4.70989C9.01394 4.70989 9.45401 4.89276 9.82011 5.25885C10.1862 5.62494 10.3691 6.06501 10.3691 6.57974C10.3691 7.10489 10.1861 7.54723 9.82018 7.90755C9.45409 8.26795 9.014 8.44802 8.49921 8.44802ZM8.5 7.44674C8.74094 7.44674 8.94609 7.36352 9.11472 7.19723C9.28343 7.03086 9.36778 6.82448 9.36778 6.57895C9.36778 6.33795 9.28338 6.13278 9.11478 5.96418C8.94614 5.79555 8.73986 5.71117 8.49672 5.71117C8.25356 5.71117 8.04834 5.79555 7.88188 5.96424C7.71546 6.13287 7.63222 6.33913 7.63222 6.58224C7.63222 6.82534 7.71541 7.03054 7.88176 7.19701C8.04816 7.36351 8.25452 7.44674 8.5 7.44674ZM5.69473 12.2901C5.07814 12.2901 4.5783 11.7903 4.5783 11.1737C4.5783 10.9645 4.63108 10.7677 4.73676 10.5833C4.84244 10.3989 4.9858 10.252 5.16696 10.1423C5.673 9.84377 6.20681 9.61812 6.76841 9.46536C7.33004 9.31258 7.90723 9.23619 8.5 9.23619C9.09277 9.23619 9.66996 9.31258 10.2316 9.46536C10.7932 9.61812 11.327 9.84377 11.833 10.1423C12.0142 10.252 12.1576 10.3989 12.2632 10.5833C12.3689 10.7677 12.4217 10.9645 12.4217 11.1737C12.4217 11.7903 11.9219 12.2901 11.3053 12.2901H5.69473ZM8.5 10.2375C8.00939 10.2375 7.52363 10.3034 7.04274 10.4353C6.59132 10.5591 6.15427 10.7371 5.7316 10.9693C5.67638 10.9996 5.64273 11.0579 5.64273 11.1207C5.64273 11.2172 5.72097 11.2954 5.81747 11.2954H11.1781C11.277 11.2954 11.3573 11.2152 11.3573 11.1162C11.3573 11.0521 11.3231 10.9926 11.2668 10.9614C10.8485 10.73 10.4131 10.5535 9.96049 10.432C9.47743 10.3023 8.99059 10.2375 8.5 10.2375Z" fill="black" stroke="black" stroke-width="0.025"/>
</g>
</svg>
