<svg width="103" height="41" viewBox="0 0 103 41" fill="none" xmlns="http://www.w3.org/2000/svg">
<g id="Logo Port small">
<g id="Group">
<path id="Vector" d="M4.61415 35.0747C5.62668 33.9273 6.01897 33.5662 6.13772 33.5662C6.20133 33.5662 6.19285 33.6565 6.11969 33.7383C5.68181 34.2254 4.89724 35.2102 4.89724 35.8873C4.89724 36.0227 4.94283 36.1581 5.10717 36.1581C5.28104 36.1581 5.74543 35.797 5.90128 35.6889C6.02957 35.5986 6.41232 35.3277 6.41232 35.165C6.41232 35.0653 6.32114 35.0474 6.24798 35.039C6.53955 34.5246 7.28807 33.4675 7.28807 32.8891C7.28807 32.6277 7.14176 32.3022 6.83217 32.3022C6.3487 32.3022 5.0075 33.6481 4.67989 34.0365L2.02505 37.1617C1.64231 37.2342 1.232 37.2426 0.84819 37.3328C0.71142 37.3685 0.647805 37.4777 0.565107 37.5858C0.428336 37.7664 0 38.2724 0 38.4803C0 38.643 0.154795 38.6692 0.283083 38.6692C0.529059 38.6692 0.784576 38.5244 1.00405 38.453L1.20443 38.3627C2.02505 38.3354 2.8372 38.4435 3.6398 38.6157C5.42736 38.9863 5.39131 38.9684 5.97444 38.39L6.45791 37.9113C5.0902 37.5858 4.30563 37.4326 2.79161 37.1439L4.61415 35.0747Z" fill="#233038"/>
<g id="Clip path group">
<mask id="mask0_654_114328" style="mask-type:luminance" maskUnits="userSpaceOnUse" x="0" y="32" width="8" height="7">
<g id="SVGID_00000025432771952033207420000002595979523927879814_">
<path id="Vector_2" d="M4.61415 35.0747C5.62668 33.9273 6.01897 33.5662 6.13772 33.5662C6.20133 33.5662 6.19285 33.6565 6.11969 33.7383C5.68181 34.2254 4.89724 35.2102 4.89724 35.8873C4.89724 36.0227 4.94283 36.1581 5.10717 36.1581C5.28104 36.1581 5.74543 35.797 5.90128 35.6889C6.02957 35.5986 6.41232 35.3277 6.41232 35.165C6.41232 35.0653 6.32114 35.0474 6.24798 35.039C6.53955 34.5246 7.28807 33.4675 7.28807 32.8891C7.28807 32.6277 7.14176 32.3022 6.83217 32.3022C6.3487 32.3022 5.0075 33.6481 4.67989 34.0365L2.02505 37.1617C1.64231 37.2342 1.232 37.2426 0.84819 37.3328C0.71142 37.3685 0.647805 37.4777 0.565107 37.5858C0.428336 37.7664 0 38.2724 0 38.4803C0 38.643 0.154795 38.6692 0.283083 38.6692C0.529059 38.6692 0.784576 38.5244 1.00405 38.453L1.20443 38.3627C2.02505 38.3354 2.8372 38.4435 3.6398 38.6157C5.42736 38.9863 5.39131 38.9684 5.97444 38.39L6.45791 37.9113C5.0902 37.5858 4.30563 37.4326 2.79161 37.1439L4.61415 35.0747Z" fill="white"/>
</g>
</mask>
<g mask="url(#mask0_654_114328)">
<g id="Group_2">
<rect id="Rectangle" x="-5.01807" y="-15.0069" width="120.973" height="68.7617" fill="#233038"/>
</g>
</g>
</g>
</g>
<g id="Group_3">
<path id="Vector_3" d="M11.3268 36.9717C11.0533 37.188 10.2687 37.821 9.92199 37.821C9.77568 37.821 9.69404 37.7664 9.69404 37.6226C9.69404 37.2163 10.3418 36.5025 10.6334 36.2411C10.7797 36.114 11.0257 35.9062 11.0077 35.6899C10.9716 35.2207 10.8709 35.1934 10.7978 35.1934C10.5698 35.1934 9.67602 36.051 9.48412 36.2232L8.58079 37.0263C8.15246 37.4063 7.65097 37.6677 7.48663 37.6677C7.42301 37.6677 7.41347 37.5774 7.41347 37.5323C7.41347 37.1533 7.63294 36.9539 7.91496 36.7555C8.2712 36.5025 8.32528 36.4216 8.60836 36.1056C8.70908 36.0248 8.95506 35.7718 8.97308 35.6269C9.00913 35.3561 8.54475 35.4369 8.41646 35.4369C8.26166 35.4369 8.14292 35.4548 8.01463 35.5366C7.43044 35.9156 6.74658 36.8195 6.74658 37.695C6.74658 38.0834 6.99256 38.5895 7.43998 38.5895C7.94147 38.5895 8.55323 37.7769 8.90841 37.4693L8.92643 37.4872C8.83525 37.7223 8.73453 37.9753 8.73453 38.2462C8.73453 38.5622 8.93491 38.8425 9.27313 38.8425C9.9485 38.8425 10.9154 37.8032 11.3798 37.3612L11.3268 36.9717Z" fill="#233038"/>
<g id="Clip path group_2">
<mask id="mask1_654_114328" style="mask-type:luminance" maskUnits="userSpaceOnUse" x="6" y="35" width="6" height="4">
<g id="SVGID_00000087393139617863517990000012857242150985358262_">
<path id="Vector_4" d="M11.3268 36.9717C11.0533 37.188 10.2687 37.821 9.92199 37.821C9.77568 37.821 9.69404 37.7664 9.69404 37.6226C9.69404 37.2163 10.3418 36.5025 10.6334 36.2411C10.7797 36.114 11.0257 35.9062 11.0077 35.6899C10.9716 35.2207 10.8709 35.1934 10.7978 35.1934C10.5698 35.1934 9.67602 36.051 9.48412 36.2232L8.58079 37.0263C8.15246 37.4063 7.65097 37.6677 7.48663 37.6677C7.42301 37.6677 7.41347 37.5774 7.41347 37.5323C7.41347 37.1533 7.63294 36.9539 7.91496 36.7555C8.2712 36.5025 8.32528 36.4216 8.60836 36.1056C8.70908 36.0248 8.95506 35.7718 8.97308 35.6269C9.00913 35.3561 8.54475 35.4369 8.41646 35.4369C8.26166 35.4369 8.14292 35.4548 8.01463 35.5366C7.43044 35.9156 6.74658 36.8195 6.74658 37.695C6.74658 38.0834 6.99256 38.5895 7.43998 38.5895C7.94147 38.5895 8.55323 37.7769 8.90841 37.4693L8.92643 37.4872C8.83525 37.7223 8.73453 37.9753 8.73453 38.2462C8.73453 38.5622 8.93491 38.8425 9.27313 38.8425C9.9485 38.8425 10.9154 37.8032 11.3798 37.3612L11.3268 36.9717Z" fill="white"/>
</g>
</mask>
<g mask="url(#mask1_654_114328)">
<g id="Group_4">
<rect id="Rectangle_2" x="-5.01807" y="-15.0069" width="120.973" height="68.7617" fill="#233038"/>
</g>
</g>
</g>
</g>
<g id="Group_5">
<path id="Vector_5" d="M24.1047 38.579L24.0866 38.5612L25.4363 36.5739C25.5635 36.3839 25.8106 36.0144 25.8106 35.7792C25.8106 35.6532 25.7194 35.3005 25.5646 35.3278C25.3907 35.3551 24.8076 35.9787 23.8682 36.8363C23.4855 37.1891 23.0476 37.5775 22.5641 37.631C22.5737 37.4421 22.6277 37.2605 22.738 37.1072C23.0391 36.872 24.0697 35.9325 24.0697 35.5902C24.0697 35.4632 23.8142 35.1745 23.6774 35.1745C23.4516 35.1829 22.2111 36.0773 21.9481 37.0337C21.6332 37.2888 21.119 37.7843 20.7586 37.7843C20.6218 37.7843 20.4755 37.6762 20.4755 37.5313C20.4755 37.1702 20.9229 36.7282 21.1869 36.5015C21.3968 36.3293 21.5696 36.1939 21.5696 35.9146C21.5516 35.7519 21.488 35.607 21.3512 35.4359C21.26 35.3278 20.7586 35.4359 19.9008 35.5535C19.9369 35.4727 19.9644 35.3908 19.9644 35.3005C19.9644 35.2197 19.8913 35.1472 19.8001 35.1472C19.5806 35.1472 18.6508 35.797 18.6508 36.4479C18.6508 36.6379 18.7059 36.7093 18.8968 36.7282C18.724 36.9718 18.5321 37.1975 18.2946 37.3875L18.2956 37.4011C17.9903 37.6174 17.6521 37.8211 17.4559 37.8211C17.3096 37.8211 17.228 37.7665 17.228 37.6226C17.228 37.2164 17.8758 36.5025 18.1673 36.2411C18.3136 36.1141 18.5596 35.9062 18.5416 35.69C18.5055 35.2207 18.4048 35.1934 18.3317 35.1934C18.1037 35.1934 17.2099 36.0511 17.018 36.2233L16.1147 37.0264C15.6864 37.4064 15.1838 37.6678 15.0195 37.6678C14.9559 37.6678 14.9463 37.5775 14.9463 37.5324C14.9463 37.1534 15.1658 36.9539 15.4478 36.7555C15.803 36.5025 15.8581 36.4217 16.1412 36.1057C16.2419 36.0249 16.4879 35.7719 16.5059 35.627C16.542 35.3561 16.0776 35.437 15.9493 35.437C15.7945 35.437 15.6758 35.4548 15.5475 35.5367C15.0958 35.8306 14.5848 36.4385 14.3759 37.1051C14.0907 37.3507 13.6412 37.7497 13.3305 37.7497C13.057 37.7497 12.9934 37.5513 13.0019 37.3255L13.0114 36.9466L13.6412 36.323C14.0335 36.4038 14.4894 35.6732 14.4533 35.4832C14.4438 35.438 14.4353 35.3383 14.3346 35.3383C14.1427 35.3383 13.9518 35.5188 13.8151 35.6459L13.0029 36.3776L13.0305 35.5556C13.04 35.4107 13.0665 35.0863 12.8481 35.0863C12.5746 35.0863 11.2429 36.2338 11.2429 36.4143C11.2429 36.4773 11.279 36.5225 11.3436 36.5319C11.4073 36.5403 11.544 36.45 12.2194 36.1067L12.2289 37.1901L11.7455 37.6142C11.5175 37.6772 11.4168 37.7402 11.262 37.9218C11.1793 38.0216 10.9429 38.3281 10.9429 38.4551C10.9429 38.536 11.0065 38.5822 11.0892 38.5822C11.2715 38.5822 11.5631 38.3113 11.6914 38.1937L12.2205 37.6877C12.2205 38.031 12.1113 38.7711 12.6403 38.7711C13.1556 38.7711 13.8151 38.073 14.2858 37.6142C14.2847 37.6415 14.2816 37.6688 14.2816 37.6961C14.2816 38.0846 14.5275 38.5906 14.975 38.5906C15.4764 38.5906 16.0882 37.778 16.4434 37.4704L16.4614 37.4883C16.3702 37.7234 16.2695 37.9764 16.2695 38.2473C16.2695 38.5633 16.4699 38.8436 16.8081 38.8436C17.4835 38.8436 18.4504 37.8043 18.9159 37.3623L18.9031 37.271C19.0887 37.1009 19.2657 36.9172 19.4258 36.6673L20.3747 36.4595L20.3928 36.4773C20.028 36.9109 19.5541 37.3896 19.5541 38.0037C19.5541 38.347 19.7916 38.6987 20.1744 38.6987C20.6228 38.6987 21.4626 37.9554 21.9078 37.5009C21.9672 38.115 22.3744 38.4656 22.6182 38.4824C22.7274 38.4919 23.3932 38.0037 24.1418 37.3801L24.1598 37.399L22.9373 39.4409C22.8642 39.5585 22.6914 39.8377 22.6914 39.9826C22.6914 40.1359 22.773 40.5789 22.9649 40.5789C23.1112 40.5789 23.3667 40.2261 23.4579 40.1275L26.2039 37.1376L26.1308 36.8038L24.1047 38.579Z" fill="#233038"/>
<g id="Clip path group_3">
<mask id="mask2_654_114328" style="mask-type:luminance" maskUnits="userSpaceOnUse" x="10" y="35" width="17" height="6">
<g id="SVGID_00000121997560963013447310000003871773128549768107_">
<path id="Vector_6" d="M24.1047 38.579L24.0866 38.5612L25.4363 36.5739C25.5635 36.3839 25.8106 36.0144 25.8106 35.7792C25.8106 35.6532 25.7194 35.3005 25.5646 35.3278C25.3907 35.3551 24.8076 35.9787 23.8682 36.8363C23.4855 37.1891 23.0476 37.5775 22.5641 37.631C22.5737 37.4421 22.6277 37.2605 22.738 37.1072C23.0391 36.872 24.0697 35.9325 24.0697 35.5902C24.0697 35.4632 23.8142 35.1745 23.6774 35.1745C23.4516 35.1829 22.2111 36.0773 21.9481 37.0337C21.6332 37.2888 21.119 37.7843 20.7586 37.7843C20.6218 37.7843 20.4755 37.6762 20.4755 37.5313C20.4755 37.1702 20.9229 36.7282 21.1869 36.5015C21.3968 36.3293 21.5696 36.1939 21.5696 35.9146C21.5516 35.7519 21.488 35.607 21.3512 35.4359C21.26 35.3278 20.7586 35.4359 19.9008 35.5535C19.9369 35.4727 19.9644 35.3908 19.9644 35.3005C19.9644 35.2197 19.8913 35.1472 19.8001 35.1472C19.5806 35.1472 18.6508 35.797 18.6508 36.4479C18.6508 36.6379 18.7059 36.7093 18.8968 36.7282C18.724 36.9718 18.5321 37.1975 18.2946 37.3875L18.2956 37.4011C17.9903 37.6174 17.6521 37.8211 17.4559 37.8211C17.3096 37.8211 17.228 37.7665 17.228 37.6226C17.228 37.2164 17.8758 36.5025 18.1673 36.2411C18.3136 36.1141 18.5596 35.9062 18.5416 35.69C18.5055 35.2207 18.4048 35.1934 18.3317 35.1934C18.1037 35.1934 17.2099 36.0511 17.018 36.2233L16.1147 37.0264C15.6864 37.4064 15.1838 37.6678 15.0195 37.6678C14.9559 37.6678 14.9463 37.5775 14.9463 37.5324C14.9463 37.1534 15.1658 36.9539 15.4478 36.7555C15.803 36.5025 15.8581 36.4217 16.1412 36.1057C16.2419 36.0249 16.4879 35.7719 16.5059 35.627C16.542 35.3561 16.0776 35.437 15.9493 35.437C15.7945 35.437 15.6758 35.4548 15.5475 35.5367C15.0958 35.8306 14.5848 36.4385 14.3759 37.1051C14.0907 37.3507 13.6412 37.7497 13.3305 37.7497C13.057 37.7497 12.9934 37.5513 13.0019 37.3255L13.0114 36.9466L13.6412 36.323C14.0335 36.4038 14.4894 35.6732 14.4533 35.4832C14.4438 35.438 14.4353 35.3383 14.3346 35.3383C14.1427 35.3383 13.9518 35.5188 13.8151 35.6459L13.0029 36.3776L13.0305 35.5556C13.04 35.4107 13.0665 35.0863 12.8481 35.0863C12.5746 35.0863 11.2429 36.2338 11.2429 36.4143C11.2429 36.4773 11.279 36.5225 11.3436 36.5319C11.4073 36.5403 11.544 36.45 12.2194 36.1067L12.2289 37.1901L11.7455 37.6142C11.5175 37.6772 11.4168 37.7402 11.262 37.9218C11.1793 38.0216 10.9429 38.3281 10.9429 38.4551C10.9429 38.536 11.0065 38.5822 11.0892 38.5822C11.2715 38.5822 11.5631 38.3113 11.6914 38.1937L12.2205 37.6877C12.2205 38.031 12.1113 38.7711 12.6403 38.7711C13.1556 38.7711 13.8151 38.073 14.2858 37.6142C14.2847 37.6415 14.2816 37.6688 14.2816 37.6961C14.2816 38.0846 14.5275 38.5906 14.975 38.5906C15.4764 38.5906 16.0882 37.778 16.4434 37.4704L16.4614 37.4883C16.3702 37.7234 16.2695 37.9764 16.2695 38.2473C16.2695 38.5633 16.4699 38.8436 16.8081 38.8436C17.4835 38.8436 18.4504 37.8043 18.9159 37.3623L18.9031 37.271C19.0887 37.1009 19.2657 36.9172 19.4258 36.6673L20.3747 36.4595L20.3928 36.4773C20.028 36.9109 19.5541 37.3896 19.5541 38.0037C19.5541 38.347 19.7916 38.6987 20.1744 38.6987C20.6228 38.6987 21.4626 37.9554 21.9078 37.5009C21.9672 38.115 22.3744 38.4656 22.6182 38.4824C22.7274 38.4919 23.3932 38.0037 24.1418 37.3801L24.1598 37.399L22.9373 39.4409C22.8642 39.5585 22.6914 39.8377 22.6914 39.9826C22.6914 40.1359 22.773 40.5789 22.9649 40.5789C23.1112 40.5789 23.3667 40.2261 23.4579 40.1275L26.2039 37.1376L26.1308 36.8038L24.1047 38.579Z" fill="white"/>
</g>
</mask>
<g mask="url(#mask2_654_114328)">
<g id="Group_6">
<rect id="Rectangle_3" x="-5.01807" y="-15.0068" width="120.973" height="68.7617" fill="#233038"/>
</g>
</g>
</g>
</g>
<g id="Group_7">
<path id="Vector_7" d="M36.2444 35.1378C36.6091 34.8491 36.9007 34.1531 36.9007 33.6922C36.9007 32.5364 35.1216 32.4545 34.2829 32.4545C32.4402 32.4545 30.4703 32.9332 30.0409 33.4392C29.8586 33.6649 29.5755 34.2434 29.5755 34.5321C29.5755 34.7032 29.7674 34.7483 29.9041 34.7483C30.1692 34.7483 30.4968 34.6853 30.7523 34.6581L31.4638 34.5856C31.5093 34.5856 31.6376 34.5583 31.6376 34.4859C31.6376 34.3505 31.4553 34.3872 30.8806 34.3326V34.3148C31.5009 34.0712 32.1762 33.9536 32.8421 33.8445L31.4924 35.7771C30.6442 35.8044 30.1692 36.238 30.0876 36.7073C30.0515 36.8878 30.3791 37.0054 30.5254 37.0421L29.6773 38.4237C29.5861 38.5685 29.5225 38.6945 29.5225 38.8656C29.5225 38.9832 29.6232 39.0557 29.7324 39.0557C29.9784 39.0557 30.517 38.7208 30.4078 38.4048L31.1923 37.2762L34.5671 38.5129C34.813 38.6032 35.4609 38.9192 35.6983 38.9192C36.009 38.9192 35.9719 38.241 35.7991 37.9261C35.7535 37.8536 35.7895 37.6185 34.2214 37.1219L31.7585 36.3451V36.3272C35.041 35.7246 35.4969 35.7341 36.2444 35.1378ZM33.0435 34.551C33.2078 34.298 33.3722 34.0901 33.3626 33.7741L35.0505 33.6565C35.2509 33.6387 36.2359 33.6471 36.2359 33.9274C36.2359 34.3704 35.0134 34.8848 34.6392 34.9845L32.3681 35.5714L33.0435 34.551Z" fill="#233038"/>
<g id="Clip path group_4">
<mask id="mask3_654_114328" style="mask-type:luminance" maskUnits="userSpaceOnUse" x="29" y="32" width="8" height="8">
<g id="SVGID_00000034090785749706097390000016348508449370359726_">
<path id="Vector_8" d="M36.2444 35.1378C36.6091 34.8491 36.9007 34.1531 36.9007 33.6922C36.9007 32.5364 35.1216 32.4545 34.2829 32.4545C32.4402 32.4545 30.4703 32.9332 30.0409 33.4392C29.8586 33.6649 29.5755 34.2434 29.5755 34.5321C29.5755 34.7032 29.7674 34.7483 29.9041 34.7483C30.1692 34.7483 30.4968 34.6853 30.7523 34.6581L31.4638 34.5856C31.5093 34.5856 31.6376 34.5583 31.6376 34.4859C31.6376 34.3505 31.4553 34.3872 30.8806 34.3326V34.3148C31.5009 34.0712 32.1762 33.9536 32.8421 33.8445L31.4924 35.7771C30.6442 35.8044 30.1692 36.238 30.0876 36.7073C30.0515 36.8878 30.3791 37.0054 30.5254 37.0421L29.6773 38.4237C29.5861 38.5685 29.5225 38.6945 29.5225 38.8656C29.5225 38.9832 29.6232 39.0557 29.7324 39.0557C29.9784 39.0557 30.517 38.7208 30.4078 38.4048L31.1923 37.2762L34.5671 38.5129C34.813 38.6032 35.4609 38.9192 35.6983 38.9192C36.009 38.9192 35.9719 38.241 35.7991 37.9261C35.7535 37.8536 35.7895 37.6185 34.2214 37.1219L31.7585 36.3451V36.3272C35.041 35.7246 35.4969 35.7341 36.2444 35.1378ZM33.0435 34.551C33.2078 34.298 33.3722 34.0901 33.3626 33.7741L35.0505 33.6565C35.2509 33.6387 36.2359 33.6471 36.2359 33.9274C36.2359 34.3704 35.0134 34.8848 34.6392 34.9845L32.3681 35.5714L33.0435 34.551Z" fill="white"/>
</g>
</mask>
<g mask="url(#mask3_654_114328)">
<g id="Group_8">
<rect id="Rectangle_4" x="-5.01807" y="-15.0069" width="120.973" height="68.7617" fill="#233038"/>
</g>
</g>
</g>
</g>
<g id="Group_9">
<path id="Vector_9" d="M52.9166 34.8574L52.3515 34.8123C52.4427 34.6863 52.7077 34.3882 52.7077 34.2254C52.7077 34.0806 52.5349 34.0543 52.4162 34.0543C51.8871 34.0543 51.6867 34.4784 51.4132 34.849C50.4367 34.8847 50.3646 35.0296 49.8716 35.8243L49.7709 35.987C50.2543 35.9146 50.0815 35.9513 50.6371 35.9513C50.2999 36.5203 49.7974 36.9812 49.2503 37.3958L49.2598 37.4284C49.017 37.6173 48.7573 37.7843 48.5484 37.7843C48.4116 37.7843 48.2653 37.6761 48.2653 37.5312C48.2653 37.1701 48.7128 36.7282 48.9768 36.5014C49.1867 36.3292 49.3595 36.1938 49.3595 35.9146C49.3415 35.7518 49.2779 35.607 49.1411 35.4359C49.0499 35.3277 48.5484 35.4359 47.6907 35.5534C47.7267 35.4726 47.7543 35.3907 47.7543 35.3004C47.7543 35.2196 47.6811 35.1472 47.59 35.1472C47.3705 35.1472 46.4407 35.797 46.4407 36.4479C46.4407 36.6379 46.4958 36.7093 46.6866 36.7282C46.6305 36.8069 46.5711 36.8835 46.5096 36.9581C46.2594 37.1638 46.0166 37.4336 45.6561 37.3685C45.8289 37.0168 46.0123 36.7009 46.0123 36.303C46.0123 36.0321 45.9572 35.8421 45.6837 35.7697C45.7844 35.7151 45.8936 35.6616 45.8936 35.5261C45.8936 35.2826 45.5925 35.1923 45.3921 35.2007C44.8355 35.228 44.1792 35.4715 43.6862 35.8694C43.2515 36.2001 42.944 36.578 42.873 37.1008L42.8655 37.0714L42.3185 37.4872C41.871 37.821 41.5159 38.0918 40.9317 37.9932C41.5159 37.6404 42.117 37.0903 42.117 36.3492C42.117 35.9524 41.9802 35.6448 41.9442 35.3015C41.9166 35.0485 41.8626 34.9666 41.588 34.9666C41.2593 34.9666 41.0865 35.2553 41.0684 35.5534L39.089 37.3507C39.0381 37.4011 38.9511 37.4788 38.9045 37.5606C38.5557 37.7895 38.1814 37.9732 37.84 37.9732C37.5485 37.9732 37.2473 37.8556 37.2749 37.5124L37.2929 37.3129C39.0445 36.7439 39.4908 36.0762 39.4908 35.6332C39.4908 35.2721 39.1261 35.1997 38.8345 35.1997C37.6481 35.1913 36.326 36.4006 36.362 37.5848C36.3801 38.1811 36.6907 38.7679 37.3566 38.7679C38.0107 38.7679 38.7158 38.3228 39.2671 37.8336C39.4781 38.4162 40.1026 38.7249 40.6762 38.7501C41.3696 38.7847 42.2994 38.0457 42.8687 37.4998C42.9398 38.2493 43.3533 38.6787 43.8049 38.6787C44.3796 38.6787 44.827 38.39 45.2097 38.0016C45.5808 38.0016 45.8681 37.9312 46.1215 37.7832V37.7843C46.1226 37.7832 46.1247 37.7811 46.1258 37.78C46.3219 37.6646 46.4979 37.5029 46.6739 37.2845C46.8669 37.1092 47.0492 36.9224 47.2157 36.6641L48.1646 36.4563L48.1826 36.4741C47.8179 36.9077 47.3429 37.3864 47.3429 38.0005C47.3429 38.3438 47.5804 38.6955 47.9632 38.6955C48.4562 38.6955 49.4231 37.7958 49.8175 37.3706L49.8324 37.3853C49.7136 37.6478 49.5949 37.9911 49.5949 38.2892C49.5949 38.6503 49.8133 38.8949 50.1695 38.8949C50.9446 38.8949 51.9295 37.9281 52.4681 37.441L52.4225 37.0431C51.4736 37.7118 51.146 37.9827 50.8534 37.9827C50.6434 37.9827 50.5798 37.8651 50.5798 37.6667C50.5798 37.125 51.0994 36.3838 51.41 35.987C52.4151 36.05 52.4883 35.7161 52.9166 34.8574ZM38.579 35.7245C38.6426 35.7067 38.6882 35.7602 38.6882 35.8243C38.6978 35.9776 38.1496 36.6011 37.347 36.872C37.594 36.2757 38.1231 35.8421 38.579 35.7245ZM40.4758 37.7937C40.3114 37.5722 40.1217 37.3118 39.8163 37.2688L39.8046 37.2226L41.0769 36.0416C41.131 36.3492 41.1681 36.5927 41.1957 36.7827C41.1692 37.3055 41.0239 37.4588 40.4758 37.7937ZM44.6351 37.6572C44.4252 37.8472 44.2333 38.0184 43.9332 38.0184C43.7053 38.0184 43.5314 37.9375 43.5314 37.6751C43.5314 37.3948 43.7042 37.0431 43.9056 36.8447C44.1792 36.5833 44.6075 36.366 44.9182 36.1854C44.9542 36.2033 44.5259 36.7722 44.5259 37.2426C44.5259 37.3958 44.5715 37.5134 44.6351 37.6572Z" fill="#233038"/>
<g id="Clip path group_5">
<mask id="mask4_654_114328" style="mask-type:luminance" maskUnits="userSpaceOnUse" x="36" y="34" width="17" height="5">
<g id="SVGID_00000150074683911608041340000016959571567876257671_">
<path id="Vector_10" d="M52.9166 34.8574L52.3515 34.8123C52.4427 34.6863 52.7077 34.3882 52.7077 34.2254C52.7077 34.0806 52.5349 34.0543 52.4162 34.0543C51.8871 34.0543 51.6867 34.4784 51.4132 34.849C50.4367 34.8847 50.3646 35.0296 49.8716 35.8243L49.7709 35.987C50.2543 35.9146 50.0815 35.9513 50.6371 35.9513C50.2999 36.5203 49.7974 36.9812 49.2503 37.3958L49.2598 37.4284C49.017 37.6173 48.7573 37.7843 48.5484 37.7843C48.4116 37.7843 48.2653 37.6761 48.2653 37.5312C48.2653 37.1701 48.7128 36.7282 48.9768 36.5014C49.1867 36.3292 49.3595 36.1938 49.3595 35.9146C49.3415 35.7518 49.2779 35.607 49.1411 35.4359C49.0499 35.3277 48.5484 35.4359 47.6907 35.5534C47.7267 35.4726 47.7543 35.3907 47.7543 35.3004C47.7543 35.2196 47.6811 35.1472 47.59 35.1472C47.3705 35.1472 46.4407 35.797 46.4407 36.4479C46.4407 36.6379 46.4958 36.7093 46.6866 36.7282C46.6305 36.8069 46.5711 36.8835 46.5096 36.9581C46.2594 37.1638 46.0166 37.4336 45.6561 37.3685C45.8289 37.0168 46.0123 36.7009 46.0123 36.303C46.0123 36.0321 45.9572 35.8421 45.6837 35.7697C45.7844 35.7151 45.8936 35.6616 45.8936 35.5261C45.8936 35.2826 45.5925 35.1923 45.3921 35.2007C44.8355 35.228 44.1792 35.4715 43.6862 35.8694C43.2515 36.2001 42.944 36.578 42.873 37.1008L42.8655 37.0714L42.3185 37.4872C41.871 37.821 41.5159 38.0918 40.9317 37.9932C41.5159 37.6404 42.117 37.0903 42.117 36.3492C42.117 35.9524 41.9802 35.6448 41.9442 35.3015C41.9166 35.0485 41.8626 34.9666 41.588 34.9666C41.2593 34.9666 41.0865 35.2553 41.0684 35.5534L39.089 37.3507C39.0381 37.4011 38.9511 37.4788 38.9045 37.5606C38.5557 37.7895 38.1814 37.9732 37.84 37.9732C37.5485 37.9732 37.2473 37.8556 37.2749 37.5124L37.2929 37.3129C39.0445 36.7439 39.4908 36.0762 39.4908 35.6332C39.4908 35.2721 39.1261 35.1997 38.8345 35.1997C37.6481 35.1913 36.326 36.4006 36.362 37.5848C36.3801 38.1811 36.6907 38.7679 37.3566 38.7679C38.0107 38.7679 38.7158 38.3228 39.2671 37.8336C39.4781 38.4162 40.1026 38.7249 40.6762 38.7501C41.3696 38.7847 42.2994 38.0457 42.8687 37.4998C42.9398 38.2493 43.3533 38.6787 43.8049 38.6787C44.3796 38.6787 44.827 38.39 45.2097 38.0016C45.5808 38.0016 45.8681 37.9312 46.1215 37.7832V37.7843C46.1226 37.7832 46.1247 37.7811 46.1258 37.78C46.3219 37.6646 46.4979 37.5029 46.6739 37.2845C46.8669 37.1092 47.0492 36.9224 47.2157 36.6641L48.1646 36.4563L48.1826 36.4741C47.8179 36.9077 47.3429 37.3864 47.3429 38.0005C47.3429 38.3438 47.5804 38.6955 47.9632 38.6955C48.4562 38.6955 49.4231 37.7958 49.8175 37.3706L49.8324 37.3853C49.7136 37.6478 49.5949 37.9911 49.5949 38.2892C49.5949 38.6503 49.8133 38.8949 50.1695 38.8949C50.9446 38.8949 51.9295 37.9281 52.4681 37.441L52.4225 37.0431C51.4736 37.7118 51.146 37.9827 50.8534 37.9827C50.6434 37.9827 50.5798 37.8651 50.5798 37.6667C50.5798 37.125 51.0994 36.3838 51.41 35.987C52.4151 36.05 52.4883 35.7161 52.9166 34.8574ZM38.579 35.7245C38.6426 35.7067 38.6882 35.7602 38.6882 35.8243C38.6978 35.9776 38.1496 36.6011 37.347 36.872C37.594 36.2757 38.1231 35.8421 38.579 35.7245ZM40.4758 37.7937C40.3114 37.5722 40.1217 37.3118 39.8163 37.2688L39.8046 37.2226L41.0769 36.0416C41.131 36.3492 41.1681 36.5927 41.1957 36.7827C41.1692 37.3055 41.0239 37.4588 40.4758 37.7937ZM44.6351 37.6572C44.4252 37.8472 44.2333 38.0184 43.9332 38.0184C43.7053 38.0184 43.5314 37.9375 43.5314 37.6751C43.5314 37.3948 43.7042 37.0431 43.9056 36.8447C44.1792 36.5833 44.6075 36.366 44.9182 36.1854C44.9542 36.2033 44.5259 36.7722 44.5259 37.2426C44.5259 37.3958 44.5715 37.5134 44.6351 37.6572Z" fill="white"/>
</g>
</mask>
<g mask="url(#mask4_654_114328)">
<g id="Group_10">
<rect id="Rectangle_5" x="-5.01807" y="-15.0069" width="120.973" height="68.7617" fill="#233038"/>
</g>
</g>
</g>
</g>
<g id="Group_11">
<path id="Vector_11" d="M62.6759 35.6794L63.6608 34.4784C64.3447 33.6481 64.4083 33.4759 64.4083 33.1872C64.4083 33.0875 64.3722 32.9793 64.2535 32.9793C64.0616 32.9793 63.6788 33.4853 63.5696 33.6302L61.9189 35.6805L60.514 35.8432L61.5446 34.7598C61.9093 34.3714 62.4564 33.8297 62.4564 33.2691C62.4564 32.8271 62.2284 32.3841 61.4714 32.3841C60.6869 32.3841 59.5376 32.6014 58.7805 32.845C58.261 33.0077 56.7375 33.5042 56.4088 33.8748C56.2445 34.0921 56.0981 34.6065 56.0981 34.869C56.0981 35.0317 56.1618 35.2847 56.3717 35.2847C56.4989 35.2847 56.6272 35.2122 56.7364 35.1587C57.3662 34.8427 57.3015 34.8333 57.9854 34.5992C58.0946 34.5635 58.2133 34.5089 58.2133 34.3819C58.2133 34.301 58.1497 34.2737 58.0861 34.2464C59.5821 33.6323 60.7314 33.2974 61.2149 33.2974C61.3241 33.2974 61.534 33.3331 61.534 33.4958C61.534 33.6764 61.27 33.9924 61.1512 34.1194C60.3486 35.0233 59.6913 35.7266 59.3457 36.0615C57.9589 36.3229 57.9504 36.3859 57.8497 36.3859C57.7765 36.3859 57.7033 36.3229 57.6397 36.3229C57.3938 36.3229 57.1298 36.8016 57.1298 37.0095C57.1298 37.316 57.4213 37.4336 58.0596 37.379C57.9324 37.6236 57.2846 38.2462 57.2846 38.4992C57.2846 38.707 57.5305 38.8876 57.732 38.8876C57.9504 38.8876 58.1518 38.5265 58.261 38.3732L59.2099 37.2709L60.8883 37.0536C60.5511 37.6856 60.4048 38.1013 60.3592 38.3721C60.3136 38.643 60.3677 38.769 60.5236 38.8235C60.7611 38.9044 61.2255 38.4624 61.5181 38.5254C61.482 38.3543 61.4184 38.1464 61.4184 37.9837C61.4184 37.7129 61.7556 37.2887 61.8923 37.0536C62.2666 37.0263 62.5486 37.0536 62.8232 37.1166C63.1148 36.6473 63.4891 36.2411 63.9174 35.9062C63.5431 35.6794 63.0957 35.6889 62.6759 35.6794Z" fill="#233038"/>
<g id="Clip path group_6">
<mask id="mask5_654_114328" style="mask-type:luminance" maskUnits="userSpaceOnUse" x="56" y="32" width="9" height="7">
<g id="SVGID_00000021092742054836500730000004486534909296498856_">
<path id="Vector_12" d="M62.6759 35.6794L63.6608 34.4784C64.3447 33.6481 64.4083 33.4759 64.4083 33.1872C64.4083 33.0875 64.3722 32.9793 64.2535 32.9793C64.0616 32.9793 63.6788 33.4853 63.5696 33.6302L61.9189 35.6805L60.514 35.8432L61.5446 34.7598C61.9093 34.3714 62.4564 33.8297 62.4564 33.2691C62.4564 32.8271 62.2284 32.3841 61.4714 32.3841C60.6869 32.3841 59.5376 32.6014 58.7805 32.845C58.261 33.0077 56.7375 33.5042 56.4088 33.8748C56.2445 34.0921 56.0981 34.6065 56.0981 34.869C56.0981 35.0317 56.1618 35.2847 56.3717 35.2847C56.4989 35.2847 56.6272 35.2122 56.7364 35.1587C57.3662 34.8427 57.3015 34.8333 57.9854 34.5992C58.0946 34.5635 58.2133 34.5089 58.2133 34.3819C58.2133 34.301 58.1497 34.2737 58.0861 34.2464C59.5821 33.6323 60.7314 33.2974 61.2149 33.2974C61.3241 33.2974 61.534 33.3331 61.534 33.4958C61.534 33.6764 61.27 33.9924 61.1512 34.1194C60.3486 35.0233 59.6913 35.7266 59.3457 36.0615C57.9589 36.3229 57.9504 36.3859 57.8497 36.3859C57.7765 36.3859 57.7033 36.3229 57.6397 36.3229C57.3938 36.3229 57.1298 36.8016 57.1298 37.0095C57.1298 37.316 57.4213 37.4336 58.0596 37.379C57.9324 37.6236 57.2846 38.2462 57.2846 38.4992C57.2846 38.707 57.5305 38.8876 57.732 38.8876C57.9504 38.8876 58.1518 38.5265 58.261 38.3732L59.2099 37.2709L60.8883 37.0536C60.5511 37.6856 60.4048 38.1013 60.3592 38.3721C60.3136 38.643 60.3677 38.769 60.5236 38.8235C60.7611 38.9044 61.2255 38.4624 61.5181 38.5254C61.482 38.3543 61.4184 38.1464 61.4184 37.9837C61.4184 37.7129 61.7556 37.2887 61.8923 37.0536C62.2666 37.0263 62.5486 37.0536 62.8232 37.1166C63.1148 36.6473 63.4891 36.2411 63.9174 35.9062C63.5431 35.6794 63.0957 35.6889 62.6759 35.6794Z" fill="white"/>
</g>
</mask>
<g mask="url(#mask5_654_114328)">
<g id="Group_12">
<rect id="Rectangle_6" x="-5.01855" y="-15.0069" width="120.973" height="68.7617" fill="#233038"/>
</g>
</g>
</g>
</g>
<g id="Group_13">
<path id="Vector_13" d="M76.1738 33.0245C75.8822 33.0245 75.0149 33.8643 74.2134 34.849C73.7373 35.4296 73.3832 36.2022 73.2602 36.9749C72.7747 37.358 72.0399 37.9743 71.4133 37.9743C71.1217 37.9743 70.8206 37.8567 70.8482 37.5134L70.8662 37.3139C72.6177 36.745 73.0641 36.0773 73.0641 35.6343C73.0641 35.2731 72.6994 35.2007 72.4078 35.2007C71.4027 35.1934 70.3022 36.0626 70.0117 37.0483C69.0681 37.7129 68.7404 37.9827 68.4489 37.9827C68.239 37.9827 68.1753 37.8651 68.1753 37.6667C68.1753 37.125 68.6949 36.3838 69.0055 35.987C70.0085 36.05 70.0816 35.7162 70.511 34.8574L69.9449 34.8123C70.0361 34.6863 70.3011 34.3882 70.3011 34.2254C70.3011 34.0806 70.1272 34.0543 70.0096 34.0543C69.4805 34.0543 69.2801 34.4784 69.0066 34.849C68.0301 34.8847 67.958 35.0296 67.465 35.8243L67.3643 35.987C67.8477 35.9146 67.6749 35.9513 68.2305 35.9513C68.0078 36.3271 67.712 36.6557 67.3802 36.9549L67.3643 36.8909C67.0812 37.0987 66.8257 37.442 66.4249 37.3696C66.5977 37.0179 66.7801 36.7019 66.7801 36.304C66.7801 36.0332 66.7249 35.8432 66.4514 35.7707C66.5511 35.7162 66.6613 35.6626 66.6613 35.5272C66.6613 35.2836 66.3602 35.1934 66.1598 35.2018C65.6032 35.229 64.9469 35.4726 64.4539 35.8705C63.9429 36.2589 63.6057 36.7103 63.6237 37.3874C63.6598 38.2094 64.0977 38.6787 64.5716 38.6787C65.1462 38.6787 65.5937 38.39 65.9764 38.0016C66.5405 38.0016 66.9147 37.843 67.2657 37.483L67.4088 37.3696L67.4268 37.3874C67.3081 37.6499 67.1893 37.9932 67.1893 38.2913C67.1893 38.6524 67.4088 38.897 67.764 38.897C68.4817 38.897 69.3798 38.0687 69.9353 37.5585C69.9353 37.568 69.9343 37.5774 69.9343 37.5869C69.9523 38.1832 70.2629 38.77 70.9288 38.77C71.742 38.77 72.6358 38.0813 73.2125 37.4756C73.2125 37.4977 73.2093 37.5197 73.2093 37.5418C73.2093 38.075 73.3557 38.7165 74.0204 38.7165C74.805 38.7165 75.6627 37.8042 76.1642 37.2898L76.0359 37.019C75.6712 37.3433 74.9683 37.9218 74.4668 37.9218C74.2208 37.9218 74.0936 37.7412 74.0109 37.5334C73.9653 37.316 73.9929 37.0641 74.0745 36.9098C76.054 35.0128 76.2904 34.2181 76.3551 33.3604C76.3657 33.2407 76.3286 33.0245 76.1738 33.0245ZM72.1523 35.7246C72.2159 35.7067 72.2615 35.7602 72.2615 35.8243C72.271 35.9776 71.7229 36.6011 70.9203 36.872C71.1673 36.2757 71.6964 35.8421 72.1523 35.7246ZM65.4028 37.6572C65.1929 37.8472 65.002 38.0184 64.7009 38.0184C64.473 38.0184 64.2991 37.9375 64.2991 37.6751C64.2991 37.3948 64.473 37.0431 64.6734 36.8447C64.9469 36.5833 65.3752 36.366 65.6859 36.1854C65.7219 36.2033 65.2936 36.7722 65.2936 37.2426C65.2936 37.3958 65.3392 37.5134 65.4028 37.6572ZM74.277 36.0773L74.259 36.0594C74.6873 35.1293 75.2079 34.3157 75.6543 34.0995C75.4899 34.6139 74.9248 35.481 74.277 36.0773Z" fill="#233038"/>
<g id="Clip path group_7">
<mask id="mask6_654_114328" style="mask-type:luminance" maskUnits="userSpaceOnUse" x="63" y="33" width="14" height="6">
<g id="SVGID_00000013897240333141106490000011932419527839554226_">
<path id="Vector_14" d="M76.1738 33.0245C75.8822 33.0245 75.0149 33.8643 74.2134 34.849C73.7373 35.4296 73.3832 36.2022 73.2602 36.9749C72.7747 37.358 72.0399 37.9743 71.4133 37.9743C71.1217 37.9743 70.8206 37.8567 70.8482 37.5134L70.8662 37.3139C72.6177 36.745 73.0641 36.0773 73.0641 35.6343C73.0641 35.2731 72.6994 35.2007 72.4078 35.2007C71.4027 35.1934 70.3022 36.0626 70.0117 37.0483C69.0681 37.7129 68.7404 37.9827 68.4489 37.9827C68.239 37.9827 68.1753 37.8651 68.1753 37.6667C68.1753 37.125 68.6949 36.3838 69.0055 35.987C70.0085 36.05 70.0816 35.7162 70.511 34.8574L69.9449 34.8123C70.0361 34.6863 70.3011 34.3882 70.3011 34.2254C70.3011 34.0806 70.1272 34.0543 70.0096 34.0543C69.4805 34.0543 69.2801 34.4784 69.0066 34.849C68.0301 34.8847 67.958 35.0296 67.465 35.8243L67.3643 35.987C67.8477 35.9146 67.6749 35.9513 68.2305 35.9513C68.0078 36.3271 67.712 36.6557 67.3802 36.9549L67.3643 36.8909C67.0812 37.0987 66.8257 37.442 66.4249 37.3696C66.5977 37.0179 66.7801 36.7019 66.7801 36.304C66.7801 36.0332 66.7249 35.8432 66.4514 35.7707C66.5511 35.7162 66.6613 35.6626 66.6613 35.5272C66.6613 35.2836 66.3602 35.1934 66.1598 35.2018C65.6032 35.229 64.9469 35.4726 64.4539 35.8705C63.9429 36.2589 63.6057 36.7103 63.6237 37.3874C63.6598 38.2094 64.0977 38.6787 64.5716 38.6787C65.1462 38.6787 65.5937 38.39 65.9764 38.0016C66.5405 38.0016 66.9147 37.843 67.2657 37.483L67.4088 37.3696L67.4268 37.3874C67.3081 37.6499 67.1893 37.9932 67.1893 38.2913C67.1893 38.6524 67.4088 38.897 67.764 38.897C68.4817 38.897 69.3798 38.0687 69.9353 37.5585C69.9353 37.568 69.9343 37.5774 69.9343 37.5869C69.9523 38.1832 70.2629 38.77 70.9288 38.77C71.742 38.77 72.6358 38.0813 73.2125 37.4756C73.2125 37.4977 73.2093 37.5197 73.2093 37.5418C73.2093 38.075 73.3557 38.7165 74.0204 38.7165C74.805 38.7165 75.6627 37.8042 76.1642 37.2898L76.0359 37.019C75.6712 37.3433 74.9683 37.9218 74.4668 37.9218C74.2208 37.9218 74.0936 37.7412 74.0109 37.5334C73.9653 37.316 73.9929 37.0641 74.0745 36.9098C76.054 35.0128 76.2904 34.2181 76.3551 33.3604C76.3657 33.2407 76.3286 33.0245 76.1738 33.0245ZM72.1523 35.7246C72.2159 35.7067 72.2615 35.7602 72.2615 35.8243C72.271 35.9776 71.7229 36.6011 70.9203 36.872C71.1673 36.2757 71.6964 35.8421 72.1523 35.7246ZM65.4028 37.6572C65.1929 37.8472 65.002 38.0184 64.7009 38.0184C64.473 38.0184 64.2991 37.9375 64.2991 37.6751C64.2991 37.3948 64.473 37.0431 64.6734 36.8447C64.9469 36.5833 65.3752 36.366 65.6859 36.1854C65.7219 36.2033 65.2936 36.7722 65.2936 37.2426C65.2936 37.3958 65.3392 37.5134 65.4028 37.6572ZM74.277 36.0773L74.259 36.0594C74.6873 35.1293 75.2079 34.3157 75.6543 34.0995C75.4899 34.6139 74.9248 35.481 74.277 36.0773Z" fill="white"/>
</g>
</mask>
<g mask="url(#mask6_654_114328)">
<g id="Group_14">
<rect id="Rectangle_7" x="-5.01807" y="-15.0069" width="120.973" height="68.7617" fill="#233038"/>
</g>
</g>
</g>
</g>
<g id="Group_15">
<path id="Vector_15" d="M84.502 33.2597C84.502 32.7988 84.0546 32.4104 83.5987 32.4283C82.4133 32.4734 80.8442 33.5484 81.0626 35.0118C80.0956 35.5178 79.1923 35.9325 79.0555 37.3602C78.9728 38.1728 79.6673 38.7785 80.4879 38.7785C81.1898 38.7785 81.8567 38.3176 82.4313 37.9743C82.5861 38.1276 82.9975 38.6336 83.2244 38.6336C83.5435 38.6336 84.0726 37.7843 84.0726 37.5313C84.0726 37.4589 83.9994 37.3686 83.9263 37.3686C83.8531 37.3686 83.7619 37.441 83.6612 37.441C83.552 37.441 83.4237 37.3592 83.3781 37.1964C83.7524 36.8626 84.4002 36.4469 84.4002 35.8957C84.4002 35.67 84.3005 35.417 84.2263 35.2008L82.7664 36.3482C82.5384 36.0049 82.3836 35.6343 82.32 35.2281L83.6792 34.4428C84.1086 34.1898 84.502 33.8014 84.502 33.2597ZM80.4063 37.4232C80.2875 37.4232 79.9684 37.4326 79.9779 37.2605C79.996 36.8269 80.8442 36.0144 81.264 35.8422L81.775 36.9896C81.3552 37.2153 80.8982 37.4232 80.4063 37.4232ZM82.2034 34.4239C82.3773 33.7919 82.5596 33.0602 83.5446 32.8797C83.6177 32.8702 83.6994 32.907 83.6994 32.9878C83.6983 33.5306 82.6222 34.172 82.2034 34.4239Z" fill="#233038"/>
<g id="Clip path group_8">
<mask id="mask7_654_114328" style="mask-type:luminance" maskUnits="userSpaceOnUse" x="79" y="32" width="6" height="7">
<g id="SVGID_00000149355193224367363060000002632418926698315420_">
<path id="Vector_16" d="M84.502 33.2597C84.502 32.7988 84.0546 32.4104 83.5987 32.4283C82.4133 32.4734 80.8442 33.5484 81.0626 35.0118C80.0956 35.5178 79.1923 35.9325 79.0555 37.3602C78.9728 38.1728 79.6673 38.7785 80.4879 38.7785C81.1898 38.7785 81.8567 38.3176 82.4313 37.9743C82.5861 38.1276 82.9975 38.6336 83.2244 38.6336C83.5435 38.6336 84.0726 37.7843 84.0726 37.5313C84.0726 37.4589 83.9994 37.3686 83.9263 37.3686C83.8531 37.3686 83.7619 37.441 83.6612 37.441C83.552 37.441 83.4237 37.3592 83.3781 37.1964C83.7524 36.8626 84.4002 36.4469 84.4002 35.8957C84.4002 35.67 84.3005 35.417 84.2263 35.2008L82.7664 36.3482C82.5384 36.0049 82.3836 35.6343 82.32 35.2281L83.6792 34.4428C84.1086 34.1898 84.502 33.8014 84.502 33.2597ZM80.4063 37.4232C80.2875 37.4232 79.9684 37.4326 79.9779 37.2605C79.996 36.8269 80.8442 36.0144 81.264 35.8422L81.775 36.9896C81.3552 37.2153 80.8982 37.4232 80.4063 37.4232ZM82.2034 34.4239C82.3773 33.7919 82.5596 33.0602 83.5446 32.8797C83.6177 32.8702 83.6994 32.907 83.6994 32.9878C83.6983 33.5306 82.6222 34.172 82.2034 34.4239Z" fill="white"/>
</g>
</mask>
<g mask="url(#mask7_654_114328)">
<g id="Group_16">
<rect id="Rectangle_8" x="-5.01807" y="-15.0069" width="120.973" height="68.7617" fill="#233038"/>
</g>
</g>
</g>
</g>
<g id="Group_17">
<path id="Vector_17" d="M93.531 36.6725C93.531 36.2305 93.1027 35.7508 92.1813 35.5345C89.6367 34.9477 89.7544 34.8836 89.7544 34.7576C89.764 34.5498 90.7765 33.7099 93.1292 33.6291L93.1472 33.647C92.6542 33.9808 92.4813 34.2611 92.4813 34.2789C92.4813 34.3692 92.5354 34.4144 92.6266 34.4144C92.6998 34.4144 92.7909 34.3598 92.8546 34.3241C93.2108 34.0711 93.2829 34.0259 93.6762 33.8811C94.2138 33.6732 94.4428 33.5199 94.4428 32.8512C94.4428 32.6706 94.4152 32.5982 94.2053 32.5531C93.8226 32.4722 93.4398 32.4271 93.056 32.4271C91.0585 32.4271 89.4077 33.2848 89.1246 33.7456C88.9783 33.9892 88.8331 34.6485 88.8331 34.9466C88.8331 35.4883 89.307 35.6332 89.764 35.7056C90.2018 35.778 92.7284 36.1392 92.7284 36.6C92.7284 36.7449 91.8346 37.675 88.5776 37.5574V37.5396C88.6327 37.485 88.6783 37.4409 88.7323 37.4042C88.796 37.3674 88.8871 37.3223 88.8871 37.232C88.8871 37.1774 88.8596 37.168 88.814 37.168C88.6772 37.168 88.1386 37.3401 88.0294 37.4304C87.8831 37.5658 87.564 38.0446 87.564 38.2335C87.564 38.7574 88.6772 38.7574 89.0324 38.7574C90.3471 38.7595 93.531 38.4708 93.531 36.6725Z" fill="#233038"/>
<g id="Clip path group_9">
<mask id="mask8_654_114328" style="mask-type:luminance" maskUnits="userSpaceOnUse" x="87" y="32" width="8" height="7">
<g id="SVGID_00000129926432766327251190000000424465002526237060_">
<path id="Vector_18" d="M93.531 36.6725C93.531 36.2305 93.1027 35.7508 92.1813 35.5345C89.6367 34.9477 89.7544 34.8836 89.7544 34.7576C89.764 34.5498 90.7765 33.7099 93.1292 33.6291L93.1472 33.647C92.6542 33.9808 92.4813 34.2611 92.4813 34.2789C92.4813 34.3692 92.5354 34.4144 92.6266 34.4144C92.6998 34.4144 92.7909 34.3598 92.8546 34.3241C93.2108 34.0711 93.2829 34.0259 93.6762 33.8811C94.2138 33.6732 94.4428 33.5199 94.4428 32.8512C94.4428 32.6706 94.4152 32.5982 94.2053 32.5531C93.8226 32.4722 93.4398 32.4271 93.056 32.4271C91.0585 32.4271 89.4077 33.2848 89.1246 33.7456C88.9783 33.9892 88.8331 34.6485 88.8331 34.9466C88.8331 35.4883 89.307 35.6332 89.764 35.7056C90.2018 35.778 92.7284 36.1392 92.7284 36.6C92.7284 36.7449 91.8346 37.675 88.5776 37.5574V37.5396C88.6327 37.485 88.6783 37.4409 88.7323 37.4042C88.796 37.3674 88.8871 37.3223 88.8871 37.232C88.8871 37.1774 88.8596 37.168 88.814 37.168C88.6772 37.168 88.1386 37.3401 88.0294 37.4304C87.8831 37.5658 87.564 38.0446 87.564 38.2335C87.564 38.7574 88.6772 38.7574 89.0324 38.7574C90.3471 38.7595 93.531 38.4708 93.531 36.6725Z" fill="white"/>
</g>
</mask>
<g mask="url(#mask8_654_114328)">
<g id="Group_18">
<rect id="Rectangle_9" x="-5.01807" y="-15.0069" width="120.973" height="68.7617" fill="#233038"/>
</g>
</g>
</g>
</g>
<g id="Group_19">
<path id="Vector_19" d="M101.593 37.8294C101.447 37.8294 101.31 37.7664 101.31 37.6131C101.31 37.189 102.104 36.557 102.104 36.2673C102.104 36.0689 102.013 35.9692 101.84 35.8967C101.922 35.8694 102.159 35.7791 102.159 35.671C102.159 35.5629 101.985 35.228 101.567 35.2374C100.653 35.2605 98.7612 36.1256 98.2852 37.0893C97.4646 37.7843 97.2567 37.9081 96.5231 37.8567C97.5451 36.9623 98.001 36.3397 98.001 35.8421C98.001 35.607 97.8643 35.418 97.6183 35.418C97.1253 35.418 96.2039 36.0143 95.8127 36.2946L95.7947 36.2767C95.977 35.8705 96.2601 35.5366 96.5697 35.2112C96.716 35.0579 97.19 34.6244 97.19 34.4249C97.19 34.2538 96.8984 34.2086 96.7701 34.2086C96.4234 34.2086 96.2591 34.47 96.0407 34.7052L93.6233 37.2793L93.6604 37.7034L95.1023 36.3397L95.1204 36.3576C94.5277 37.3517 94.0707 38.0918 93.6509 38.6787C93.2766 39.2025 93.0762 39.6539 93.0858 40.1054C93.0858 40.2681 93.1398 40.5116 93.3498 40.5116C93.5237 40.5116 93.6869 40.2681 93.7601 40.1327L94.6178 38.4708C94.7366 38.4981 94.8553 38.5254 94.9825 38.5254C95.1289 38.5254 95.2656 38.4981 95.4024 38.4708C95.6219 38.58 95.8032 38.6514 96.0502 38.6514C96.8751 38.6514 97.5844 38.1947 98.1898 37.6646C98.2767 38.1107 98.7421 38.6146 98.9775 38.6146C99.1874 38.6146 99.7716 38.1454 99.9445 38.01L100.783 37.3412L100.802 37.3591C100.683 37.6026 100.464 38.0813 100.464 38.3711C100.464 38.6325 100.601 38.8498 100.902 38.8498C101.349 38.8498 102.571 37.8829 102.964 37.441L102.891 37.1061C102.496 37.3685 101.976 37.8294 101.593 37.8294ZM96.0025 37.694C95.7565 37.6131 95.501 37.5858 95.2359 37.6037C95.4819 37.2793 95.7374 36.9717 96.0746 36.7282C96.1933 36.6463 96.6312 36.367 96.7765 36.367C96.8496 36.367 96.8772 36.43 96.8772 36.4941C96.8772 36.6568 96.75 36.81 96.6492 36.936L96.0025 37.694ZM99.021 37.9554C98.8842 37.9827 98.8471 37.82 98.8386 37.7748C98.8386 37.3318 99.1026 36.7817 101.274 36.1224L101.292 36.1403C99.4864 37.947 99.2034 37.9197 99.021 37.9554Z" fill="#233038"/>
<g id="Clip path group_10">
<mask id="mask9_654_114328" style="mask-type:luminance" maskUnits="userSpaceOnUse" x="93" y="34" width="10" height="7">
<g id="SVGID_00000132768033947624751060000004745939882551028371_">
<path id="Vector_20" d="M101.593 37.8294C101.447 37.8294 101.31 37.7664 101.31 37.6131C101.31 37.189 102.104 36.557 102.104 36.2673C102.104 36.0689 102.013 35.9692 101.84 35.8967C101.922 35.8694 102.159 35.7791 102.159 35.671C102.159 35.5629 101.985 35.228 101.567 35.2374C100.653 35.2605 98.7612 36.1256 98.2852 37.0893C97.4646 37.7843 97.2567 37.9081 96.5231 37.8567C97.5451 36.9623 98.001 36.3397 98.001 35.8421C98.001 35.607 97.8643 35.418 97.6183 35.418C97.1253 35.418 96.2039 36.0143 95.8127 36.2946L95.7947 36.2767C95.977 35.8705 96.2601 35.5366 96.5697 35.2112C96.716 35.0579 97.19 34.6244 97.19 34.4249C97.19 34.2538 96.8984 34.2086 96.7701 34.2086C96.4234 34.2086 96.2591 34.47 96.0407 34.7052L93.6233 37.2793L93.6604 37.7034L95.1023 36.3397L95.1204 36.3576C94.5277 37.3517 94.0707 38.0918 93.6509 38.6787C93.2766 39.2025 93.0762 39.6539 93.0858 40.1054C93.0858 40.2681 93.1398 40.5116 93.3498 40.5116C93.5237 40.5116 93.6869 40.2681 93.7601 40.1327L94.6178 38.4708C94.7366 38.4981 94.8553 38.5254 94.9825 38.5254C95.1289 38.5254 95.2656 38.4981 95.4024 38.4708C95.6219 38.58 95.8032 38.6514 96.0502 38.6514C96.8751 38.6514 97.5844 38.1947 98.1898 37.6646C98.2767 38.1107 98.7421 38.6146 98.9775 38.6146C99.1874 38.6146 99.7716 38.1454 99.9445 38.01L100.783 37.3412L100.802 37.3591C100.683 37.6026 100.464 38.0813 100.464 38.3711C100.464 38.6325 100.601 38.8498 100.902 38.8498C101.349 38.8498 102.571 37.8829 102.964 37.441L102.891 37.1061C102.496 37.3685 101.976 37.8294 101.593 37.8294ZM96.0025 37.694C95.7565 37.6131 95.501 37.5858 95.2359 37.6037C95.4819 37.2793 95.7374 36.9717 96.0746 36.7282C96.1933 36.6463 96.6312 36.367 96.7765 36.367C96.8496 36.367 96.8772 36.43 96.8772 36.4941C96.8772 36.6568 96.75 36.81 96.6492 36.936L96.0025 37.694ZM99.021 37.9554C98.8842 37.9827 98.8471 37.82 98.8386 37.7748C98.8386 37.3318 99.1026 36.7817 101.274 36.1224L101.292 36.1403C99.4864 37.947 99.2034 37.9197 99.021 37.9554Z" fill="white"/>
</g>
</mask>
<g mask="url(#mask9_654_114328)">
<g id="Group_20">
<rect id="Rectangle_10" x="-5.01807" y="-15.0068" width="120.973" height="68.7617" fill="#233038"/>
</g>
</g>
</g>
</g>
<g id="Group_21">
<path id="Vector_21" d="M62.6063 22.0479C62.6063 20.9708 62.6583 20.2275 62.7622 19.8223C62.9212 19.1998 63.2584 18.6759 63.7662 18.2528C64.2762 17.8329 64.8508 17.623 65.4933 17.623C66.0584 17.623 66.5154 17.7584 66.8632 18.0303C67.213 18.3053 67.4474 18.7147 67.5693 19.2575C67.6499 19.5693 67.688 20.2023 67.688 21.1429V25.0492H68.7546V20.8364C68.7546 19.7226 68.6422 18.9048 68.4132 18.3788C68.1832 17.8508 67.829 17.4308 67.3519 17.118C66.8727 16.8115 66.3246 16.6561 65.7075 16.6561C65.1 16.6561 64.5381 16.7947 64.0217 17.0729C63.5033 17.3511 63.0346 17.7731 62.6063 18.3305V16.8619H61.5439V25.0786H62.6063V22.0479Z" fill="#233038"/>
<g id="Clip path group_11">
<mask id="mask10_654_114328" style="mask-type:luminance" maskUnits="userSpaceOnUse" x="61" y="16" width="8" height="10">
<g id="SVGID_00000094591207082426137930000005203984747126652351_">
<path id="Vector_22" d="M62.6063 22.0479C62.6063 20.9708 62.6583 20.2275 62.7622 19.8223C62.9212 19.1998 63.2584 18.6759 63.7662 18.2528C64.2762 17.8329 64.8508 17.623 65.4933 17.623C66.0584 17.623 66.5154 17.7584 66.8632 18.0303C67.213 18.3053 67.4474 18.7147 67.5693 19.2575C67.6499 19.5693 67.688 20.2023 67.688 21.1429V25.0492H68.7546V20.8364C68.7546 19.7226 68.6422 18.9048 68.4132 18.3788C68.1832 17.8508 67.829 17.4308 67.3519 17.118C66.8727 16.8115 66.3246 16.6561 65.7075 16.6561C65.1 16.6561 64.5381 16.7947 64.0217 17.0729C63.5033 17.3511 63.0346 17.7731 62.6063 18.3305V16.8619H61.5439V25.0786H62.6063V22.0479Z" fill="white"/>
</g>
</mask>
<g mask="url(#mask10_654_114328)">
<g id="Group_22">
<rect id="Rectangle_11" x="-5.01807" y="-15.0069" width="120.973" height="68.7617" fill="#233038"/>
</g>
</g>
</g>
</g>
<g id="Group_23">
<path id="Vector_23" d="M77.1559 18.3651C76.7414 17.7961 76.2579 17.3699 75.7098 17.0823C75.1606 16.7957 74.5456 16.6571 73.866 16.6571C72.6891 16.6571 71.6883 17.0739 70.8518 17.9116C70.0152 18.7483 69.5996 19.7561 69.5996 20.9392C69.5996 22.1391 70.012 23.1606 70.8433 23.9994C71.6681 24.8413 72.6669 25.2602 73.8363 25.2602C74.4937 25.2602 75.1001 25.1269 75.6578 24.8571C76.207 24.5841 76.7106 24.1799 77.1559 23.6446V25.0513H78.2045V16.8639H77.1559V18.3651ZM76.8071 22.6745C76.5198 23.169 76.119 23.5616 75.6006 23.8524C75.0789 24.1453 74.5276 24.2881 73.9466 24.2881C73.3698 24.2881 72.8259 24.1422 72.3244 23.8451C71.8197 23.5574 71.4222 23.1459 71.1232 22.6179C70.8252 22.093 70.6726 21.545 70.6726 20.9686C70.6726 20.386 70.8242 19.8338 71.12 19.3131C71.4169 18.7924 71.8144 18.3903 72.3117 18.0995C72.8121 17.8098 73.3624 17.667 73.9508 17.667C74.8732 17.667 75.6483 17.9851 76.277 18.6213C76.9057 19.2606 77.2238 20.0458 77.2238 20.9991C77.2259 21.6184 77.0828 22.179 76.8071 22.6745Z" fill="#233038"/>
<g id="Clip path group_12">
<mask id="mask11_654_114328" style="mask-type:luminance" maskUnits="userSpaceOnUse" x="69" y="16" width="10" height="10">
<g id="SVGID_00000163039711920567442920000012076617666243997611_">
<path id="Vector_24" d="M77.1559 18.3651C76.7414 17.7961 76.2579 17.3699 75.7098 17.0823C75.1606 16.7957 74.5456 16.6571 73.866 16.6571C72.6891 16.6571 71.6883 17.0739 70.8518 17.9116C70.0152 18.7483 69.5996 19.7561 69.5996 20.9392C69.5996 22.1391 70.012 23.1606 70.8433 23.9994C71.6681 24.8413 72.6669 25.2602 73.8363 25.2602C74.4937 25.2602 75.1001 25.1269 75.6578 24.8571C76.207 24.5841 76.7106 24.1799 77.1559 23.6446V25.0513H78.2045V16.8639H77.1559V18.3651ZM76.8071 22.6745C76.5198 23.169 76.119 23.5616 75.6006 23.8524C75.0789 24.1453 74.5276 24.2881 73.9466 24.2881C73.3698 24.2881 72.8259 24.1422 72.3244 23.8451C71.8197 23.5574 71.4222 23.1459 71.1232 22.6179C70.8252 22.093 70.6726 21.545 70.6726 20.9686C70.6726 20.386 70.8242 19.8338 71.12 19.3131C71.4169 18.7924 71.8144 18.3903 72.3117 18.0995C72.8121 17.8098 73.3624 17.667 73.9508 17.667C74.8732 17.667 75.6483 17.9851 76.277 18.6213C76.9057 19.2606 77.2238 20.0458 77.2238 20.9991C77.2259 21.6184 77.0828 22.179 76.8071 22.6745Z" fill="white"/>
</g>
</mask>
<g mask="url(#mask11_654_114328)">
<g id="Group_24">
<rect id="Rectangle_12" x="-5.01807" y="-15.0069" width="120.973" height="68.7617" fill="#233038"/>
</g>
</g>
</g>
</g>
<g id="Group_25">
<path id="Vector_25" d="M95.4321 18.2056C94.7907 19.0181 94.4673 19.942 94.4673 20.976C94.4673 22.0835 94.8458 23.0714 95.6092 23.9501C96.3715 24.8235 97.4243 25.2592 98.7697 25.2592C99.3815 25.2592 99.9254 25.1721 100.406 24.9873C100.887 24.8046 101.321 24.5348 101.707 24.1842C102.093 23.8346 102.432 23.3727 102.724 22.7985L101.831 22.3323C101.503 22.8667 101.201 23.2562 100.925 23.4976C100.645 23.7359 100.306 23.927 99.9063 24.0687C99.5098 24.2146 99.1026 24.2892 98.6807 24.2892C97.806 24.2892 97.0723 23.9847 96.4807 23.3758C95.8859 22.7691 95.5816 21.9891 95.5615 21.0411H103C102.989 19.9199 102.686 18.9908 102.086 18.2413C101.243 17.1799 100.122 16.6561 98.7104 16.6561C97.3437 16.6561 96.2495 17.1694 95.4321 18.2056ZM96.6334 18.4345C97.2175 17.9222 97.9162 17.6597 98.7231 17.6597C99.2171 17.6597 99.6868 17.7647 100.131 17.9694C100.58 18.1741 100.938 18.4481 101.211 18.784C101.48 19.1221 101.689 19.5682 101.832 20.1299H95.6654C95.8869 19.3782 96.2114 18.8134 96.6334 18.4345Z" fill="#233038"/>
<g id="Clip path group_13">
<mask id="mask12_654_114328" style="mask-type:luminance" maskUnits="userSpaceOnUse" x="94" y="16" width="9" height="10">
<g id="SVGID_00000064318767829108902270000001768028732284719035_">
<path id="Vector_26" d="M95.4321 18.2056C94.7907 19.0181 94.4673 19.942 94.4673 20.976C94.4673 22.0835 94.8458 23.0714 95.6092 23.9501C96.3715 24.8235 97.4243 25.2592 98.7697 25.2592C99.3815 25.2592 99.9254 25.1721 100.406 24.9873C100.887 24.8046 101.321 24.5348 101.707 24.1842C102.093 23.8346 102.432 23.3727 102.724 22.7985L101.831 22.3323C101.503 22.8667 101.201 23.2562 100.925 23.4976C100.645 23.7359 100.306 23.927 99.9063 24.0687C99.5098 24.2146 99.1026 24.2892 98.6807 24.2892C97.806 24.2892 97.0723 23.9847 96.4807 23.3758C95.8859 22.7691 95.5816 21.9891 95.5615 21.0411H103C102.989 19.9199 102.686 18.9908 102.086 18.2413C101.243 17.1799 100.122 16.6561 98.7104 16.6561C97.3437 16.6561 96.2495 17.1694 95.4321 18.2056ZM96.6334 18.4345C97.2175 17.9222 97.9162 17.6597 98.7231 17.6597C99.2171 17.6597 99.6868 17.7647 100.131 17.9694C100.58 18.1741 100.938 18.4481 101.211 18.784C101.48 19.1221 101.689 19.5682 101.832 20.1299H95.6654C95.8869 19.3782 96.2114 18.8134 96.6334 18.4345Z" fill="white"/>
</g>
</mask>
<g mask="url(#mask12_654_114328)">
<g id="Group_26">
<rect id="Rectangle_13" x="-5.01807" y="-15.0069" width="120.973" height="68.7617" fill="#233038"/>
</g>
</g>
</g>
</g>
<g id="Group_27">
<path id="Vector_27" d="M92.7207 22.283C92.7207 20.8637 92.7864 19.9199 92.9158 19.4517C93.0886 18.846 93.3409 18.3977 93.6728 18.109C94.0004 17.8224 94.3418 17.6734 94.698 17.6734C94.8518 17.6734 95.0341 17.7258 95.2578 17.8193L95.8092 16.9353C95.4794 16.7474 95.1635 16.6561 94.8698 16.6561C94.4807 16.6561 94.1075 16.7726 93.746 17.0025C93.3844 17.2377 93.0441 17.5894 92.7186 18.0597V16.8608H91.6318V25.0482H92.7186V22.283H92.7207Z" fill="#233038"/>
<g id="Clip path group_14">
<mask id="mask13_654_114328" style="mask-type:luminance" maskUnits="userSpaceOnUse" x="91" y="16" width="5" height="10">
<g id="SVGID_00000158709080869419209510000009421075763319922332_">
<path id="Vector_28" d="M92.7207 22.283C92.7207 20.8637 92.7864 19.9199 92.9158 19.4517C93.0886 18.846 93.3409 18.3977 93.6728 18.109C94.0004 17.8224 94.3418 17.6734 94.698 17.6734C94.8518 17.6734 95.0341 17.7258 95.2578 17.8193L95.8092 16.9353C95.4794 16.7474 95.1635 16.6561 94.8698 16.6561C94.4807 16.6561 94.1075 16.7726 93.746 17.0025C93.3844 17.2377 93.0441 17.5894 92.7186 18.0597V16.8608H91.6318V25.0482H92.7186V22.283H92.7207Z" fill="white"/>
</g>
</mask>
<g mask="url(#mask13_654_114328)">
<g id="Group_28">
<rect id="Rectangle_14" x="-5.01855" y="-15.0069" width="120.973" height="68.7617" fill="#233038"/>
</g>
</g>
</g>
</g>
<g id="Group_29">
<path id="Vector_29" d="M80.2836 25.0492H81.3481V17.7731H83.0339V16.8619H81.3481V13.8258H80.2836V16.8619H78.8364V17.7731H80.2836V25.0492Z" fill="#233038"/>
<g id="Clip path group_15">
<mask id="mask14_654_114328" style="mask-type:luminance" maskUnits="userSpaceOnUse" x="78" y="13" width="6" height="13">
<g id="SVGID_00000181807552969373451270000011724001910532426161_">
<path id="Vector_30" d="M80.2836 25.0492H81.3481V17.7731H83.0339V16.8619H81.3481V13.8258H80.2836V16.8619H78.8364V17.7731H80.2836V25.0492Z" fill="white"/>
</g>
</mask>
<g mask="url(#mask14_654_114328)">
<g id="Group_30">
<rect id="Rectangle_15" x="-5.01807" y="-15.0068" width="120.973" height="68.7617" fill="#233038"/>
</g>
</g>
</g>
</g>
<g id="Group_31">
<path id="Vector_31" d="M90.4373 23.4283C90.7034 22.8604 90.836 22.008 90.836 20.8815V16.8618H89.7503V20.6884C89.7503 21.7119 89.6952 22.3775 89.5934 22.6987C89.4333 23.1575 89.146 23.5312 88.7346 23.8115C88.3221 24.0949 87.8175 24.2367 87.2269 24.2367C86.6289 24.2367 86.1179 24.0949 85.6928 23.8C85.2644 23.5081 84.9729 23.1165 84.8202 22.6105C84.7173 22.2568 84.6696 21.6185 84.6696 20.6884V16.8618H83.603V20.808C83.603 21.9691 83.7366 22.8415 84.0038 23.4231C84.2678 23.9994 84.6686 24.4519 85.2061 24.7742C85.7489 25.1017 86.4222 25.2592 87.2248 25.2592C88.0306 25.2592 88.7007 25.1007 89.2371 24.7742C89.7704 24.4508 90.1691 24.0005 90.4373 23.4283Z" fill="#233038"/>
<g id="Clip path group_16">
<mask id="mask15_654_114328" style="mask-type:luminance" maskUnits="userSpaceOnUse" x="83" y="16" width="8" height="10">
<g id="SVGID_00000106121287959831518610000003456553674535820423_">
<path id="Vector_32" d="M90.4373 23.4283C90.7034 22.8604 90.836 22.008 90.836 20.8815V16.8618H89.7503V20.6884C89.7503 21.7119 89.6952 22.3775 89.5934 22.6987C89.4333 23.1575 89.146 23.5312 88.7346 23.8115C88.3221 24.0949 87.8175 24.2367 87.2269 24.2367C86.6289 24.2367 86.1179 24.0949 85.6928 23.8C85.2644 23.5081 84.9729 23.1165 84.8202 22.6105C84.7173 22.2568 84.6696 21.6185 84.6696 20.6884V16.8618H83.603V20.808C83.603 21.9691 83.7366 22.8415 84.0038 23.4231C84.2678 23.9994 84.6686 24.4519 85.2061 24.7742C85.7489 25.1017 86.4222 25.2592 87.2248 25.2592C88.0306 25.2592 88.7007 25.1007 89.2371 24.7742C89.7704 24.4508 90.1691 24.0005 90.4373 23.4283Z" fill="white"/>
</g>
</mask>
<g mask="url(#mask15_654_114328)">
<g id="Group_32">
<rect id="Rectangle_16" x="-5.01807" y="-15.0068" width="120.973" height="68.7617" fill="#233038"/>
</g>
</g>
</g>
</g>
<g id="Group_33">
<path id="Vector_33" d="M2.11289 15.5989H3.59192C6.16724 15.5989 7.92299 15.4845 8.86342 15.2619C10.1505 14.9523 11.1567 14.3549 11.8936 13.4668C12.0579 13.2673 12.201 13.0542 12.3283 12.8317C12.3272 12.9167 12.324 13.0017 12.324 13.0868C12.324 16.6487 13.5984 19.6837 16.1441 22.1938C17.9645 23.9889 20.0829 25.1374 22.4917 25.6486C22.4938 25.6602 22.497 25.6696 22.4991 25.6812C20.1253 25.9468 18.1246 26.6082 16.9074 27.5015C18.8869 26.7362 21.6955 26.2586 24.8115 26.2586C25.0405 26.2586 25.2706 26.2638 25.4996 26.2638C25.4848 26.3468 25.4689 26.4255 25.4498 26.499C25.4328 26.5777 25.418 26.6501 25.4095 26.7215C24.4383 26.8013 23.6771 27.0396 23.4459 27.3388C23.8128 27.09 24.5348 26.9105 25.3851 26.8832C25.2939 27.7125 25.682 27.7125 25.682 27.7125C25.682 27.7125 25.7445 27.3829 25.8336 26.8832C27.0698 26.9199 28.0357 27.279 28.0357 27.7188C28.0357 27.9256 27.8183 28.1167 27.4642 28.2605C28.2679 28.1167 28.8065 27.8448 28.8065 27.5393C28.8065 27.0711 27.5851 26.6942 26.088 26.6942C26.0149 26.6942 25.9449 26.6953 25.8718 26.6995C25.8919 26.5651 25.9184 26.4255 25.9492 26.2806C28.605 26.3803 30.9768 26.8297 32.7156 27.5026C31.6225 26.7037 29.8932 26.0864 27.83 25.7746C30.4976 25.3442 32.8269 24.1495 34.8149 22.1791C36.3427 20.6611 37.4061 18.9457 38.0147 17.034V25.0954H40.0842V6.57488H43.7421C45.1649 6.57488 46.1795 6.69351 46.7934 6.93601C47.4009 7.17746 47.8961 7.58373 48.2746 8.14538C48.6488 8.70702 48.8365 9.33165 48.8365 10.0203C48.8365 10.7321 48.652 11.3693 48.2788 11.9414C47.9109 12.5136 47.3914 12.9282 46.7266 13.1886C46.0608 13.45 45.0409 13.5791 43.6562 13.5791L40.6642 13.5602L48.9648 25.0954H51.2751L44.1396 15.5622C45.8763 15.5527 46.9207 15.3344 47.9109 14.8977C48.8948 14.4662 49.6518 13.8258 50.1819 12.9786C50.7142 12.1304 50.9824 11.1488 50.9824 10.0287C50.9824 8.68917 50.5923 7.55854 49.8225 6.63997C49.0528 5.72034 48.053 5.12406 46.8221 4.84481C46.0035 4.6569 44.4439 4.56452 42.1432 4.56452H38.0136V8.88653C37.404 6.96435 36.3374 5.25003 34.8053 3.74778C32.2565 1.25031 29.0917 0 25.312 0C22.9773 0 20.8123 0.573189 18.8074 1.72377C16.8057 2.87015 15.2238 4.45849 14.0618 6.48669C13.5794 7.33073 13.1998 8.20311 12.9178 9.10594C12.7757 8.17477 12.4237 7.37272 11.8618 6.70085C11.1101 5.80223 10.1399 5.21014 8.95778 4.91935C8.13292 4.71674 6.5362 4.61491 4.16551 4.61491H0.0390625V25.1374H2.11289V15.5989ZM15.7624 9.04505C16.7431 7.33178 18.114 5.97439 19.8634 4.96659C21.6128 3.95878 23.4671 3.45173 25.4222 3.45173C27.4102 3.45173 29.29 3.95878 31.069 4.96659C32.8407 5.97439 34.219 7.31918 35.1944 8.99781C36.173 10.6764 36.6629 12.5556 36.6629 14.63C36.6629 16.7201 36.173 18.6181 35.1944 20.3272C34.219 22.0331 32.8598 23.38 31.1146 24.3637C29.9038 25.0492 28.6188 25.4891 27.2617 25.698C26.8747 25.6518 26.4782 25.614 26.0721 25.5899C26.3043 24.328 26.5492 22.9097 26.562 22.6105C27.953 21.7843 29.2136 20.9581 29.2136 20.9581L26.1326 18.6528C26.4273 18.7315 26.6977 18.7725 26.9278 18.7588C28.7291 18.658 29.0291 17.9127 29.8201 18.1111C30.3767 18.8774 32.9563 18.9919 33.3316 17.9116C31.1284 18.1877 28.1544 12.9828 25.4742 13.1792C22.7971 13.3765 22.8342 12.2385 23.7513 10.2733C24.3323 9.01566 23.8637 8.14852 23.1692 7.70971C23.6728 7.57848 23.8467 7.19846 24.0736 6.77224C23.4258 7.21525 22.3878 7.34123 22.0337 7.37377C21.9955 7.37377 21.9584 7.37692 21.9224 7.38217H21.9149C20.9236 7.52389 20.5748 9.28545 20.5748 9.28545L17.955 12.9241C17.955 12.9241 20.2175 10.2901 21.089 9.70327C21.5481 9.70327 22.1673 9.69802 22.3825 9.22982C22.3825 9.22982 23.0759 9.11014 21.8482 12.4506C21.019 14.6919 22.7769 16.8083 24.5677 17.9326L25.4233 18.6244L26.1866 22.388L24.9621 23.1648C24.9621 23.1648 24.08 23.3916 23.8234 23.6519C23.5626 23.907 23.7417 25.151 23.7417 25.151C23.8987 24.666 23.7417 24.2188 25.4784 23.2425C25.7042 23.1134 25.9343 22.9822 26.1665 22.8467C26.0615 23.3916 25.841 24.5915 25.6417 25.5731C25.3713 25.5626 25.0935 25.5531 24.8126 25.5531C24.2337 25.5531 23.6675 25.5794 23.1183 25.6234C23.0134 25.6024 22.9084 25.5804 22.8045 25.5563C22.8342 25.297 22.8458 24.9705 22.8299 24.5999C22.9391 23.7212 23.3039 22.558 24.4383 22.1749C23.4215 22.3901 22.9667 23.2089 22.7716 23.9616C22.5246 22.0447 21.5078 19.4958 18.5498 18.931C21.9096 20.3419 21.7379 23.1375 21.7379 23.1375C21.7379 23.1375 19.9482 20.1949 20.121 20.5225C20.8876 21.966 20.9925 22.9234 20.9925 22.9234L19.8549 22.8047C19.8549 22.8047 21.9393 23.3601 22.4557 25.4702C20.6257 24.9915 18.9876 24.0477 17.5478 22.6357C15.3743 20.4899 14.2865 17.8654 14.2865 14.757C14.2855 12.6553 14.7795 10.752 15.7624 9.04505ZM26.5132 22.1801C26.3892 21.4327 26.0721 19.9503 25.8993 19.0108L28.358 21.0054L26.5132 22.1801ZM2.11289 6.62002H5.77283C7.17658 6.62002 8.18487 6.74285 8.79981 6.98535C9.41156 7.22785 9.90988 7.63202 10.2852 8.20311C10.6616 8.77315 10.8461 9.39988 10.8461 10.0885C10.8461 10.7951 10.6616 11.4375 10.2852 12.0034C9.90988 12.5745 9.3946 12.987 8.73937 13.2421C8.07991 13.4972 7.03981 13.6253 5.61909 13.6253L2.11289 13.5854V6.62002Z" fill="#233038"/>
<g id="Clip path group_17">
<mask id="mask16_654_114328" style="mask-type:luminance" maskUnits="userSpaceOnUse" x="0" y="0" width="52" height="29">
<g id="SVGID_00000093894685007923340280000013602214832923362946_">
<path id="Vector_34" d="M2.11289 15.5989H3.59192C6.16724 15.5989 7.92299 15.4845 8.86342 15.2619C10.1505 14.9523 11.1567 14.3549 11.8936 13.4668C12.0579 13.2673 12.201 13.0542 12.3283 12.8317C12.3272 12.9167 12.324 13.0017 12.324 13.0868C12.324 16.6487 13.5984 19.6837 16.1441 22.1938C17.9645 23.9889 20.0829 25.1374 22.4917 25.6486C22.4938 25.6602 22.497 25.6696 22.4991 25.6812C20.1253 25.9468 18.1246 26.6082 16.9074 27.5015C18.8869 26.7362 21.6955 26.2586 24.8115 26.2586C25.0405 26.2586 25.2706 26.2638 25.4996 26.2638C25.4848 26.3468 25.4689 26.4255 25.4498 26.499C25.4328 26.5777 25.418 26.6501 25.4095 26.7215C24.4383 26.8013 23.6771 27.0396 23.4459 27.3388C23.8128 27.09 24.5348 26.9105 25.3851 26.8832C25.2939 27.7125 25.682 27.7125 25.682 27.7125C25.682 27.7125 25.7445 27.3829 25.8336 26.8832C27.0698 26.9199 28.0357 27.279 28.0357 27.7188C28.0357 27.9256 27.8183 28.1167 27.4642 28.2605C28.2679 28.1167 28.8065 27.8448 28.8065 27.5393C28.8065 27.0711 27.5851 26.6942 26.088 26.6942C26.0149 26.6942 25.9449 26.6953 25.8718 26.6995C25.8919 26.5651 25.9184 26.4255 25.9492 26.2806C28.605 26.3803 30.9768 26.8297 32.7156 27.5026C31.6225 26.7037 29.8932 26.0864 27.83 25.7746C30.4976 25.3442 32.8269 24.1495 34.8149 22.1791C36.3427 20.6611 37.4061 18.9457 38.0147 17.034V25.0954H40.0842V6.57488H43.7421C45.1649 6.57488 46.1795 6.69351 46.7934 6.93601C47.4009 7.17746 47.8961 7.58373 48.2746 8.14538C48.6488 8.70702 48.8365 9.33165 48.8365 10.0203C48.8365 10.7321 48.652 11.3693 48.2788 11.9414C47.9109 12.5136 47.3914 12.9282 46.7266 13.1886C46.0608 13.45 45.0409 13.5791 43.6562 13.5791L40.6642 13.5602L48.9648 25.0954H51.2751L44.1396 15.5622C45.8763 15.5527 46.9207 15.3344 47.9109 14.8977C48.8948 14.4662 49.6518 13.8258 50.1819 12.9786C50.7142 12.1304 50.9824 11.1488 50.9824 10.0287C50.9824 8.68917 50.5923 7.55854 49.8225 6.63997C49.0528 5.72034 48.053 5.12406 46.8221 4.84481C46.0035 4.6569 44.4439 4.56452 42.1432 4.56452H38.0136V8.88653C37.404 6.96435 36.3374 5.25003 34.8053 3.74778C32.2565 1.25031 29.0917 0 25.312 0C22.9773 0 20.8123 0.573189 18.8074 1.72377C16.8057 2.87015 15.2238 4.45849 14.0618 6.48669C13.5794 7.33073 13.1998 8.20311 12.9178 9.10594C12.7757 8.17477 12.4237 7.37272 11.8618 6.70085C11.1101 5.80223 10.1399 5.21014 8.95778 4.91935C8.13292 4.71674 6.5362 4.61491 4.16551 4.61491H0.0390625V25.1374H2.11289V15.5989ZM15.7624 9.04505C16.7431 7.33178 18.114 5.97439 19.8634 4.96659C21.6128 3.95878 23.4671 3.45173 25.4222 3.45173C27.4102 3.45173 29.29 3.95878 31.069 4.96659C32.8407 5.97439 34.219 7.31918 35.1944 8.99781C36.173 10.6764 36.6629 12.5556 36.6629 14.63C36.6629 16.7201 36.173 18.6181 35.1944 20.3272C34.219 22.0331 32.8598 23.38 31.1146 24.3637C29.9038 25.0492 28.6188 25.4891 27.2617 25.698C26.8747 25.6518 26.4782 25.614 26.0721 25.5899C26.3043 24.328 26.5492 22.9097 26.562 22.6105C27.953 21.7843 29.2136 20.9581 29.2136 20.9581L26.1326 18.6528C26.4273 18.7315 26.6977 18.7725 26.9278 18.7588C28.7291 18.658 29.0291 17.9127 29.8201 18.1111C30.3767 18.8774 32.9563 18.9919 33.3316 17.9116C31.1284 18.1877 28.1544 12.9828 25.4742 13.1792C22.7971 13.3765 22.8342 12.2385 23.7513 10.2733C24.3323 9.01566 23.8637 8.14852 23.1692 7.70971C23.6728 7.57848 23.8467 7.19846 24.0736 6.77224C23.4258 7.21525 22.3878 7.34123 22.0337 7.37377C21.9955 7.37377 21.9584 7.37692 21.9224 7.38217H21.9149C20.9236 7.52389 20.5748 9.28545 20.5748 9.28545L17.955 12.9241C17.955 12.9241 20.2175 10.2901 21.089 9.70327C21.5481 9.70327 22.1673 9.69802 22.3825 9.22982C22.3825 9.22982 23.0759 9.11014 21.8482 12.4506C21.019 14.6919 22.7769 16.8083 24.5677 17.9326L25.4233 18.6244L26.1866 22.388L24.9621 23.1648C24.9621 23.1648 24.08 23.3916 23.8234 23.6519C23.5626 23.907 23.7417 25.151 23.7417 25.151C23.8987 24.666 23.7417 24.2188 25.4784 23.2425C25.7042 23.1134 25.9343 22.9822 26.1665 22.8467C26.0615 23.3916 25.841 24.5915 25.6417 25.5731C25.3713 25.5626 25.0935 25.5531 24.8126 25.5531C24.2337 25.5531 23.6675 25.5794 23.1183 25.6234C23.0134 25.6024 22.9084 25.5804 22.8045 25.5563C22.8342 25.297 22.8458 24.9705 22.8299 24.5999C22.9391 23.7212 23.3039 22.558 24.4383 22.1749C23.4215 22.3901 22.9667 23.2089 22.7716 23.9616C22.5246 22.0447 21.5078 19.4958 18.5498 18.931C21.9096 20.3419 21.7379 23.1375 21.7379 23.1375C21.7379 23.1375 19.9482 20.1949 20.121 20.5225C20.8876 21.966 20.9925 22.9234 20.9925 22.9234L19.8549 22.8047C19.8549 22.8047 21.9393 23.3601 22.4557 25.4702C20.6257 24.9915 18.9876 24.0477 17.5478 22.6357C15.3743 20.4899 14.2865 17.8654 14.2865 14.757C14.2855 12.6553 14.7795 10.752 15.7624 9.04505ZM26.5132 22.1801C26.3892 21.4327 26.0721 19.9503 25.8993 19.0108L28.358 21.0054L26.5132 22.1801ZM2.11289 6.62002H5.77283C7.17658 6.62002 8.18487 6.74285 8.79981 6.98535C9.41156 7.22785 9.90988 7.63202 10.2852 8.20311C10.6616 8.77315 10.8461 9.39988 10.8461 10.0885C10.8461 10.7951 10.6616 11.4375 10.2852 12.0034C9.90988 12.5745 9.3946 12.987 8.73937 13.2421C8.07991 13.4972 7.03981 13.6253 5.61909 13.6253L2.11289 13.5854V6.62002Z" fill="white"/>
</g>
</mask>
<g mask="url(#mask16_654_114328)">
<g id="Group_34">
<rect id="Rectangle_17" x="-5.01807" y="-15.0069" width="120.973" height="68.7617" fill="#233038"/>
</g>
</g>
</g>
</g>
<g id="Group_35">
<path id="Vector_35" d="M25.8993 29.3146C24.8455 29.5781 22.9773 29.2442 22.6529 29.1046L22.6094 29.1477C22.109 29.7628 25.295 29.9004 24.7479 29.9004C24.1945 29.9004 22.8215 30.0809 22.6805 30.6772C22.5373 31.2756 24.7606 31.1496 24.9568 31.347C25.1529 31.5391 22.6529 31.5958 22.6529 31.7659C22.6529 31.9317 24.7999 31.7658 24.7999 32C24.7999 32.2362 22.5182 32.274 22.2595 32.5301C21.9977 32.7852 23.8605 32.8482 24.1128 33.1012C24.3673 33.3479 23.5583 33.3689 23.4141 33.5159C23.2646 33.6607 24.8136 33.2083 24.8136 33.0602C24.8136 32.9049 22.9773 32.5721 23.4979 32.5721C24.0164 32.5721 25.9693 32.0734 26.0679 31.8477C26.1686 31.6273 25.3586 31.6871 25.4763 31.5695C25.5972 31.452 26.0107 31.4163 26.0107 31.1633C26.0107 30.7465 23.7057 30.8998 23.4979 30.483C23.289 30.0694 26.9352 30.2615 27.1504 30.0536C27.3593 29.8437 25.9004 29.9277 25.7297 29.7628C25.5632 29.5917 28.604 29.6148 28.8627 29.3576C29.1235 29.1025 26.9532 29.0542 25.8993 29.3146Z" fill="#233038"/>
<g id="Clip path group_18">
<mask id="mask17_654_114328" style="mask-type:luminance" maskUnits="userSpaceOnUse" x="22" y="29" width="7" height="5">
<g id="SVGID_00000147210058175487621040000011246561286208671908_">
<path id="Vector_36" d="M25.8993 29.3146C24.8455 29.5781 22.9773 29.2442 22.6529 29.1046L22.6094 29.1477C22.109 29.7628 25.295 29.9004 24.7479 29.9004C24.1945 29.9004 22.8215 30.0809 22.6805 30.6772C22.5373 31.2756 24.7606 31.1496 24.9568 31.347C25.1529 31.5391 22.6529 31.5958 22.6529 31.7659C22.6529 31.9317 24.7999 31.7658 24.7999 32C24.7999 32.2362 22.5182 32.274 22.2595 32.5301C21.9977 32.7852 23.8605 32.8482 24.1128 33.1012C24.3673 33.3479 23.5583 33.3689 23.4141 33.5159C23.2646 33.6607 24.8136 33.2083 24.8136 33.0602C24.8136 32.9049 22.9773 32.5721 23.4979 32.5721C24.0164 32.5721 25.9693 32.0734 26.0679 31.8477C26.1686 31.6273 25.3586 31.6871 25.4763 31.5695C25.5972 31.452 26.0107 31.4163 26.0107 31.1633C26.0107 30.7465 23.7057 30.8998 23.4979 30.483C23.289 30.0694 26.9352 30.2615 27.1504 30.0536C27.3593 29.8437 25.9004 29.9277 25.7297 29.7628C25.5632 29.5917 28.604 29.6148 28.8627 29.3576C29.1235 29.1025 26.9532 29.0542 25.8993 29.3146Z" fill="white"/>
</g>
</mask>
<g mask="url(#mask17_654_114328)">
<g id="Group_36">
<rect id="Rectangle_18" x="-5.01807" y="-15.0069" width="120.973" height="68.7617" fill="#233038"/>
</g>
</g>
</g>
</g>
<g id="Group_37">
<path id="Vector_37" d="M23.5477 26.6501C22.3284 26.8685 21.5078 27.2789 21.5078 27.7514C21.5078 28.4537 23.3547 29.0269 25.6385 29.0269C27.5862 29.0269 29.2274 28.6101 29.661 28.0474C29.0514 28.46 27.8067 28.7476 26.3658 28.7476C24.3312 28.7476 22.6815 28.1776 22.6815 27.4711C22.6804 27.154 23.0091 26.8685 23.5477 26.6501Z" fill="#233038"/>
<g id="Clip path group_19">
<mask id="mask18_654_114328" style="mask-type:luminance" maskUnits="userSpaceOnUse" x="21" y="26" width="9" height="4">
<g id="SVGID_00000100353689503189019500000012495839141841894581_">
<path id="Vector_38" d="M23.5477 26.6501C22.3284 26.8685 21.5078 27.2789 21.5078 27.7514C21.5078 28.4537 23.3547 29.0269 25.6385 29.0269C27.5862 29.0269 29.2274 28.6101 29.661 28.0474C29.0514 28.46 27.8067 28.7476 26.3658 28.7476C24.3312 28.7476 22.6815 28.1776 22.6815 27.4711C22.6804 27.154 23.0091 26.8685 23.5477 26.6501Z" fill="white"/>
</g>
</mask>
<g mask="url(#mask18_654_114328)">
<g id="Group_38">
<rect id="Rectangle_19" x="-5.01855" y="-15.0069" width="120.973" height="68.7617" fill="#233038"/>
</g>
</g>
</g>
</g>
<g id="Group_39">
<path id="Vector_39" d="M24.7649 27.2716C24.3536 27.3451 24.0747 27.4847 24.0747 27.6433C24.0747 27.8837 24.7013 28.0758 25.471 28.0758C26.1326 28.0758 26.6871 27.9351 26.8292 27.7451C26.6278 27.8847 26.2037 27.9823 25.7149 27.9823C25.03 27.9823 24.4691 27.7892 24.4691 27.5467C24.4702 27.4417 24.5815 27.3451 24.7649 27.2716Z" fill="#233038"/>
<g id="Clip path group_20">
<mask id="mask19_654_114328" style="mask-type:luminance" maskUnits="userSpaceOnUse" x="24" y="27" width="3" height="2">
<g id="SVGID_00000035522985555997683440000008476694524611904901_">
<path id="Vector_40" d="M24.7649 27.2716C24.3536 27.3451 24.0747 27.4847 24.0747 27.6433C24.0747 27.8837 24.7013 28.0758 25.471 28.0758C26.1326 28.0758 26.6871 27.9351 26.8292 27.7451C26.6278 27.8847 26.2037 27.9823 25.7149 27.9823C25.03 27.9823 24.4691 27.7892 24.4691 27.5467C24.4702 27.4417 24.5815 27.3451 24.7649 27.2716Z" fill="white"/>
</g>
</mask>
<g mask="url(#mask19_654_114328)">
<g id="Group_40">
<rect id="Rectangle_20" x="-5.01855" y="-15.0068" width="120.973" height="68.7617" fill="#233038"/>
</g>
</g>
</g>
</g>
<g id="Group_41">
<path id="Vector_41" d="M29.6602 18.2318C30.7374 20.9718 34.7058 18.0197 34.7058 18.0197L33.0402 18.7011C31.3799 19.3834 29.6602 18.2318 29.6602 18.2318Z" fill="#233038"/>
<g id="Clip path group_21">
<mask id="mask20_654_114328" style="mask-type:luminance" maskUnits="userSpaceOnUse" x="29" y="18" width="6" height="2">
<g id="SVGID_00000036218585458845965000000006592828326485108124_">
<path id="Vector_42" d="M29.6602 18.2318C30.7374 20.9718 34.7058 18.0197 34.7058 18.0197L33.0402 18.7011C31.3799 19.3834 29.6602 18.2318 29.6602 18.2318Z" fill="white"/>
</g>
</mask>
<g mask="url(#mask20_654_114328)">
<g id="Group_42">
<rect id="Rectangle_21" x="-5.01807" y="-15.0069" width="120.973" height="68.7617" fill="#233038"/>
</g>
</g>
</g>
</g>
<g id="Group_43">
<path id="Vector_43" d="M56.1875 25.1982V6.67665H60.8112V4.67154H47.9707C48.8528 5.03162 49.6098 5.58066 50.2216 6.31342C50.3255 6.43205 50.4177 6.55278 50.5079 6.6777H54.0756V25.1982H56.1875Z" fill="#233038"/>
<g id="Clip path group_22">
<mask id="mask21_654_114328" style="mask-type:luminance" maskUnits="userSpaceOnUse" x="47" y="4" width="14" height="22">
<g id="SVGID_00000026164841874658531090000001402969137650605471_">
<path id="Vector_44" d="M56.1875 25.1982V6.67665H60.8112V4.67154H47.9707C48.8528 5.03162 49.6098 5.58066 50.2216 6.31342C50.3255 6.43205 50.4177 6.55278 50.5079 6.6777H54.0756V25.1982H56.1875Z" fill="white"/>
</g>
</mask>
<g mask="url(#mask21_654_114328)">
<g id="Group_44">
<rect id="Rectangle_22" x="-5.01807" y="-15.0068" width="120.973" height="68.7617" fill="#233038"/>
</g>
</g>
</g>
</g>
<g id="Group_45">
<path id="Vector_45" d="M21.5299 5.68891C21.7653 5.53669 22.0049 5.39287 22.254 5.26794C22.4343 5.18186 22.6304 5.12727 22.851 5.05169C22.851 5.24485 22.851 5.39707 22.8541 5.55244C22.9506 5.40547 23.0429 5.46636 23.1404 5.56924C23.1701 5.41177 23.1817 5.27949 23.221 5.15877C23.2422 5.10523 23.3291 5.03594 23.3758 5.04119C23.6366 5.06953 23.9069 5.08528 24.1519 5.16926C24.5738 5.31623 24.9757 5.5199 25.3923 5.68261C25.7009 5.80124 26.0189 5.89887 26.3391 6.00805C25.9309 5.78969 25.5058 5.61018 25.1389 5.35823C24.6396 5.01179 24.1052 4.78819 23.503 4.70315C23.397 4.69056 23.2963 4.59082 23.2178 4.50369C23.133 4.41446 22.9814 4.37772 22.9517 4.47745C22.8775 4.71785 22.6569 4.7441 22.4809 4.84383C22.1957 4.9929 21.8777 5.10942 21.6433 5.31728C21.1228 5.78129 20.6647 6.31774 20.0127 6.62218C20.1579 6.57704 20.3 6.52455 20.4219 6.44477C20.7962 6.20121 21.1588 5.93456 21.5299 5.68891Z" fill="#233038"/>
<g id="Clip path group_23">
<mask id="mask22_654_114328" style="mask-type:luminance" maskUnits="userSpaceOnUse" x="20" y="4" width="7" height="3">
<g id="SVGID_00000074441148527001365490000017237805994647706770_">
<path id="Vector_46" d="M21.5299 5.68891C21.7653 5.53669 22.0049 5.39287 22.254 5.26794C22.4343 5.18186 22.6304 5.12727 22.851 5.05169C22.851 5.24485 22.851 5.39707 22.8541 5.55244C22.9506 5.40547 23.0429 5.46636 23.1404 5.56924C23.1701 5.41177 23.1817 5.27949 23.221 5.15877C23.2422 5.10523 23.3291 5.03594 23.3758 5.04119C23.6366 5.06953 23.9069 5.08528 24.1519 5.16926C24.5738 5.31623 24.9757 5.5199 25.3923 5.68261C25.7009 5.80124 26.0189 5.89887 26.3391 6.00805C25.9309 5.78969 25.5058 5.61018 25.1389 5.35823C24.6396 5.01179 24.1052 4.78819 23.503 4.70315C23.397 4.69056 23.2963 4.59082 23.2178 4.50369C23.133 4.41446 22.9814 4.37772 22.9517 4.47745C22.8775 4.71785 22.6569 4.7441 22.4809 4.84383C22.1957 4.9929 21.8777 5.10942 21.6433 5.31728C21.1228 5.78129 20.6647 6.31774 20.0127 6.62218C20.1579 6.57704 20.3 6.52455 20.4219 6.44477C20.7962 6.20121 21.1588 5.93456 21.5299 5.68891Z" fill="white"/>
</g>
</mask>
<g mask="url(#mask22_654_114328)">
<g id="Group_46">
<rect id="Rectangle_23" x="-5.01855" y="-15.0069" width="120.973" height="68.7617" fill="#233038"/>
</g>
</g>
</g>
</g>
<g id="Group_47">
<path id="Vector_47" d="M27.5685 8.01619C27.9534 8.04244 28.3192 8.265 28.7189 8.09178C28.8451 8.03929 28.9776 8.04244 29.0995 8.19466C29.2776 8.42772 29.5109 8.61668 29.7325 8.80984C30.1608 9.19512 30.1693 9.22241 29.8618 9.71372C29.8194 9.7767 29.7749 9.83654 29.7282 9.89428C29.5522 10.1221 29.3762 10.3499 29.2034 10.5766C29.213 10.5913 29.2193 10.5987 29.2289 10.6081C29.2978 10.5766 29.3678 10.541 29.46 10.4979C29.4409 10.5871 29.4314 10.648 29.407 10.7845C29.5745 10.6396 29.6879 10.542 29.8046 10.4412C30.0664 10.2071 30.3114 9.95412 30.5891 9.74206C30.6793 9.67487 30.8807 9.65808 30.9836 9.70847C31.4797 9.96672 31.9558 10.2554 32.4446 10.5252C32.4976 10.5588 32.5792 10.5357 32.6439 10.5588C32.7329 10.5934 32.8135 10.6449 32.8994 10.689C32.9058 10.7677 32.9121 10.8496 32.9195 10.9462C32.9768 10.9252 33.0203 10.9105 33.0616 10.8926C33.1104 11.133 33.1528 11.365 33.1941 11.5939C33.2132 11.5897 33.2313 11.5876 33.2472 11.5834C33.2567 11.5036 33.2673 11.4217 33.2832 11.2958C33.3638 11.533 33.4274 11.7241 33.491 11.912C33.5112 11.9067 33.5281 11.8994 33.5472 11.8931C33.5493 11.8406 33.5493 11.7955 33.5536 11.7472C33.7094 12.3057 34.2183 12.5912 34.5216 13.0279C34.5523 13.072 34.6032 13.0983 34.6668 13.1487C34.6647 13.0825 34.6721 13.0552 34.6594 13.0279C34.3297 12.1398 34.0169 11.2412 33.6448 10.3635C33.4274 9.83549 33.0807 9.41033 32.452 9.24866C32.1403 9.17307 31.8689 8.92742 31.5868 8.76365C31.836 8.18101 32.3301 8.03299 32.7711 7.81148C32.5273 7.82513 32.277 7.92381 32.0555 7.88182C31.7501 7.82513 31.5275 7.90072 31.3175 8.08653C31.114 8.2692 30.8881 8.27969 30.6793 8.11593C30.5234 7.99205 30.3676 7.84403 30.287 7.66871C30.1746 7.43146 30.0219 7.31598 29.7706 7.35797C29.4377 7.41151 29.1154 7.485 28.7867 7.55009C28.2428 7.65821 27.7 7.76319 27.1519 7.86922C27.155 7.88602 27.155 7.90387 27.155 7.92276C27.2971 7.95636 27.4318 8.0078 27.5685 8.01619Z" fill="#233038"/>
<g id="Clip path group_24">
<mask id="mask23_654_114328" style="mask-type:luminance" maskUnits="userSpaceOnUse" x="27" y="7" width="8" height="7">
<g id="SVGID_00000062194597802078762380000008990465474994669956_">
<path id="Vector_48" d="M27.5685 8.01619C27.9534 8.04244 28.3192 8.265 28.7189 8.09178C28.8451 8.03929 28.9776 8.04244 29.0995 8.19466C29.2776 8.42772 29.5109 8.61668 29.7325 8.80984C30.1608 9.19512 30.1693 9.22241 29.8618 9.71372C29.8194 9.7767 29.7749 9.83654 29.7282 9.89428C29.5522 10.1221 29.3762 10.3499 29.2034 10.5766C29.213 10.5913 29.2193 10.5987 29.2289 10.6081C29.2978 10.5766 29.3678 10.541 29.46 10.4979C29.4409 10.5871 29.4314 10.648 29.407 10.7845C29.5745 10.6396 29.6879 10.542 29.8046 10.4412C30.0664 10.2071 30.3114 9.95412 30.5891 9.74206C30.6793 9.67487 30.8807 9.65808 30.9836 9.70847C31.4797 9.96672 31.9558 10.2554 32.4446 10.5252C32.4976 10.5588 32.5792 10.5357 32.6439 10.5588C32.7329 10.5934 32.8135 10.6449 32.8994 10.689C32.9058 10.7677 32.9121 10.8496 32.9195 10.9462C32.9768 10.9252 33.0203 10.9105 33.0616 10.8926C33.1104 11.133 33.1528 11.365 33.1941 11.5939C33.2132 11.5897 33.2313 11.5876 33.2472 11.5834C33.2567 11.5036 33.2673 11.4217 33.2832 11.2958C33.3638 11.533 33.4274 11.7241 33.491 11.912C33.5112 11.9067 33.5281 11.8994 33.5472 11.8931C33.5493 11.8406 33.5493 11.7955 33.5536 11.7472C33.7094 12.3057 34.2183 12.5912 34.5216 13.0279C34.5523 13.072 34.6032 13.0983 34.6668 13.1487C34.6647 13.0825 34.6721 13.0552 34.6594 13.0279C34.3297 12.1398 34.0169 11.2412 33.6448 10.3635C33.4274 9.83549 33.0807 9.41033 32.452 9.24866C32.1403 9.17307 31.8689 8.92742 31.5868 8.76365C31.836 8.18101 32.3301 8.03299 32.7711 7.81148C32.5273 7.82513 32.277 7.92381 32.0555 7.88182C31.7501 7.82513 31.5275 7.90072 31.3175 8.08653C31.114 8.2692 30.8881 8.27969 30.6793 8.11593C30.5234 7.99205 30.3676 7.84403 30.287 7.66871C30.1746 7.43146 30.0219 7.31598 29.7706 7.35797C29.4377 7.41151 29.1154 7.485 28.7867 7.55009C28.2428 7.65821 27.7 7.76319 27.1519 7.86922C27.155 7.88602 27.155 7.90387 27.155 7.92276C27.2971 7.95636 27.4318 8.0078 27.5685 8.01619Z" fill="white"/>
</g>
</mask>
<g mask="url(#mask23_654_114328)">
<g id="Group_48">
<rect id="Rectangle_24" x="-5.01807" y="-15.0069" width="120.973" height="68.7617" fill="#233038"/>
</g>
</g>
</g>
</g>
</g>
</svg>
