<svg width="26" height="26" viewBox="0 0 26 26" fill="none" xmlns="http://www.w3.org/2000/svg">
<path d="M25.024 19.6838V23.4674C25.0254 23.8186 24.9536 24.1663 24.8132 24.4881C24.6729 24.8099 24.467 25.0988 24.2087 25.3363C23.9505 25.5737 23.6457 25.7545 23.3137 25.8671C22.9818 25.9796 22.63 26.0214 22.281 25.9898C18.4092 25.5681 14.6901 24.2419 11.4224 22.1179C8.38231 20.1815 5.80482 17.598 3.873 14.5507C1.74655 11.2605 0.42322 7.51453 0.0102127 3.61619C-0.02123 3.26743 0.0201213 2.91593 0.131633 2.58406C0.243145 2.2522 0.422375 1.94724 0.657911 1.68861C0.893447 1.42998 1.18013 1.22334 1.4997 1.08185C1.81928 0.94036 2.16474 0.867119 2.51411 0.866789H6.28882C6.89945 0.860765 7.49143 1.07751 7.95443 1.47662C8.41742 1.87573 8.71983 2.42997 8.80529 3.03604C8.96462 4.24687 9.26008 5.43575 9.68606 6.58C9.85535 7.03141 9.89199 7.522 9.79164 7.99364C9.69128 8.46528 9.45815 8.89821 9.11985 9.24111L7.52189 10.8428C9.31306 14.0003 11.9213 16.6146 15.0713 18.41L16.6693 16.8083C17.0114 16.4692 17.4433 16.2355 17.9138 16.1349C18.3844 16.0343 18.8738 16.0711 19.3242 16.2407C20.4657 16.6677 21.6518 16.9639 22.8598 17.1236C23.471 17.21 24.0292 17.5186 24.4282 17.9906C24.8273 18.4627 25.0393 19.0653 25.024 19.6838Z" fill="#F5F5F5"/>
<path d="M25.9265 11.7558C23.6139 6.41709 19.4632 2.26576 14.2339 0.0644268C13.7938 -0.117573 13.3019 0.0990935 13.1207 0.54976C12.9481 1.00043 13.1552 1.51176 13.5867 1.70243C18.4104 3.73043 22.2418 7.56109 24.3732 12.4838C24.5113 12.8131 24.8219 13.0038 25.1499 13.0038C25.262 13.0038 25.3828 12.9778 25.495 12.9258C25.9265 12.7264 26.1163 12.2064 25.9265 11.7558Z" fill="white"/>
<path d="M13.1465 6.40845C16.0718 7.63912 18.3931 9.95312 19.6875 12.9345C19.8255 13.2464 20.1276 13.4371 20.4382 13.4371C20.5504 13.4371 20.6626 13.4111 20.7748 13.3591C21.189 13.1684 21.3788 12.6658 21.189 12.2324C19.722 8.85245 17.0814 6.21778 13.7678 4.83112C13.345 4.65778 12.8704 4.86578 12.6978 5.29912C12.5252 5.73245 12.7323 6.23512 13.1552 6.40845H13.1465Z" fill="white"/>
</svg>
