<svg width="29" height="29" viewBox="0 0 29 29" fill="none" xmlns="http://www.w3.org/2000/svg">
<path d="M24.7012 4.28437C22.0341 1.62656 18.478 0.149994 14.7244 0.149994C6.92073 0.149994 0.598779 6.44999 0.598779 14.2266C0.598779 16.6875 1.29024 19.1484 2.47561 21.2156L0.5 28.5L8.00732 26.5312C10.0817 27.6141 12.3537 28.2047 14.7244 28.2047C22.528 28.2047 28.85 21.9047 28.85 14.1281C28.7512 10.4859 27.3683 6.94218 24.7012 4.28437ZM21.5402 19.2469C21.2439 20.0344 19.861 20.8219 19.1695 20.9203C18.5768 21.0187 17.7866 21.0187 16.9963 20.8219C16.5024 20.625 15.811 20.4281 15.0207 20.0344C11.4646 18.5578 9.19268 15.0141 8.99512 14.7187C8.79756 14.5219 7.51342 12.8484 7.51342 11.0766C7.51342 9.30468 8.40244 8.51718 8.69878 8.12343C8.99512 7.72968 9.39024 7.72968 9.68658 7.72968C9.88414 7.72968 10.1805 7.72968 10.378 7.72968C10.5756 7.72968 10.8719 7.63124 11.1683 8.32031C11.4646 9.00937 12.1561 10.7812 12.2549 10.8797C12.3537 11.0766 12.3537 11.2734 12.2549 11.4703C12.1561 11.6672 12.0573 11.8641 11.8598 12.0609C11.6622 12.2578 11.4646 12.5531 11.3658 12.6516C11.1683 12.8484 10.9707 13.0453 11.1683 13.3406C11.3659 13.7344 12.0573 14.8172 13.1439 15.8016C14.5268 16.9828 15.6134 17.3766 16.0085 17.5734C16.4037 17.7703 16.6012 17.6719 16.7988 17.475C16.9963 17.2781 17.6878 16.4906 17.8854 16.0969C18.0829 15.7031 18.3793 15.8016 18.6756 15.9C18.9719 15.9984 20.75 16.8844 21.0463 17.0812C21.4415 17.2781 21.639 17.3766 21.7378 17.475C21.8366 17.7703 21.8366 18.4594 21.5402 19.2469Z" fill="white"/>
</svg>
