<svg width="24" height="24" viewBox="0 0 24 24" fill="none" xmlns="http://www.w3.org/2000/svg">
<g id="Location">
<g id="Vector">
<path d="M12.3897 20.7819C13.5086 18.6541 14.6235 16.5263 15.7423 14.3948C16.256 13.4121 16.7736 12.4333 17.2873 11.4506C18.0757 9.94644 18.2548 8.23817 17.5978 6.65461C16.8095 4.74981 15.0137 3.33632 12.8635 3.05287C10.7133 2.76941 8.46363 3.63867 7.14965 5.35073C5.83566 7.06278 5.66046 9.26616 6.56034 11.1483C6.92667 11.9117 7.34873 12.6563 7.74293 13.4083C9.00516 15.8083 10.2116 18.2459 11.5296 20.6194C11.5575 20.6723 11.5854 20.7252 11.6132 20.7819C11.872 21.2732 12.6445 20.8424 12.3857 20.3511C11.3544 18.3858 10.3191 16.4167 9.28786 14.4515L7.63144 11.2995C7.01426 10.1241 6.69174 8.90334 7.02621 7.59189C7.51597 5.70221 9.1485 4.20558 11.1872 3.89945C13.2258 3.59332 15.3919 4.55328 16.4391 6.31069C17.3032 7.76197 17.3112 9.48914 16.5387 10.9744C16.1007 11.8172 15.6547 12.6563 15.2128 13.4991C14.0142 15.7856 12.8117 18.0683 11.6132 20.3548C11.3584 20.8424 12.1309 21.2732 12.3857 20.7857L12.3897 20.7819Z" fill="#233038"/>
<path d="M13.644 7.47086C13.8073 7.47086 14.0342 7.48976 14.2333 7.59558C14.4444 7.70896 14.5718 7.8677 14.6116 8.09824C14.6116 8.09824 14.6196 8.17005 14.6156 8.11714C14.6156 8.08312 14.6036 8.2154 14.5957 8.24563C14.5678 8.3439 14.528 8.42704 14.4603 8.50641C14.313 8.6727 14.082 8.77097 13.859 8.79742C13.5604 8.83144 13.3613 9.0393 13.429 9.33409C13.5206 9.76494 13.4927 10.1693 13.1981 10.5322C12.9034 10.895 12.4455 11.0877 11.9796 11.1028C10.9762 11.1331 10.164 10.2865 10.4307 9.32653C10.4944 9.09977 10.3511 8.86923 10.1162 8.80498C9.7817 8.7105 9.4751 8.55554 9.41139 8.1965C9.40741 8.16627 9.39945 8.11714 9.39945 8.1776C9.39945 8.10202 9.42334 8.01509 9.45121 7.94328C9.50298 7.82234 9.60252 7.71274 9.71401 7.63715C10.2038 7.30079 10.9922 7.49732 11.1674 8.05289C11.2191 8.2154 11.4023 8.38547 11.5974 8.36657C11.8363 8.34012 12.0633 8.33256 12.2982 8.38547C12.5331 8.43838 12.7959 8.32122 12.8477 8.0869C12.9313 7.71652 13.2538 7.50866 13.644 7.47086C13.8869 7.44819 14.09 7.29323 14.09 7.04757C14.09 6.83593 13.8829 6.59783 13.644 6.62428C12.8795 6.69987 12.1548 7.10426 11.9836 7.86392L12.5331 7.56535C12.2186 7.49732 11.912 7.4822 11.5934 7.51621L12.0234 7.8299C11.6531 6.66208 10.0485 6.2539 9.07294 7.04001C8.65486 7.37638 8.43984 7.87903 8.5354 8.39303C8.65884 9.0582 9.23221 9.44369 9.87328 9.62888L9.55872 9.10733C9.15258 10.5737 10.367 12.0099 11.9717 11.9608C12.6924 11.9381 13.3932 11.6433 13.8511 11.1066C14.3568 10.5208 14.4404 9.83675 14.2851 9.11489L13.8551 9.65156C14.747 9.54574 15.5871 8.93348 15.4956 8.01887C15.404 7.10426 14.5121 6.62428 13.64 6.62428C13.0627 6.62428 13.0627 7.47464 13.64 7.47464L13.644 7.47086Z" fill="#233038"/>
</g>
</g>
</svg>
