<svg width="27" height="31" viewBox="0 0 27 31" fill="none" xmlns="http://www.w3.org/2000/svg">
<path d="M0 0H11.9796V13.0613C11.9759 16.4307 9.37853 19.161 6.17366 19.1649H5.80633C2.60108 19.1609 0.00374388 16.4306 0 13.0617V13.0613V0ZM10.0136 2.06668H1.96603V13.0614C1.96827 15.2899 3.68628 17.0959 5.8061 17.0983H6.17328C8.29333 17.0959 10.0113 15.2899 10.0136 13.0616V13.0614V2.06668ZM15.0204 0H27V13.0613C26.9963 16.4307 24.3989 19.161 21.194 19.1649H20.8267C17.6214 19.1609 15.0241 16.4306 15.0204 13.0617V13.0613L15.0204 0ZM25.0339 2.06668H16.9864V13.0614C16.9886 15.2899 18.7066 17.0959 20.8265 17.0983H21.1936C23.3137 17.0959 25.0317 15.2899 25.0339 13.0616V13.0614V2.06668ZM6.97283 29.9667H5.00672V18.1316H6.97275L6.97283 29.9667ZM21.9932 29.9667H20.0272V18.1316H21.9932V29.9667ZM10.9966 9.96132H0.982999V7.89462H10.9966V9.96132ZM26.017 9.96132H16.0034V7.89462H26.017V9.96132ZM10.9966 31H0.982999V28.9333H10.9966V31ZM26.017 31H16.0034V28.9333H26.017V31Z" fill="#233038" fill-opacity="0.8"/>
<path d="M11.9221 13.0613C11.9187 16.0949 9.79513 18.6019 7.03029 19.0396L7.03028 18.1316L7.03028 18.074H6.97275H5.00672H4.94918V18.1316V19.0396C2.18427 18.6017 0.0609074 16.0948 0.0575367 13.0616L0.0575367 13.0613V0.0575367H11.9221V13.0613ZM6.91522 19.0566C6.67241 19.0898 6.42487 19.107 6.17359 19.1073H5.8064C5.55494 19.107 5.30723 19.0898 5.06426 19.0565V18.1891H6.91521L6.91522 19.0566ZM6.17373 19.2224C6.42492 19.2221 6.6724 19.2052 6.91522 19.1728L6.91529 28.8758H5.06426V19.1727C5.30724 19.2052 5.55488 19.2221 5.80626 19.2224H5.80633H6.17366H6.17373ZM1.04054 28.9909H4.94918V29.9667V30.0242H5.00672H6.97283H7.03037L7.03037 29.9667L7.03036 28.9909H10.939V30.9425H1.04054V28.9909ZM5.06426 28.9909H6.91529L6.9153 29.9091H5.06426V28.9909ZM10.0711 2.06668V2.00914H10.0136H1.96603H1.90849V2.06668V7.83708H0.982999H0.925462V7.89462V9.96132V10.0189H0.982999H1.90849V13.0614V13.0614C1.91077 15.319 3.65182 17.1534 5.80603 17.1558H5.8061H6.17328H6.17335C8.32778 17.1534 10.0688 15.319 10.0711 13.0617V13.0616V13.0614V10.0189H10.9966H11.0541V9.96132V7.89462V7.83708H10.9966H10.0711V2.06668ZM1.04054 7.95215H1.90849V9.90379H1.04054V7.95215ZM10.939 9.90379H10.0711V7.95215H10.939V9.90379ZM2.02356 7.95215H9.95605V9.90379H2.02356V7.95215ZM26.9425 13.0613C26.9391 16.0949 24.8155 18.6019 22.0507 19.0396V18.1316V18.074H21.9932H20.0272H19.9696V18.1316V19.0396C17.2047 18.6017 15.0813 16.0948 15.0779 13.0616V13.0613L15.0779 0.0575367H26.9425V13.0613ZM21.9356 19.0566C21.6928 19.0898 21.4452 19.107 21.1939 19.1073H20.8268C20.5753 19.107 20.3276 19.0898 20.0847 19.0565V18.1891H21.9356V19.0566ZM21.1941 19.2224C21.4453 19.2221 21.6928 19.2052 21.9356 19.1728V28.8758H20.0847V19.1727C20.3277 19.2052 20.5753 19.2221 20.8266 19.2224H20.8267H21.194H21.1941ZM16.0609 28.9909H19.9696V29.9667V30.0242H20.0272H21.9932H22.0507V29.9667V28.9909H25.9594V30.9425H16.0609V28.9909ZM20.0847 28.9909H21.9356V29.9091H20.0847V28.9909ZM25.0915 2.06668V2.00914H25.0339H16.9864H16.9289V2.06668V7.83708H16.0034H15.9458V7.89462V9.96132V10.0189H16.0034H16.9289V13.0614V13.0614C16.9311 15.319 18.6722 17.1534 20.8264 17.1558H20.8265H21.1936H21.1937C23.3481 17.1534 25.0892 15.319 25.0915 13.0617V13.0616V13.0614V10.0189H26.017H26.0745V9.96132V7.89462V7.83708H26.017H25.0915V2.06668ZM16.0609 7.95215H16.9289V9.90379H16.0609V7.95215ZM25.9594 9.90379H25.0915V7.95215H25.9594V9.90379ZM17.0439 7.95215H24.9764V9.90379H17.0439V7.95215Z" stroke="#233038" stroke-opacity="0.8" stroke-width="0.115073"/>
</svg>
